<?xml version="1.0" encoding="utf-8"?>
<!-- Generator: Adobe Illustrator 15.0.0, SVG Export Plug-In . SVG Version: 6.00 Build 0)  -->
<!DOCTYPE svg PUBLIC "-//W3C//DTD SVG 1.1//EN" "http://www.w3.org/Graphics/SVG/1.1/DTD/svg11.dtd">
<svg version="1.1" id="Layer_1" xmlns="http://www.w3.org/2000/svg" xmlns:xlink="http://www.w3.org/1999/xlink" x="0px" y="0px"
	 width="233.279px" height="159.84px" viewBox="0 0 233.279 159.84" enable-background="new 0 0 233.279 159.84"
	 xml:space="preserve">
<rect x="0.001" y="-0.001" fill="#F2FFCC" width="233.721" height="159.841"/>
<rect x="58.72" y="17" fill="#FFFAFA" stroke="#000000" stroke-width="2.5" stroke-miterlimit="10" width="114" height="121"/>
<rect x="76.309" y="51.026" fill="none" width="92.563" height="54.941"/>
<text transform="matrix(1 0 0 1 76.303 100.916)" font-family="'Tahoma'" font-size="65.6452">He</text>
<rect x="69.215" y="25.745" fill="none" width="23.197" height="29.827"/>
<text transform="matrix(1 0 0 1 69.2131 43.2256)" font-family="'Tahoma'" font-size="23">4</text>
<rect x="143.088" y="24.918" fill="none" width="34.797" height="44.737"/>
<text transform="matrix(1 0 0 1 143.0886 42.3984)" fill="#0000FF" font-family="'Tahoma'" font-size="23">-1</text>
<rect x="69.215" y="109.768" fill="none" width="48.882" height="51.369"/>
<text transform="matrix(1 0 0 1 69.2131 127.2471)" fill="#FF0606" font-family="'Tahoma'" font-size="23">2</text>
<g>
	<line fill="none" stroke="#010101" stroke-width="0.4563" stroke-miterlimit="10" x1="11.617" y1="22.058" x2="6.96" y2="36.936"/>
	
		<line fill="none" stroke="#010101" stroke-width="0.4563" stroke-miterlimit="10" x1="11.617" y1="22.058" x2="16.132" y2="36.882"/>
	
		<linearGradient id="SVGID_1_" gradientUnits="userSpaceOnUse" x1="614.7048" y1="1147.71" x2="647.1794" y2="1147.71" gradientTransform="matrix(1 0 0 1 -603.3594 -1126.0801)">
		<stop  offset="0.0056" style="stop-color:#BBBCBE"/>
		<stop  offset="0.2921" style="stop-color:#989CA0"/>
		<stop  offset="0.6517" style="stop-color:#BFBEC2"/>
		<stop  offset="0.8652" style="stop-color:#9EA0A4"/>
		<stop  offset="1" style="stop-color:#A7A9AC"/>
		<stop  offset="1" style="stop-color:#C3C6CA"/>
	</linearGradient>
	<path fill="url(#SVGID_1_)" stroke="#010101" stroke-width="0.4563" stroke-miterlimit="10" d="M43.82,21.629
		c0-0.237-0.123-0.428-0.274-0.428H11.62c-0.152,0-0.274,0.191-0.274,0.428l0,0c0,0.237,0.122,0.429,0.274,0.429h31.925
		C43.698,22.058,43.82,21.866,43.82,21.629L43.82,21.629z"/>
	
		<linearGradient id="SVGID_2_" gradientUnits="userSpaceOnUse" x1="629.6228" y1="1155.6924" x2="632.4578" y2="1155.6924" gradientTransform="matrix(1 0 0 1 -603.3594 -1126.0801)">
		<stop  offset="0.0056" style="stop-color:#BBBCBE"/>
		<stop  offset="0.2921" style="stop-color:#989CA0"/>
		<stop  offset="0.6517" style="stop-color:#BFBEC2"/>
		<stop  offset="0.8652" style="stop-color:#9EA0A4"/>
		<stop  offset="1" style="stop-color:#A7A9AC"/>
		<stop  offset="1" style="stop-color:#C3C6CA"/>
	</linearGradient>
	<path fill="url(#SVGID_2_)" stroke="#010101" stroke-width="0.4563" stroke-miterlimit="10" d="M29.098,39.766
		c0,0.514-0.47,0.931-1.042,0.931h-0.751c-0.573,0-1.042-0.417-1.042-0.931V19.458c0-0.514,0.469-0.931,1.042-0.931h0.751
		c0.572,0,1.042,0.417,1.042,0.931V39.766z"/>
	
		<linearGradient id="SVGID_3_" gradientUnits="userSpaceOnUse" x1="623.5164" y1="1161.6797" x2="638.5857" y2="1161.6797" gradientTransform="matrix(1 0 0 1 -603.3594 -1126.0801)">
		<stop  offset="0.0056" style="stop-color:#BBBCBE"/>
		<stop  offset="0.2921" style="stop-color:#989CA0"/>
		<stop  offset="0.6517" style="stop-color:#BFBEC2"/>
		<stop  offset="0.8652" style="stop-color:#9EA0A4"/>
		<stop  offset="1" style="stop-color:#A7A9AC"/>
		<stop  offset="1" style="stop-color:#C3C6CA"/>
	</linearGradient>
	<path fill="url(#SVGID_3_)" stroke="#010101" stroke-width="0.4563" stroke-miterlimit="10" d="M35.226,38.351
		c0,0.985-0.657,1.784-1.473,1.784H21.627c-0.812,0-1.47-0.798-1.47-1.784l1.225-5.502c0-0.985,0.78-1.784,1.595-1.784h9.558
		c0.813,0,1.592,0.799,1.592,1.784L35.226,38.351z"/>
	
		<linearGradient id="SVGID_4_" gradientUnits="userSpaceOnUse" x1="623.5164" y1="1166.7959" x2="638.5857" y2="1166.7959" gradientTransform="matrix(1 0 0 1 -603.3594 -1126.0801)">
		<stop  offset="0.0056" style="stop-color:#BBBCBE"/>
		<stop  offset="0.2921" style="stop-color:#989CA0"/>
		<stop  offset="0.6517" style="stop-color:#BFBEC2"/>
		<stop  offset="0.8652" style="stop-color:#9EA0A4"/>
		<stop  offset="1" style="stop-color:#A7A9AC"/>
		<stop  offset="1" style="stop-color:#C3C6CA"/>
	</linearGradient>
	<path fill="url(#SVGID_4_)" stroke="#010101" stroke-width="0.4563" stroke-miterlimit="10" d="M35.226,40.716
		c0,0.3-0.281,0.542-0.629,0.542H20.787c-0.348,0-0.63-0.242-0.63-0.542l0,0c0-0.299,0.282-0.542,0.63-0.542h13.812
		C34.945,40.175,35.226,40.417,35.226,40.716L35.226,40.716z"/>
	
		<linearGradient id="SVGID_5_" gradientUnits="userSpaceOnUse" x1="627.0164" y1="1156.6777" x2="634.9783" y2="1156.6777" gradientTransform="matrix(1 0 0 1 -603.3594 -1126.0801)">
		<stop  offset="0.0056" style="stop-color:#BBBCBE"/>
		<stop  offset="0.2921" style="stop-color:#989CA0"/>
		<stop  offset="0.6517" style="stop-color:#BFBEC2"/>
		<stop  offset="0.8652" style="stop-color:#9EA0A4"/>
		<stop  offset="1" style="stop-color:#A7A9AC"/>
		<stop  offset="1" style="stop-color:#C3C6CA"/>
	</linearGradient>
	<path fill="url(#SVGID_5_)" stroke="#010101" stroke-width="0.4563" stroke-miterlimit="10" d="M31.619,30.598
		c0,0.258-0.455,0.467-1.015,0.467H24.67c-0.562,0-1.013-0.209-1.013-0.467l0,0c0-0.258,0.451-0.467,1.013-0.467h5.938
		C31.164,30.131,31.619,30.339,31.619,30.598L31.619,30.598z"/>
	
		<radialGradient id="SVGID_6_" cx="1463.2605" cy="1934.5928" r="1.5691" gradientTransform="matrix(0.4842 0 0 0.4842 -682.5072 -915.1366)" gradientUnits="userSpaceOnUse">
		<stop  offset="0" style="stop-color:#989CA0"/>
		<stop  offset="0.0056" style="stop-color:#BBBCBE"/>
		<stop  offset="0.5032" style="stop-color:#BFBEC2"/>
		<stop  offset="0.6802" style="stop-color:#BCBCC0"/>
		<stop  offset="0.8227" style="stop-color:#B3B4B7"/>
		<stop  offset="0.9527" style="stop-color:#A5A6AA"/>
		<stop  offset="1" style="stop-color:#9EA0A4"/>
		<stop  offset="1" style="stop-color:#A7A9AC"/>
		<stop  offset="1" style="stop-color:#C3C6CA"/>
	</radialGradient>
	<path fill="url(#SVGID_6_)" stroke="#010101" stroke-width="0.4563" stroke-miterlimit="10" d="M26.263,22.368
		c0,0.145-0.116,0.263-0.264,0.263l0,0c-0.146,0-0.266-0.118-0.266-0.263v-1.557c0-0.146,0.119-0.263,0.266-0.263l0,0
		c0.146,0,0.264,0.118,0.264,0.263V22.368z"/>
	
		<radialGradient id="SVGID_7_" cx="1470.2029" cy="1934.6748" r="1.5681" gradientTransform="matrix(0.4842 0 0 0.4842 -682.5072 -915.1366)" gradientUnits="userSpaceOnUse">
		<stop  offset="0" style="stop-color:#989CA0"/>
		<stop  offset="0.0056" style="stop-color:#BBBCBE"/>
		<stop  offset="0.5032" style="stop-color:#BFBEC2"/>
		<stop  offset="0.6802" style="stop-color:#BCBCC0"/>
		<stop  offset="0.8227" style="stop-color:#B3B4B7"/>
		<stop  offset="0.9527" style="stop-color:#A5A6AA"/>
		<stop  offset="1" style="stop-color:#9EA0A4"/>
		<stop  offset="1" style="stop-color:#A7A9AC"/>
		<stop  offset="1" style="stop-color:#C3C6CA"/>
	</radialGradient>
	<path fill="url(#SVGID_7_)" stroke="#010101" stroke-width="0.4563" stroke-miterlimit="10" d="M29.624,22.407
		c0,0.146-0.118,0.263-0.265,0.263l0,0c-0.146,0-0.262-0.118-0.262-0.263v-1.556c0-0.145,0.114-0.263,0.262-0.263l0,0
		c0.146,0,0.265,0.118,0.265,0.263V22.407z"/>
	
		<linearGradient id="SVGID_8_" gradientUnits="userSpaceOnUse" x1="609.5564" y1="1163.4092" x2="620.2546" y2="1163.4092" gradientTransform="matrix(1 0 0 1 -603.3594 -1126.0801)">
		<stop  offset="0.0056" style="stop-color:#BBBCBE"/>
		<stop  offset="0.2921" style="stop-color:#989CA0"/>
		<stop  offset="0.6517" style="stop-color:#BFBEC2"/>
		<stop  offset="0.8652" style="stop-color:#9EA0A4"/>
		<stop  offset="1" style="stop-color:#A7A9AC"/>
		<stop  offset="1" style="stop-color:#C3C6CA"/>
	</linearGradient>
	<path fill="url(#SVGID_8_)" stroke="#010101" stroke-width="0.4563" stroke-miterlimit="10" d="M16.895,37.329
		c0,0.725-0.357,1.313-0.801,1.313H6.999c-0.439,0-0.802-0.588-0.802-1.313l0,0c0-0.726,0.359-1.314,0.802-1.314h9.097
		C16.536,36.015,16.895,36.604,16.895,37.329L16.895,37.329z"/>
	
		<line fill="none" stroke="#010101" stroke-width="0.4563" stroke-miterlimit="10" x1="43.471" y1="22.182" x2="38.812" y2="37.059"/>
	
		<line fill="none" stroke="#010101" stroke-width="0.4563" stroke-miterlimit="10" x1="43.471" y1="22.182" x2="47.985" y2="37.004"/>
	
		<linearGradient id="SVGID_9_" gradientUnits="userSpaceOnUse" x1="641.408" y1="1163.3828" x2="652.1062" y2="1163.3828" gradientTransform="matrix(1 0 0 1 -603.3594 -1126.0801)">
		<stop  offset="0.0056" style="stop-color:#BBBCBE"/>
		<stop  offset="0.2921" style="stop-color:#989CA0"/>
		<stop  offset="0.6517" style="stop-color:#BFBEC2"/>
		<stop  offset="0.8652" style="stop-color:#9EA0A4"/>
		<stop  offset="1" style="stop-color:#A7A9AC"/>
		<stop  offset="1" style="stop-color:#C3C6CA"/>
	</linearGradient>
	<path fill="url(#SVGID_9_)" stroke="#010101" stroke-width="0.4563" stroke-miterlimit="10" d="M48.747,37.302
		c0,0.725-0.355,1.313-0.801,1.313h-9.095c-0.441,0-0.803-0.588-0.803-1.313l0,0c0-0.725,0.358-1.312,0.803-1.312h9.095
		C48.39,35.988,48.747,36.577,48.747,37.302L48.747,37.302z"/>
</g>
<g>
	<path fill="#C8C8C8" stroke="#969696" stroke-width="0.75" stroke-miterlimit="10" d="M223.575,38.896
		c0,1.139-0.99,2.062-2.211,2.062h-34.961c-1.221,0-2.211-0.923-2.211-2.062V20.344c0-1.138,0.99-2.061,2.211-2.061h34.961
		c1.221,0,2.211,0.923,2.211,2.061V38.896z"/>
	<linearGradient id="SVGID_10_" gradientUnits="userSpaceOnUse" x1="188.281" y1="29.0005" x2="220.4255" y2="29.0005">
		<stop  offset="0" style="stop-color:#C20000"/>
		<stop  offset="0.0823" style="stop-color:#C30303"/>
		<stop  offset="0.1473" style="stop-color:#C50D0D"/>
		<stop  offset="0.2065" style="stop-color:#C91E1E"/>
		<stop  offset="0.2621" style="stop-color:#CF3535"/>
		<stop  offset="0.3153" style="stop-color:#D65454"/>
		<stop  offset="0.3667" style="stop-color:#DF7979"/>
		<stop  offset="0.4166" style="stop-color:#EAA6A6"/>
		<stop  offset="0.4641" style="stop-color:#F6D8D8"/>
		<stop  offset="0.497" style="stop-color:#FFFFFF"/>
		<stop  offset="0.5026" style="stop-color:#F7F6FE"/>
		<stop  offset="0.5344" style="stop-color:#CBC8F9"/>
		<stop  offset="0.5691" style="stop-color:#A49DF4"/>
		<stop  offset="0.606" style="stop-color:#8279F1"/>
		<stop  offset="0.6456" style="stop-color:#655BED"/>
		<stop  offset="0.6888" style="stop-color:#4E42EB"/>
		<stop  offset="0.7371" style="stop-color:#3C2FE9"/>
		<stop  offset="0.7931" style="stop-color:#2F21E7"/>
		<stop  offset="0.8642" style="stop-color:#2819E6"/>
		<stop  offset="1" style="stop-color:#2617E6"/>
	</linearGradient>
	<path fill="url(#SVGID_10_)" stroke="#616361" stroke-width="0.75" stroke-miterlimit="10" d="M220.332,37.238h-31.958
		c0,0-2.299-16.476,15.978-16.475C222.638,20.765,220.332,37.238,220.332,37.238z"/>
	<g>
		<polygon points="204.72,24.271 201.357,24.774 202.473,21.892 		"/>
		<line fill="none" stroke="#000000" stroke-width="2" stroke-miterlimit="10" x1="202.953" y1="23.922" x2="205.447" y2="36.287"/>
	</g>
</g>
</svg>
