<?xml version="1.0" encoding="utf-8"?>
<!-- Generator: Adobe Illustrator 15.0.0, SVG Export Plug-In . SVG Version: 6.00 Build 0)  -->
<!DOCTYPE svg PUBLIC "-//W3C//DTD SVG 1.1//EN" "http://www.w3.org/Graphics/SVG/1.1/DTD/svg11.dtd">
<svg version="1.1" id="Layer_1" xmlns="http://www.w3.org/2000/svg" xmlns:xlink="http://www.w3.org/1999/xlink" x="0px" y="0px"
	 width="233.279px" height="159.84px" viewBox="0 0 233.279 159.84" enable-background="new 0 0 233.279 159.84"
	 xml:space="preserve">
<rect x="0.139" y="-0.16" fill="#FFFEDF" width="233" height="159"/>
<circle fill="#FFFEE2" cx="126.595" cy="130.875" r="3.625"/>
<path fill="none" stroke="#0000FF" stroke-width="3" stroke-miterlimit="10" stroke-dasharray="10" d="M175.003,69.588
	c0,31.545-25.566,57.114-57.113,57.114c-31.542,0-57.113-25.569-57.113-57.114c0-31.548,25.571-57.116,57.113-57.116
	C149.434,12.472,175.003,38.04,175.003,69.588z"/>
<path fill="none" stroke="#0000FF" stroke-width="3" stroke-miterlimit="10" stroke-dasharray="10" d="M149.504,70.382
	c0,17.831-14.443,32.283-32.275,32.283c-17.837,0-32.29-14.452-32.29-32.283c0-17.837,14.453-32.287,32.29-32.287
	C135.058,38.095,149.504,52.545,149.504,70.382z"/>
<radialGradient id="SVGID_1_" cx="1150.9226" cy="-18.521" r="6.7466" gradientTransform="matrix(0.9283 0.3718 0.3718 -0.9283 -945.6321 -369.5851)" gradientUnits="userSpaceOnUse">
	<stop  offset="0" style="stop-color:#FFFFFF"/>
	<stop  offset="0.0576" style="stop-color:#F6E6E7"/>
	<stop  offset="0.1941" style="stop-color:#E2B1B3"/>
	<stop  offset="0.3324" style="stop-color:#D08386"/>
	<stop  offset="0.4696" style="stop-color:#C25D61"/>
	<stop  offset="0.6056" style="stop-color:#B74045"/>
	<stop  offset="0.7401" style="stop-color:#AF2C30"/>
	<stop  offset="0.8724" style="stop-color:#AB1F24"/>
	<stop  offset="1" style="stop-color:#A91B20"/>
</radialGradient>
<path fill="url(#SVGID_1_)" stroke="#050505" stroke-width="0.9053" stroke-miterlimit="10" d="M122.144,78.027
	c-1.389,3.469-5.313,5.144-8.771,3.759c-3.458-1.386-5.14-5.306-3.75-8.771c1.389-3.468,5.311-5.143,8.771-3.759
	S123.532,74.564,122.144,78.027z"/>
<radialGradient id="SVGID_2_" cx="-1141.0095" cy="-1499.2891" r="6.9133" gradientTransform="matrix(0.3569 -0.9342 -0.9342 -0.3569 -872.2518 -1538.2118)" gradientUnits="userSpaceOnUse">
	<stop  offset="0" style="stop-color:#FFFFFF"/>
	<stop  offset="0.1103" style="stop-color:#EEF3F0"/>
	<stop  offset="0.3372" style="stop-color:#D1DDD6"/>
	<stop  offset="0.5631" style="stop-color:#BDCEC4"/>
	<stop  offset="0.7855" style="stop-color:#B0C5B9"/>
	<stop  offset="1" style="stop-color:#ACC2B5"/>
</radialGradient>
<path fill="url(#SVGID_2_)" stroke="#050505" stroke-width="0.9053" stroke-miterlimit="10" d="M123.632,56.357
	c3.566,1.374,5.348,5.364,3.982,8.93c-1.352,3.564-5.344,5.348-8.918,3.99c-3.578-1.368-5.356-5.358-3.994-8.93
	C116.062,56.788,120.052,54.999,123.632,56.357z"/>
<rect x="108.475" y="146.588" fill="none" width="31.667" height="6"/>
<rect x="160.479" y="146.588" fill="none" width="31.666" height="6"/>
<path fill="#FFFEDF" d="M46.139,149.588"/>
<path fill="#FFFEDF" d="M51.139,149.588"/>
<linearGradient id="SVGID_3_" gradientUnits="userSpaceOnUse" x1="123.9119" y1="-42.7676" x2="160.363" y2="-42.7676" gradientTransform="matrix(1 0 0 -1 -76 94.8398)">
	<stop  offset="0" style="stop-color:#000000"/>
	<stop  offset="1" style="stop-color:#FFFFFF"/>
</linearGradient>
<ellipse fill="url(#SVGID_3_)" stroke="#000000" stroke-width="0.25" cx="66.137" cy="137.607" rx="18.226" ry="4.017"/>
<linearGradient id="SVGID_4_" gradientUnits="userSpaceOnUse" x1="123.9119" y1="-51.1011" x2="160.363" y2="-51.1011" gradientTransform="matrix(1 0 0 -1 -76 94.8398)">
	<stop  offset="0" style="stop-color:#9F0B00"/>
	<stop  offset="1" style="stop-color:#BF1B00"/>
</linearGradient>
<path fill="url(#SVGID_4_)" stroke="#000000" stroke-width="0.25" d="M80.006,151.673c0,0-2.258,2.449-13.87,2.599
	c-11.612,0.147-14.353-2.599-14.353-2.599l-3.871-14.068c0,0,8.643,3,18.225,2.7s18.226-2.7,18.226-2.7L80.006,151.673z"/>
<linearGradient id="SVGID_5_" gradientUnits="userSpaceOnUse" x1="227.4158" y1="-43.2847" x2="263.8669" y2="-43.2847" gradientTransform="matrix(1 0 0 -1 -76 94.8398)">
	<stop  offset="0" style="stop-color:#000000"/>
	<stop  offset="1" style="stop-color:#FFFFFF"/>
</linearGradient>
<ellipse fill="url(#SVGID_5_)" stroke="#000000" stroke-width="0.25" cx="169.64" cy="138.125" rx="18.227" ry="3.658"/>
<linearGradient id="SVGID_6_" gradientUnits="userSpaceOnUse" x1="227.4148" y1="-51.3784" x2="263.866" y2="-51.3784" gradientTransform="matrix(1 0 0 -1 -76 94.8398)">
	<stop  offset="0" style="stop-color:#0062BF"/>
	<stop  offset="1" style="stop-color:#00153F"/>
</linearGradient>
<path fill="url(#SVGID_6_)" stroke="#000000" stroke-width="0.25" d="M183.51,151.951c0,0-2.259,2.449-13.871,2.597
	s-14.354-2.597-14.354-2.597l-3.871-14.068c0,0,8.643,3,18.225,2.699c9.582-0.3,18.227-2.699,18.227-2.699L183.51,151.951z"/>
<linearGradient id="SVGID_7_" gradientUnits="userSpaceOnUse" x1="177.3855" y1="-43.3213" x2="213.8367" y2="-43.3213" gradientTransform="matrix(1 0 0 -1 -76 94.8398)">
	<stop  offset="0" style="stop-color:#000000"/>
	<stop  offset="1" style="stop-color:#FFFFFF"/>
</linearGradient>
<ellipse fill="url(#SVGID_7_)" stroke="#000000" stroke-width="0.25" cx="119.612" cy="138.161" rx="18.225" ry="3.657"/>
<linearGradient id="SVGID_8_" gradientUnits="userSpaceOnUse" x1="177.3855" y1="-51.4146" x2="213.8367" y2="-51.4146" gradientTransform="matrix(1 0 0 -1 -76 94.8398)">
	<stop  offset="0" style="stop-color:#AAAAAA"/>
	<stop  offset="1" style="stop-color:#000000"/>
</linearGradient>
<path fill="url(#SVGID_8_)" stroke="#000000" stroke-width="0.25" d="M133.482,151.986c0,0-2.259,2.449-13.87,2.598
	c-11.613,0.147-14.355-2.598-14.355-2.598l-3.871-14.067c0,0,8.644,3,18.226,2.7c9.58-0.301,18.225-2.7,18.225-2.7L133.482,151.986z
	"/>
<radialGradient id="SVGID_9_" cx="1120.0808" cy="-25.3359" r="5.6914" gradientTransform="matrix(0.9283 0.3718 0.3718 -0.9283 -945.6321 -369.5851)" gradientUnits="userSpaceOnUse">
	<stop  offset="0" style="stop-color:#7FF3FF"/>
	<stop  offset="0.4545" style="stop-color:#0077BF"/>
	<stop  offset="1" style="stop-color:#0012DF"/>
</radialGradient>
<path fill="url(#SVGID_9_)" stroke="#050505" stroke-width="0.5" stroke-miterlimit="10" d="M90.001,72.497
	c-1.176,2.927-4.481,4.336-7.4,3.167c-2.921-1.168-4.336-4.473-3.164-7.398c1.172-2.924,4.481-4.34,7.397-3.17
	C89.753,66.261,91.173,69.573,90.001,72.497z"/>
<radialGradient id="SVGID_10_" cx="1181.0076" cy="-3.21" r="5.6919" gradientTransform="matrix(0.9283 0.3718 0.3718 -0.9283 -945.6321 -369.5851)" gradientUnits="userSpaceOnUse">
	<stop  offset="0" style="stop-color:#7FF3FF"/>
	<stop  offset="0.4545" style="stop-color:#0077BF"/>
	<stop  offset="1" style="stop-color:#0012DF"/>
</radialGradient>
<path fill="url(#SVGID_10_)" stroke="#050505" stroke-width="0.5" stroke-miterlimit="10" d="M154.786,74.609
	c-1.176,2.927-4.48,4.336-7.401,3.168c-2.919-1.169-4.335-4.473-3.163-7.399c1.171-2.924,4.48-4.34,7.399-3.169
	C154.539,68.374,155.957,71.686,154.786,74.609z"/>
</svg>
