<?xml version="1.0" encoding="utf-8"?>
<!-- Generator: Adobe Illustrator 15.0.0, SVG Export Plug-In . SVG Version: 6.00 Build 0)  -->
<!DOCTYPE svg PUBLIC "-//W3C//DTD SVG 1.1//EN" "http://www.w3.org/Graphics/SVG/1.1/DTD/svg11.dtd">
<svg version="1.1" id="Layer_1" xmlns="http://www.w3.org/2000/svg" xmlns:xlink="http://www.w3.org/1999/xlink" x="0px" y="0px"
	 width="233.279px" height="159.84px" viewBox="0 0 233.279 159.84" enable-background="new 0 0 233.279 159.84"
	 xml:space="preserve">
<rect x="0.139" y="-0.16" fill="#FFFEDF" width="233" height="159"/>
<circle fill="#FFFEE2" cx="126.595" cy="130.875" r="3.625"/>
<path fill="none" stroke="#0000FF" stroke-width="2" stroke-miterlimit="10" stroke-dasharray="5.7266" d="M175.003,69.588
	c0,31.545-25.567,57.114-57.114,57.114c-31.542,0-57.113-25.569-57.113-57.114c0-31.548,25.571-57.116,57.113-57.116
	C149.434,12.472,175.003,38.04,175.003,69.588z"/>
<path fill="none" stroke="#0000FF" stroke-width="2" stroke-miterlimit="10" stroke-dasharray="5.8603" d="M149.504,70.382
	c0,17.831-14.444,32.283-32.276,32.283c-17.837,0-32.29-14.452-32.29-32.283c0-17.837,14.453-32.287,32.29-32.287
	C135.058,38.095,149.504,52.545,149.504,70.382z"/>
<g>
	
		<radialGradient id="SVGID_1_" cx="1018.9519" cy="232.5732" r="4.4971" gradientTransform="matrix(0.9283 0.3718 -0.3718 0.9283 -735.9539 -516.8748)" gradientUnits="userSpaceOnUse">
		<stop  offset="0" style="stop-color:#FFFFFF"/>
		<stop  offset="0.0576" style="stop-color:#F6E6E7"/>
		<stop  offset="0.1941" style="stop-color:#E2B1B3"/>
		<stop  offset="0.3324" style="stop-color:#D08386"/>
		<stop  offset="0.4696" style="stop-color:#C25D61"/>
		<stop  offset="0.6056" style="stop-color:#B74045"/>
		<stop  offset="0.7401" style="stop-color:#AF2C30"/>
		<stop  offset="0.8724" style="stop-color:#AB1F24"/>
		<stop  offset="1" style="stop-color:#A91B20"/>
	</radialGradient>
	<path fill="url(#SVGID_1_)" stroke="#050505" stroke-width="0.9053" stroke-miterlimit="10" d="M127.641,79.542
		c-0.927,2.312-3.541,3.426-5.846,2.504c-2.306-0.924-3.427-3.535-2.499-5.847c0.926-2.308,3.537-3.426,5.846-2.505
		C127.444,74.617,128.566,77.23,127.641,79.542z"/>
	
		<radialGradient id="SVGID_2_" cx="1015.5193" cy="223.9531" r="4.4971" gradientTransform="matrix(0.9283 0.3718 -0.3718 0.9283 -735.9539 -516.8748)" gradientUnits="userSpaceOnUse">
		<stop  offset="0" style="stop-color:#FFFFFF"/>
		<stop  offset="0.0576" style="stop-color:#F6E6E7"/>
		<stop  offset="0.1941" style="stop-color:#E2B1B3"/>
		<stop  offset="0.3324" style="stop-color:#D08386"/>
		<stop  offset="0.4696" style="stop-color:#C25D61"/>
		<stop  offset="0.6056" style="stop-color:#B74045"/>
		<stop  offset="0.7401" style="stop-color:#AF2C30"/>
		<stop  offset="0.8724" style="stop-color:#AB1F24"/>
		<stop  offset="1" style="stop-color:#A91B20"/>
	</radialGradient>
	<path fill="url(#SVGID_2_)" stroke="#050505" stroke-width="0.9053" stroke-miterlimit="10" d="M127.66,70.264
		c-0.929,2.312-3.541,3.426-5.847,2.503c-2.308-0.923-3.426-3.535-2.501-5.845s3.54-3.429,5.847-2.506
		C127.463,65.337,128.585,67.954,127.66,70.264z"/>
	
		<radialGradient id="SVGID_3_" cx="-841.1462" cy="1481.5957" r="4.6094" gradientTransform="matrix(0.3569 -0.9342 0.9342 0.3569 -965.1282 -1237.4766)" gradientUnits="userSpaceOnUse">
		<stop  offset="0" style="stop-color:#FFFFFF"/>
		<stop  offset="0.1103" style="stop-color:#EEF3F0"/>
		<stop  offset="0.3372" style="stop-color:#D1DDD6"/>
		<stop  offset="0.5631" style="stop-color:#BDCEC4"/>
		<stop  offset="0.7855" style="stop-color:#B0C5B9"/>
		<stop  offset="1" style="stop-color:#ACC2B5"/>
	</radialGradient>
	<path fill="url(#SVGID_3_)" stroke="#050505" stroke-width="0.9053" stroke-miterlimit="10" d="M120.421,72.798
		c2.38,0.917,3.567,3.574,2.659,5.951c-0.905,2.375-3.563,3.567-5.949,2.661c-2.38-0.913-3.567-3.573-2.662-5.954
		C115.378,73.083,118.036,71.89,120.421,72.798z"/>
	
		<radialGradient id="SVGID_4_" cx="1005.4832" cy="232.2148" r="4.4971" gradientTransform="matrix(0.9283 0.3718 -0.3718 0.9283 -735.9539 -516.8748)" gradientUnits="userSpaceOnUse">
		<stop  offset="0" style="stop-color:#FFFFFF"/>
		<stop  offset="0.0576" style="stop-color:#F6E6E7"/>
		<stop  offset="0.1941" style="stop-color:#E2B1B3"/>
		<stop  offset="0.3324" style="stop-color:#D08386"/>
		<stop  offset="0.4696" style="stop-color:#C25D61"/>
		<stop  offset="0.6056" style="stop-color:#B74045"/>
		<stop  offset="0.7401" style="stop-color:#AF2C30"/>
		<stop  offset="0.8724" style="stop-color:#AB1F24"/>
		<stop  offset="1" style="stop-color:#A91B20"/>
	</radialGradient>
	<path fill="url(#SVGID_4_)" stroke="#050505" stroke-width="0.9053" stroke-miterlimit="10" d="M115.272,74.2
		c-0.926,2.312-3.542,3.429-5.847,2.506c-2.306-0.924-3.427-3.537-2.5-5.847c0.925-2.312,3.54-3.429,5.846-2.506
		C115.078,69.276,116.197,71.891,115.272,74.2z"/>
	
		<radialGradient id="SVGID_5_" cx="-829.8225" cy="1472.8184" r="4.6096" gradientTransform="matrix(0.3569 -0.9342 0.9342 0.3569 -965.1282 -1237.4766)" gradientUnits="userSpaceOnUse">
		<stop  offset="0" style="stop-color:#FFFFFF"/>
		<stop  offset="0.1103" style="stop-color:#EEF3F0"/>
		<stop  offset="0.3372" style="stop-color:#D1DDD6"/>
		<stop  offset="0.5631" style="stop-color:#BDCEC4"/>
		<stop  offset="0.7855" style="stop-color:#B0C5B9"/>
		<stop  offset="1" style="stop-color:#ACC2B5"/>
	</radialGradient>
	<path fill="url(#SVGID_5_)" stroke="#050505" stroke-width="0.9053" stroke-miterlimit="10" d="M116.263,59.087
		c2.378,0.916,3.566,3.576,2.656,5.953c-0.902,2.376-3.563,3.565-5.946,2.66c-2.385-0.912-3.571-3.572-2.663-5.953
		C111.218,59.374,113.877,58.181,116.263,59.087z"/>
	
		<radialGradient id="SVGID_6_" cx="-834.637" cy="1478.2012" r="4.6099" gradientTransform="matrix(0.3569 -0.9342 0.9342 0.3569 -965.1282 -1237.4766)" gradientUnits="userSpaceOnUse">
		<stop  offset="0" style="stop-color:#FFFFFF"/>
		<stop  offset="0.1103" style="stop-color:#EEF3F0"/>
		<stop  offset="0.3372" style="stop-color:#D1DDD6"/>
		<stop  offset="0.5631" style="stop-color:#BDCEC4"/>
		<stop  offset="0.7855" style="stop-color:#B0C5B9"/>
		<stop  offset="1" style="stop-color:#ACC2B5"/>
	</radialGradient>
	<path fill="url(#SVGID_6_)" stroke="#050505" stroke-width="0.9053" stroke-miterlimit="10" d="M119.571,65.505
		c2.382,0.917,3.568,3.576,2.661,5.952c-0.902,2.375-3.566,3.567-5.951,2.66c-2.381-0.913-3.568-3.574-2.66-5.954
		C114.527,65.791,117.188,64.599,119.571,65.505z"/>
</g>
<rect x="108.475" y="146.588" fill="none" width="31.667" height="6"/>
<rect x="160.479" y="146.588" fill="none" width="31.666" height="6"/>
<path fill="#FFFEDF" d="M46.139,149.588"/>
<path fill="#FFFEDF" d="M51.139,149.588"/>
<g>
	<linearGradient id="SVGID_7_" gradientUnits="userSpaceOnUse" x1="58.1394" y1="142.6865" x2="88.5144" y2="142.6865">
		<stop  offset="0" style="stop-color:#000000"/>
		<stop  offset="1" style="stop-color:#FFFFFF"/>
	</linearGradient>
	<ellipse fill="url(#SVGID_7_)" stroke="#000000" stroke-width="0.25" cx="73.327" cy="142.688" rx="15.188" ry="3.347"/>
	
		<radialGradient id="SVGID_8_" cx="987.325" cy="314.623" r="3.3726" gradientTransform="matrix(0.9283 0.3718 -0.3718 0.9283 -735.9539 -516.8748)" gradientUnits="userSpaceOnUse">
		<stop  offset="0" style="stop-color:#FFFFFF"/>
		<stop  offset="0.0576" style="stop-color:#F6E6E7"/>
		<stop  offset="0.1941" style="stop-color:#E2B1B3"/>
		<stop  offset="0.3324" style="stop-color:#D08386"/>
		<stop  offset="0.4696" style="stop-color:#C25D61"/>
		<stop  offset="0.6056" style="stop-color:#B74045"/>
		<stop  offset="0.7401" style="stop-color:#AF2C30"/>
		<stop  offset="0.8724" style="stop-color:#AB1F24"/>
		<stop  offset="1" style="stop-color:#A91B20"/>
	</radialGradient>
	<path fill="url(#SVGID_8_)" stroke="#050505" stroke-width="0.5" stroke-miterlimit="10" d="M66.733,143.531
		c-0.697,1.734-2.656,2.569-4.385,1.878c-1.73-0.692-2.569-2.651-1.875-4.384c0.693-1.733,2.655-2.572,4.385-1.88
		C66.585,139.836,67.426,141.799,66.733,143.531z"/>
	
		<radialGradient id="SVGID_9_" cx="993.53" cy="312.1377" r="3.373" gradientTransform="matrix(0.9283 0.3718 -0.3718 0.9283 -735.9539 -516.8748)" gradientUnits="userSpaceOnUse">
		<stop  offset="0" style="stop-color:#FFFFFF"/>
		<stop  offset="0.0576" style="stop-color:#F6E6E7"/>
		<stop  offset="0.1941" style="stop-color:#E2B1B3"/>
		<stop  offset="0.3324" style="stop-color:#D08386"/>
		<stop  offset="0.4696" style="stop-color:#C25D61"/>
		<stop  offset="0.6056" style="stop-color:#B74045"/>
		<stop  offset="0.7401" style="stop-color:#AF2C30"/>
		<stop  offset="0.8724" style="stop-color:#AB1F24"/>
		<stop  offset="1" style="stop-color:#A91B20"/>
	</radialGradient>
	<path fill="url(#SVGID_9_)" stroke="#050505" stroke-width="0.5" stroke-miterlimit="10" d="M73.417,143.531
		c-0.697,1.734-2.656,2.569-4.385,1.878c-1.73-0.692-2.569-2.651-1.875-4.384c0.693-1.733,2.655-2.572,4.385-1.88
		C73.269,139.836,74.111,141.799,73.417,143.531z"/>
	
		<radialGradient id="SVGID_10_" cx="999.7937" cy="309.6289" r="3.373" gradientTransform="matrix(0.9283 0.3718 -0.3718 0.9283 -735.9539 -516.8748)" gradientUnits="userSpaceOnUse">
		<stop  offset="0" style="stop-color:#FFFFFF"/>
		<stop  offset="0.0576" style="stop-color:#F6E6E7"/>
		<stop  offset="0.1941" style="stop-color:#E2B1B3"/>
		<stop  offset="0.3324" style="stop-color:#D08386"/>
		<stop  offset="0.4696" style="stop-color:#C25D61"/>
		<stop  offset="0.6056" style="stop-color:#B74045"/>
		<stop  offset="0.7401" style="stop-color:#AF2C30"/>
		<stop  offset="0.8724" style="stop-color:#AB1F24"/>
		<stop  offset="1" style="stop-color:#A91B20"/>
	</radialGradient>
	<path fill="url(#SVGID_10_)" stroke="#050505" stroke-width="0.5" stroke-miterlimit="10" d="M80.165,143.531
		c-0.697,1.734-2.656,2.569-4.385,1.878c-1.73-0.692-2.569-2.651-1.875-4.384c0.693-1.733,2.655-2.572,4.385-1.88
		C80.017,139.836,80.858,141.799,80.165,143.531z"/>
	
		<radialGradient id="SVGID_11_" cx="1005.9988" cy="307.1436" r="3.373" gradientTransform="matrix(0.9283 0.3718 -0.3718 0.9283 -735.9539 -516.8748)" gradientUnits="userSpaceOnUse">
		<stop  offset="0" style="stop-color:#FFFFFF"/>
		<stop  offset="0.0576" style="stop-color:#F6E6E7"/>
		<stop  offset="0.1941" style="stop-color:#E2B1B3"/>
		<stop  offset="0.3324" style="stop-color:#D08386"/>
		<stop  offset="0.4696" style="stop-color:#C25D61"/>
		<stop  offset="0.6056" style="stop-color:#B74045"/>
		<stop  offset="0.7401" style="stop-color:#AF2C30"/>
		<stop  offset="0.8724" style="stop-color:#AB1F24"/>
		<stop  offset="1" style="stop-color:#A91B20"/>
	</radialGradient>
	<path fill="url(#SVGID_11_)" stroke="#050505" stroke-width="0.5" stroke-miterlimit="10" d="M86.849,143.531
		c-0.697,1.734-2.656,2.569-4.385,1.878c-1.73-0.692-2.569-2.651-1.875-4.384c0.693-1.733,2.655-2.572,4.385-1.88
		C86.701,139.836,87.543,141.799,86.849,143.531z"/>
	<linearGradient id="SVGID_12_" gradientUnits="userSpaceOnUse" x1="58.1394" y1="149.6328" x2="88.5144" y2="149.6328">
		<stop  offset="0" style="stop-color:#9F0B00"/>
		<stop  offset="1" style="stop-color:#BF1B00"/>
	</linearGradient>
	<path fill="url(#SVGID_12_)" stroke="#000000" stroke-width="0.25" d="M84.885,154.409c0,0-1.882,2.041-11.559,2.165
		c-9.677,0.123-11.961-2.165-11.961-2.165l-3.226-11.723c0,0,7.203,3.5,15.188,3.25s15.188-3.25,15.188-3.25L84.885,154.409z"/>
	<text transform="matrix(1 0 0 1 60.8914 151.5361)" fill="#FFFFFF" font-family="'MyriadPro-Bold'" font-size="7">Protons</text>
	
		<radialGradient id="SVGID_13_" cx="988.0632" cy="307.4785" r="3.373" gradientTransform="matrix(0.9283 0.3718 -0.3718 0.9283 -735.9539 -516.8748)" gradientUnits="userSpaceOnUse">
		<stop  offset="0" style="stop-color:#FFFFFF"/>
		<stop  offset="0.0576" style="stop-color:#F6E6E7"/>
		<stop  offset="0.1941" style="stop-color:#E2B1B3"/>
		<stop  offset="0.3324" style="stop-color:#D08386"/>
		<stop  offset="0.4696" style="stop-color:#C25D61"/>
		<stop  offset="0.6056" style="stop-color:#B74045"/>
		<stop  offset="0.7401" style="stop-color:#AF2C30"/>
		<stop  offset="0.8724" style="stop-color:#AB1F24"/>
		<stop  offset="1" style="stop-color:#A91B20"/>
	</radialGradient>
	<path fill="url(#SVGID_13_)" stroke="#050505" stroke-width="0.5" stroke-miterlimit="10" d="M70.075,137.174
		c-0.697,1.734-2.656,2.569-4.385,1.878c-1.73-0.692-2.569-2.651-1.875-4.384c0.693-1.733,2.655-2.572,4.385-1.88
		C69.927,133.479,70.768,135.441,70.075,137.174z"/>
	
		<radialGradient id="SVGID_14_" cx="994.2683" cy="304.9932" r="3.373" gradientTransform="matrix(0.9283 0.3718 -0.3718 0.9283 -735.9539 -516.8748)" gradientUnits="userSpaceOnUse">
		<stop  offset="0" style="stop-color:#FFFFFF"/>
		<stop  offset="0.0576" style="stop-color:#F6E6E7"/>
		<stop  offset="0.1941" style="stop-color:#E2B1B3"/>
		<stop  offset="0.3324" style="stop-color:#D08386"/>
		<stop  offset="0.4696" style="stop-color:#C25D61"/>
		<stop  offset="0.6056" style="stop-color:#B74045"/>
		<stop  offset="0.7401" style="stop-color:#AF2C30"/>
		<stop  offset="0.8724" style="stop-color:#AB1F24"/>
		<stop  offset="1" style="stop-color:#A91B20"/>
	</radialGradient>
	<path fill="url(#SVGID_14_)" stroke="#050505" stroke-width="0.5" stroke-miterlimit="10" d="M76.76,137.174
		c-0.697,1.734-2.656,2.569-4.385,1.878c-1.73-0.692-2.569-2.651-1.875-4.384c0.693-1.733,2.655-2.572,4.385-1.88
		C76.612,133.479,77.453,135.441,76.76,137.174z"/>
	
		<radialGradient id="SVGID_15_" cx="1000.532" cy="302.4844" r="3.373" gradientTransform="matrix(0.9283 0.3718 -0.3718 0.9283 -735.9539 -516.8748)" gradientUnits="userSpaceOnUse">
		<stop  offset="0" style="stop-color:#FFFFFF"/>
		<stop  offset="0.0576" style="stop-color:#F6E6E7"/>
		<stop  offset="0.1941" style="stop-color:#E2B1B3"/>
		<stop  offset="0.3324" style="stop-color:#D08386"/>
		<stop  offset="0.4696" style="stop-color:#C25D61"/>
		<stop  offset="0.6056" style="stop-color:#B74045"/>
		<stop  offset="0.7401" style="stop-color:#AF2C30"/>
		<stop  offset="0.8724" style="stop-color:#AB1F24"/>
		<stop  offset="1" style="stop-color:#A91B20"/>
	</radialGradient>
	<path fill="url(#SVGID_15_)" stroke="#050505" stroke-width="0.5" stroke-miterlimit="10" d="M83.507,137.174
		c-0.697,1.734-2.656,2.569-4.385,1.878c-1.73-0.692-2.569-2.651-1.875-4.384c0.693-1.733,2.655-2.572,4.385-1.88
		C83.359,133.479,84.2,135.441,83.507,137.174z"/>
</g>
<g>
	<linearGradient id="SVGID_16_" gradientUnits="userSpaceOnUse" x1="144.3923" y1="143.1191" x2="174.7673" y2="143.1191">
		<stop  offset="0" style="stop-color:#000000"/>
		<stop  offset="1" style="stop-color:#FFFFFF"/>
	</linearGradient>
	<ellipse fill="url(#SVGID_16_)" stroke="#000000" stroke-width="0.25" cx="159.58" cy="143.119" rx="15.188" ry="3.048"/>
	
		<radialGradient id="SVGID_17_" cx="1072.8328" cy="283.3359" r="2.5293" gradientTransform="matrix(0.9283 0.3718 -0.3718 0.9283 -735.9539 -516.8748)" gradientUnits="userSpaceOnUse">
		<stop  offset="0" style="stop-color:#7FF3FF"/>
		<stop  offset="0.4545" style="stop-color:#0077BF"/>
		<stop  offset="1" style="stop-color:#0012DF"/>
	</radialGradient>
	<path fill="url(#SVGID_17_)" stroke="#050505" stroke-width="0.5" stroke-miterlimit="10" d="M156.961,145.966
		c-0.523,1.301-1.992,1.927-3.289,1.408c-1.299-0.519-1.928-1.988-1.406-3.288c0.52-1.3,1.99-1.929,3.288-1.409
		C156.849,143.194,157.48,144.666,156.961,145.966z"/>
	
		<radialGradient id="SVGID_18_" cx="1069.5798" cy="275.2129" r="2.5298" gradientTransform="matrix(0.9283 0.3718 -0.3718 0.9283 -735.9539 -516.8748)" gradientUnits="userSpaceOnUse">
		<stop  offset="0" style="stop-color:#7FF3FF"/>
		<stop  offset="0.4545" style="stop-color:#0077BF"/>
		<stop  offset="1" style="stop-color:#0012DF"/>
	</radialGradient>
	<path fill="url(#SVGID_18_)" stroke="#050505" stroke-width="0.5" stroke-miterlimit="10" d="M156.961,137.216
		c-0.522,1.301-1.992,1.927-3.289,1.408c-1.298-0.519-1.927-1.988-1.406-3.288c0.52-1.3,1.991-1.929,3.289-1.409
		C156.849,134.444,157.48,135.916,156.961,137.216z"/>
	
		<radialGradient id="SVGID_19_" cx="1082.9519" cy="274.5703" r="2.5293" gradientTransform="matrix(0.9283 0.3718 -0.3718 0.9283 -735.9539 -516.8748)" gradientUnits="userSpaceOnUse">
		<stop  offset="0" style="stop-color:#7FF3FF"/>
		<stop  offset="0.4545" style="stop-color:#0077BF"/>
		<stop  offset="1" style="stop-color:#0012DF"/>
	</radialGradient>
	<path fill="url(#SVGID_19_)" stroke="#050505" stroke-width="0.5" stroke-miterlimit="10" d="M169.613,141.591
		c-0.523,1.301-1.992,1.927-3.289,1.408c-1.299-0.519-1.928-1.988-1.406-3.288c0.52-1.3,1.99-1.929,3.288-1.409
		C169.502,138.819,170.133,140.291,169.613,141.591z"/>
	
		<radialGradient id="SVGID_20_" cx="1078.196" cy="276.4746" r="2.5293" gradientTransform="matrix(0.9283 0.3718 -0.3718 0.9283 -735.9539 -516.8748)" gradientUnits="userSpaceOnUse">
		<stop  offset="0" style="stop-color:#7FF3FF"/>
		<stop  offset="0.4545" style="stop-color:#0077BF"/>
		<stop  offset="1" style="stop-color:#0012DF"/>
	</radialGradient>
	<path fill="url(#SVGID_20_)" stroke="#050505" stroke-width="0.5" stroke-miterlimit="10" d="M164.489,141.591
		c-0.522,1.301-1.991,1.927-3.289,1.408s-1.927-1.988-1.406-3.288s1.991-1.929,3.288-1.409
		C164.379,138.819,165.01,140.291,164.489,141.591z"/>
	
		<radialGradient id="SVGID_21_" cx="1073.5554" cy="278.334" r="2.5293" gradientTransform="matrix(0.9283 0.3718 -0.3718 0.9283 -735.9539 -516.8748)" gradientUnits="userSpaceOnUse">
		<stop  offset="0" style="stop-color:#7FF3FF"/>
		<stop  offset="0.4545" style="stop-color:#0077BF"/>
		<stop  offset="1" style="stop-color:#0012DF"/>
	</radialGradient>
	<path fill="url(#SVGID_21_)" stroke="#050505" stroke-width="0.5" stroke-miterlimit="10" d="M159.49,141.591
		c-0.521,1.301-1.991,1.927-3.289,1.408c-1.297-0.519-1.926-1.988-1.406-3.288c0.521-1.3,1.992-1.929,3.289-1.409
		C159.38,138.819,160.01,140.291,159.49,141.591z"/>
	
		<radialGradient id="SVGID_22_" cx="1068.8582" cy="280.2148" r="2.5293" gradientTransform="matrix(0.9283 0.3718 -0.3718 0.9283 -735.9539 -516.8748)" gradientUnits="userSpaceOnUse">
		<stop  offset="0" style="stop-color:#7FF3FF"/>
		<stop  offset="0.4545" style="stop-color:#0077BF"/>
		<stop  offset="1" style="stop-color:#0012DF"/>
	</radialGradient>
	<path fill="url(#SVGID_22_)" stroke="#050505" stroke-width="0.5" stroke-miterlimit="10" d="M154.43,141.591
		c-0.522,1.301-1.991,1.927-3.289,1.408s-1.927-1.988-1.406-3.288s1.991-1.929,3.288-1.409
		C154.32,138.819,154.951,140.291,154.43,141.591z"/>
	
		<radialGradient id="SVGID_23_" cx="1086.9265" cy="277.6904" r="2.5298" gradientTransform="matrix(0.9283 0.3718 -0.3718 0.9283 -735.9539 -516.8748)" gradientUnits="userSpaceOnUse">
		<stop  offset="0" style="stop-color:#7FF3FF"/>
		<stop  offset="0.4545" style="stop-color:#0077BF"/>
		<stop  offset="1" style="stop-color:#0012DF"/>
	</radialGradient>
	<path fill="url(#SVGID_23_)" stroke="#050505" stroke-width="0.5" stroke-miterlimit="10" d="M172.142,145.966
		c-0.521,1.301-1.991,1.927-3.289,1.408c-1.297-0.519-1.926-1.988-1.406-3.288c0.521-1.3,1.992-1.929,3.289-1.409
		C172.032,143.194,172.663,144.666,172.142,145.966z"/>
	
		<radialGradient id="SVGID_24_" cx="1082.1707" cy="279.5957" r="2.5298" gradientTransform="matrix(0.9283 0.3718 -0.3718 0.9283 -735.9539 -516.8748)" gradientUnits="userSpaceOnUse">
		<stop  offset="0" style="stop-color:#7FF3FF"/>
		<stop  offset="0.4545" style="stop-color:#0077BF"/>
		<stop  offset="1" style="stop-color:#0012DF"/>
	</radialGradient>
	<path fill="url(#SVGID_24_)" stroke="#050505" stroke-width="0.5" stroke-miterlimit="10" d="M167.019,145.966
		c-0.522,1.301-1.992,1.927-3.289,1.408c-1.298-0.519-1.927-1.988-1.406-3.288c0.52-1.3,1.991-1.929,3.289-1.409
		C166.908,143.194,167.539,144.666,167.019,145.966z"/>
	
		<radialGradient id="SVGID_25_" cx="1077.4734" cy="281.4766" r="2.5298" gradientTransform="matrix(0.9283 0.3718 -0.3718 0.9283 -735.9539 -516.8748)" gradientUnits="userSpaceOnUse">
		<stop  offset="0" style="stop-color:#7FF3FF"/>
		<stop  offset="0.4545" style="stop-color:#0077BF"/>
		<stop  offset="1" style="stop-color:#0012DF"/>
	</radialGradient>
	<path fill="url(#SVGID_25_)" stroke="#050505" stroke-width="0.5" stroke-miterlimit="10" d="M161.959,145.966
		c-0.521,1.301-1.991,1.927-3.289,1.408c-1.297-0.519-1.926-1.988-1.406-3.288c0.521-1.3,1.992-1.929,3.289-1.409
		C161.848,143.194,162.479,144.666,161.959,145.966z"/>
	
		<radialGradient id="SVGID_26_" cx="1068.1355" cy="285.2168" r="2.5293" gradientTransform="matrix(0.9283 0.3718 -0.3718 0.9283 -735.9539 -516.8748)" gradientUnits="userSpaceOnUse">
		<stop  offset="0" style="stop-color:#7FF3FF"/>
		<stop  offset="0.4545" style="stop-color:#0077BF"/>
		<stop  offset="1" style="stop-color:#0012DF"/>
	</radialGradient>
	<path fill="url(#SVGID_26_)" stroke="#050505" stroke-width="0.5" stroke-miterlimit="10" d="M151.9,145.966
		c-0.522,1.301-1.992,1.927-3.289,1.408c-1.298-0.519-1.927-1.988-1.406-3.288c0.52-1.3,1.991-1.929,3.289-1.409
		C151.789,143.194,152.42,144.666,151.9,145.966z"/>
	<linearGradient id="SVGID_27_" gradientUnits="userSpaceOnUse" x1="144.3923" y1="149.8633" x2="174.7673" y2="149.8633">
		<stop  offset="0" style="stop-color:#0062BF"/>
		<stop  offset="1" style="stop-color:#00153F"/>
	</linearGradient>
	<path fill="url(#SVGID_27_)" stroke="#000000" stroke-width="0.25" d="M171.138,154.64c0,0-1.882,2.041-11.559,2.165
		c-9.677,0.123-11.961-2.165-11.961-2.165l-3.227-11.723c0,0,7.203,3.5,15.188,3.25s15.188-3.25,15.188-3.25L171.138,154.64z"/>
	<text transform="matrix(1 0 0 1 147.0134 151.7666)" fill="#FFFFFF" font-family="'MyriadPro-Bold'" font-size="6">Electrons</text>
</g>
<g>
	<linearGradient id="SVGID_28_" gradientUnits="userSpaceOnUse" x1="102.7014" y1="143.1484" x2="133.0769" y2="143.1484">
		<stop  offset="0" style="stop-color:#000000"/>
		<stop  offset="1" style="stop-color:#FFFFFF"/>
	</linearGradient>
	<ellipse fill="url(#SVGID_28_)" stroke="#000000" stroke-width="0.25" cx="117.889" cy="143.149" rx="15.188" ry="3.048"/>
	
		<radialGradient id="SVGID_29_" cx="1028.5847" cy="298.6846" r="3.373" gradientTransform="matrix(0.9283 0.3718 -0.3718 0.9283 -735.9539 -516.8748)" gradientUnits="userSpaceOnUse">
		<stop  offset="0" style="stop-color:#FFFFFF"/>
		<stop  offset="0.4545" style="stop-color:#AAAAAA"/>
		<stop  offset="1" style="stop-color:#141414"/>
	</radialGradient>
	<path fill="url(#SVGID_29_)" stroke="#050505" stroke-width="0.5" stroke-miterlimit="10" d="M110.961,144.076
		c-0.697,1.734-2.656,2.569-4.385,1.878c-1.73-0.692-2.569-2.651-1.875-4.384c0.693-1.733,2.655-2.572,4.385-1.88
		C110.813,140.381,111.654,142.344,110.961,144.076z"/>
	
		<radialGradient id="SVGID_30_" cx="1034.8484" cy="296.1758" r="3.373" gradientTransform="matrix(0.9283 0.3718 -0.3718 0.9283 -735.9539 -516.8748)" gradientUnits="userSpaceOnUse">
		<stop  offset="0" style="stop-color:#FFFFFF"/>
		<stop  offset="0.4545" style="stop-color:#AAAAAA"/>
		<stop  offset="1" style="stop-color:#141414"/>
	</radialGradient>
	<path fill="url(#SVGID_30_)" stroke="#050505" stroke-width="0.5" stroke-miterlimit="10" d="M117.708,144.076
		c-0.696,1.734-2.655,2.569-4.385,1.878c-1.73-0.692-2.569-2.651-1.875-4.384c0.693-1.733,2.655-2.572,4.385-1.88
		C117.56,140.381,118.401,142.344,117.708,144.076z"/>
	
		<radialGradient id="SVGID_31_" cx="1041.1121" cy="293.666" r="3.373" gradientTransform="matrix(0.9283 0.3718 -0.3718 0.9283 -735.9539 -516.8748)" gradientUnits="userSpaceOnUse">
		<stop  offset="0" style="stop-color:#FFFFFF"/>
		<stop  offset="0.4545" style="stop-color:#AAAAAA"/>
		<stop  offset="1" style="stop-color:#141414"/>
	</radialGradient>
	<path fill="url(#SVGID_31_)" stroke="#050505" stroke-width="0.5" stroke-miterlimit="10" d="M124.456,144.076
		c-0.697,1.734-2.656,2.569-4.385,1.878c-1.73-0.692-2.57-2.651-1.876-4.384c0.693-1.733,2.655-2.572,4.385-1.88
		C124.307,140.381,125.149,142.344,124.456,144.076z"/>
	
		<radialGradient id="SVGID_32_" cx="1047.3767" cy="291.1582" r="3.373" gradientTransform="matrix(0.9283 0.3718 -0.3718 0.9283 -735.9539 -516.8748)" gradientUnits="userSpaceOnUse">
		<stop  offset="0" style="stop-color:#FFFFFF"/>
		<stop  offset="0.4545" style="stop-color:#AAAAAA"/>
		<stop  offset="1" style="stop-color:#141414"/>
	</radialGradient>
	<path fill="url(#SVGID_32_)" stroke="#050505" stroke-width="0.5" stroke-miterlimit="10" d="M131.204,144.076
		c-0.697,1.734-2.656,2.569-4.386,1.878c-1.73-0.692-2.569-2.651-1.876-4.384c0.693-1.733,2.655-2.572,4.385-1.88
		C131.055,140.381,131.897,142.344,131.204,144.076z"/>
	<linearGradient id="SVGID_33_" gradientUnits="userSpaceOnUse" x1="102.7014" y1="149.8936" x2="133.0769" y2="149.8936">
		<stop  offset="0" style="stop-color:#AAAAAA"/>
		<stop  offset="1" style="stop-color:#000000"/>
	</linearGradient>
	<path fill="url(#SVGID_33_)" stroke="#000000" stroke-width="0.25" d="M129.448,154.67c0,0-1.883,2.041-11.559,2.165
		c-9.677,0.123-11.962-2.165-11.962-2.165l-3.226-11.723c0,0,7.203,3.5,15.188,3.25c7.984-0.25,15.188-3.25,15.188-3.25
		L129.448,154.67z"/>
	
		<radialGradient id="SVGID_34_" cx="1041.9783" cy="286.7529" r="3.373" gradientTransform="matrix(0.9283 0.3718 -0.3718 0.9283 -735.9539 -516.8748)" gradientUnits="userSpaceOnUse">
		<stop  offset="0" style="stop-color:#FFFFFF"/>
		<stop  offset="0.4545" style="stop-color:#AAAAAA"/>
		<stop  offset="1" style="stop-color:#141414"/>
	</radialGradient>
	<path fill="url(#SVGID_34_)" stroke="#050505" stroke-width="0.5" stroke-miterlimit="10" d="M127.83,137.979
		c-0.696,1.734-2.655,2.569-4.386,1.878c-1.73-0.692-2.568-2.651-1.875-4.384c0.693-1.733,2.654-2.572,4.385-1.88
		C127.682,134.284,128.523,136.247,127.83,137.979z"/>
	<text transform="matrix(1 0 0 1 105.3225 151.7969)" fill="#FFFFFF" font-family="'MyriadPro-Bold'" font-size="6">Neutrons</text>
	
		<radialGradient id="SVGID_35_" cx="1035.656" cy="289.2852" r="3.3726" gradientTransform="matrix(0.9283 0.3718 -0.3718 0.9283 -735.9539 -516.8748)" gradientUnits="userSpaceOnUse">
		<stop  offset="0" style="stop-color:#FFFFFF"/>
		<stop  offset="0.4545" style="stop-color:#AAAAAA"/>
		<stop  offset="1" style="stop-color:#141414"/>
	</radialGradient>
	<path fill="url(#SVGID_35_)" stroke="#050505" stroke-width="0.5" stroke-miterlimit="10" d="M121.02,137.979
		c-0.697,1.734-2.656,2.569-4.386,1.878c-1.73-0.692-2.569-2.651-1.875-4.384c0.693-1.733,2.655-2.572,4.384-1.88
		C120.872,134.284,121.714,136.247,121.02,137.979z"/>
</g>
<radialGradient id="SVGID_36_" cx="980.196" cy="240.0283" r="3.7939" gradientTransform="matrix(0.9283 0.3718 -0.3718 0.9283 -735.9539 -516.8748)" gradientUnits="userSpaceOnUse">
	<stop  offset="0" style="stop-color:#7FF3FF"/>
	<stop  offset="0.4545" style="stop-color:#0077BF"/>
	<stop  offset="1" style="stop-color:#0012DF"/>
</radialGradient>
<path fill="url(#SVGID_36_)" stroke="#050505" stroke-width="0.5" stroke-miterlimit="10" d="M88.24,71.791
	c-0.784,1.951-2.987,2.891-4.934,2.112s-2.89-2.982-2.109-4.933c0.781-1.949,2.987-2.893,4.932-2.113
	C88.075,67.634,89.021,69.842,88.24,71.791z"/>
<radialGradient id="SVGID_37_" cx="1041.1218" cy="217.9023" r="3.7944" gradientTransform="matrix(0.9283 0.3718 -0.3718 0.9283 -735.9539 -516.8748)" gradientUnits="userSpaceOnUse">
	<stop  offset="0" style="stop-color:#7FF3FF"/>
	<stop  offset="0.4545" style="stop-color:#0077BF"/>
	<stop  offset="1" style="stop-color:#0012DF"/>
</radialGradient>
<path fill="url(#SVGID_37_)" stroke="#050505" stroke-width="0.5" stroke-miterlimit="10" d="M153.025,73.904
	c-0.784,1.951-2.987,2.891-4.934,2.112s-2.89-2.982-2.109-4.933c0.78-1.949,2.987-2.893,4.933-2.113
	C152.86,69.747,153.805,71.955,153.025,73.904z"/>
</svg>
