<?xml version="1.0" encoding="utf-8"?>
<!-- Generator: Adobe Illustrator 15.0.0, SVG Export Plug-In . SVG Version: 6.00 Build 0)  -->
<!DOCTYPE svg PUBLIC "-//W3C//DTD SVG 1.1//EN" "http://www.w3.org/Graphics/SVG/1.1/DTD/svg11.dtd">
<svg version="1.1" id="Layer_1" xmlns="http://www.w3.org/2000/svg" xmlns:xlink="http://www.w3.org/1999/xlink" x="0px" y="0px"
	 width="233.279px" height="159.84px" viewBox="0 0 233.279 159.84" enable-background="new 0 0 233.279 159.84"
	 xml:space="preserve">
<rect x="0.001" y="-0.001" fill="#F2FFCC" width="233.723" height="159.841"/>
<rect x="58.72" y="17" fill="#FFFAFA" stroke="#000000" stroke-width="2.5" stroke-miterlimit="10" width="114" height="121"/>
<rect x="76.309" y="51.026" fill="none" width="92.563" height="54.941"/>
<text transform="matrix(1 0 0 1 92.303 100.916)" font-family="'Tahoma'" font-size="65.6452">Li</text>
<rect x="69.215" y="25.745" fill="none" width="23.197" height="29.827"/>
<text transform="matrix(1 0 0 1 69.2122 43.2256)" font-family="'Tahoma'" font-size="23">7</text>
<rect x="143.088" y="24.918" fill="none" width="34.797" height="44.737"/>
<text transform="matrix(1 0 0 1 139.0886 42.3984)" fill="#FF0606" font-family="'Tahoma'" font-size="23">+1</text>
<rect x="69.215" y="109.768" fill="none" width="48.884" height="51.369"/>
<text transform="matrix(1 0 0 1 69.2122 127.2471)" fill="#FF0606" font-family="'Tahoma'" font-size="23">3</text>
<g>
	<line fill="none" stroke="#010101" stroke-width="0.4563" stroke-miterlimit="10" x1="11.617" y1="22.058" x2="6.96" y2="36.936"/>
	
		<line fill="none" stroke="#010101" stroke-width="0.4563" stroke-miterlimit="10" x1="11.617" y1="22.058" x2="16.132" y2="36.882"/>
	
		<linearGradient id="SVGID_1_" gradientUnits="userSpaceOnUse" x1="766.7068" y1="1598.8701" x2="799.1794" y2="1598.8701" gradientTransform="matrix(1 0 0 1 -755.3594 -1577.2402)">
		<stop  offset="0.0056" style="stop-color:#BBBCBE"/>
		<stop  offset="0.2921" style="stop-color:#989CA0"/>
		<stop  offset="0.6517" style="stop-color:#BFBEC2"/>
		<stop  offset="0.8652" style="stop-color:#9EA0A4"/>
		<stop  offset="1" style="stop-color:#A7A9AC"/>
		<stop  offset="1" style="stop-color:#C3C6CA"/>
	</linearGradient>
	<path fill="url(#SVGID_1_)" stroke="#010101" stroke-width="0.4563" stroke-miterlimit="10" d="M43.82,21.629
		c0-0.237-0.123-0.428-0.274-0.428H11.62c-0.152,0-0.272,0.191-0.272,0.428l0,0c0,0.237,0.12,0.429,0.272,0.429h31.925
		C43.698,22.058,43.82,21.866,43.82,21.629L43.82,21.629z"/>
	
		<linearGradient id="SVGID_2_" gradientUnits="userSpaceOnUse" x1="781.6228" y1="1606.8525" x2="784.4578" y2="1606.8525" gradientTransform="matrix(1 0 0 1 -755.3594 -1577.2402)">
		<stop  offset="0.0056" style="stop-color:#BBBCBE"/>
		<stop  offset="0.2921" style="stop-color:#989CA0"/>
		<stop  offset="0.6517" style="stop-color:#BFBEC2"/>
		<stop  offset="0.8652" style="stop-color:#9EA0A4"/>
		<stop  offset="1" style="stop-color:#A7A9AC"/>
		<stop  offset="1" style="stop-color:#C3C6CA"/>
	</linearGradient>
	<path fill="url(#SVGID_2_)" stroke="#010101" stroke-width="0.4563" stroke-miterlimit="10" d="M29.098,39.766
		c0,0.514-0.472,0.931-1.042,0.931h-0.751c-0.573,0-1.042-0.417-1.042-0.931V19.458c0-0.514,0.469-0.931,1.042-0.931h0.751
		c0.57,0,1.042,0.417,1.042,0.931V39.766z"/>
	
		<linearGradient id="SVGID_3_" gradientUnits="userSpaceOnUse" x1="775.5164" y1="1612.8398" x2="790.5857" y2="1612.8398" gradientTransform="matrix(1 0 0 1 -755.3594 -1577.2402)">
		<stop  offset="0.0056" style="stop-color:#BBBCBE"/>
		<stop  offset="0.2921" style="stop-color:#989CA0"/>
		<stop  offset="0.6517" style="stop-color:#BFBEC2"/>
		<stop  offset="0.8652" style="stop-color:#9EA0A4"/>
		<stop  offset="1" style="stop-color:#A7A9AC"/>
		<stop  offset="1" style="stop-color:#C3C6CA"/>
	</linearGradient>
	<path fill="url(#SVGID_3_)" stroke="#010101" stroke-width="0.4563" stroke-miterlimit="10" d="M35.226,38.351
		c0,0.985-0.657,1.784-1.475,1.784H21.627c-0.812,0-1.47-0.798-1.47-1.784l1.225-5.502c0-0.985,0.78-1.784,1.597-1.784h9.558
		c0.813,0,1.592,0.799,1.592,1.784L35.226,38.351z"/>
	
		<linearGradient id="SVGID_4_" gradientUnits="userSpaceOnUse" x1="775.5164" y1="1617.9561" x2="790.5857" y2="1617.9561" gradientTransform="matrix(1 0 0 1 -755.3594 -1577.2402)">
		<stop  offset="0.0056" style="stop-color:#BBBCBE"/>
		<stop  offset="0.2921" style="stop-color:#989CA0"/>
		<stop  offset="0.6517" style="stop-color:#BFBEC2"/>
		<stop  offset="0.8652" style="stop-color:#9EA0A4"/>
		<stop  offset="1" style="stop-color:#A7A9AC"/>
		<stop  offset="1" style="stop-color:#C3C6CA"/>
	</linearGradient>
	<path fill="url(#SVGID_4_)" stroke="#010101" stroke-width="0.4563" stroke-miterlimit="10" d="M35.226,40.716
		c0,0.3-0.281,0.542-0.629,0.542H20.787c-0.348,0-0.63-0.242-0.63-0.542l0,0c0-0.299,0.282-0.542,0.63-0.542H34.6
		C34.945,40.175,35.226,40.417,35.226,40.716L35.226,40.716z"/>
	
		<linearGradient id="SVGID_5_" gradientUnits="userSpaceOnUse" x1="779.0164" y1="1607.8379" x2="786.9783" y2="1607.8379" gradientTransform="matrix(1 0 0 1 -755.3594 -1577.2402)">
		<stop  offset="0.0056" style="stop-color:#BBBCBE"/>
		<stop  offset="0.2921" style="stop-color:#989CA0"/>
		<stop  offset="0.6517" style="stop-color:#BFBEC2"/>
		<stop  offset="0.8652" style="stop-color:#9EA0A4"/>
		<stop  offset="1" style="stop-color:#A7A9AC"/>
		<stop  offset="1" style="stop-color:#C3C6CA"/>
	</linearGradient>
	<path fill="url(#SVGID_5_)" stroke="#010101" stroke-width="0.4563" stroke-miterlimit="10" d="M31.619,30.598
		c0,0.258-0.455,0.467-1.015,0.467H24.67c-0.562,0-1.013-0.209-1.013-0.467l0,0c0-0.258,0.451-0.467,1.013-0.467h5.938
		C31.164,30.131,31.619,30.339,31.619,30.598L31.619,30.598z"/>
	
		<radialGradient id="SVGID_6_" cx="2209.3796" cy="2866.3574" r="1.5686" gradientTransform="matrix(0.4842 0 0 0.4842 -1043.7787 -1366.2968)" gradientUnits="userSpaceOnUse">
		<stop  offset="0" style="stop-color:#989CA0"/>
		<stop  offset="0.0056" style="stop-color:#BBBCBE"/>
		<stop  offset="0.5032" style="stop-color:#BFBEC2"/>
		<stop  offset="0.6802" style="stop-color:#BCBCC0"/>
		<stop  offset="0.8227" style="stop-color:#B3B4B7"/>
		<stop  offset="0.9527" style="stop-color:#A5A6AA"/>
		<stop  offset="1" style="stop-color:#9EA0A4"/>
		<stop  offset="1" style="stop-color:#A7A9AC"/>
		<stop  offset="1" style="stop-color:#C3C6CA"/>
	</radialGradient>
	<path fill="url(#SVGID_6_)" stroke="#010101" stroke-width="0.4563" stroke-miterlimit="10" d="M26.263,22.368
		c0,0.145-0.116,0.263-0.266,0.263l0,0c-0.146,0-0.266-0.118-0.266-0.263v-1.557c0-0.146,0.119-0.263,0.266-0.263l0,0
		c0.146,0,0.266,0.118,0.266,0.263V22.368z"/>
	
		<radialGradient id="SVGID_7_" cx="2216.322" cy="2866.4395" r="1.5679" gradientTransform="matrix(0.4842 0 0 0.4842 -1043.7787 -1366.2968)" gradientUnits="userSpaceOnUse">
		<stop  offset="0" style="stop-color:#989CA0"/>
		<stop  offset="0.0056" style="stop-color:#BBBCBE"/>
		<stop  offset="0.5032" style="stop-color:#BFBEC2"/>
		<stop  offset="0.6802" style="stop-color:#BCBCC0"/>
		<stop  offset="0.8227" style="stop-color:#B3B4B7"/>
		<stop  offset="0.9527" style="stop-color:#A5A6AA"/>
		<stop  offset="1" style="stop-color:#9EA0A4"/>
		<stop  offset="1" style="stop-color:#A7A9AC"/>
		<stop  offset="1" style="stop-color:#C3C6CA"/>
	</radialGradient>
	<path fill="url(#SVGID_7_)" stroke="#010101" stroke-width="0.4563" stroke-miterlimit="10" d="M29.624,22.407
		c0,0.146-0.118,0.263-0.265,0.263l0,0c-0.146,0-0.262-0.118-0.262-0.263v-1.556c0-0.145,0.112-0.263,0.262-0.263l0,0
		c0.146,0,0.265,0.118,0.265,0.263V22.407z"/>
	
		<linearGradient id="SVGID_8_" gradientUnits="userSpaceOnUse" x1="761.5564" y1="1614.5693" x2="772.2546" y2="1614.5693" gradientTransform="matrix(1 0 0 1 -755.3594 -1577.2402)">
		<stop  offset="0.0056" style="stop-color:#BBBCBE"/>
		<stop  offset="0.2921" style="stop-color:#989CA0"/>
		<stop  offset="0.6517" style="stop-color:#BFBEC2"/>
		<stop  offset="0.8652" style="stop-color:#9EA0A4"/>
		<stop  offset="1" style="stop-color:#A7A9AC"/>
		<stop  offset="1" style="stop-color:#C3C6CA"/>
	</linearGradient>
	<path fill="url(#SVGID_8_)" stroke="#010101" stroke-width="0.4563" stroke-miterlimit="10" d="M16.895,37.329
		c0,0.725-0.357,1.313-0.801,1.313H6.999c-0.438,0-0.802-0.588-0.802-1.313l0,0c0-0.726,0.359-1.314,0.802-1.314h9.099
		C16.536,36.015,16.895,36.604,16.895,37.329L16.895,37.329z"/>
	
		<line fill="none" stroke="#010101" stroke-width="0.4563" stroke-miterlimit="10" x1="43.471" y1="22.182" x2="38.812" y2="37.059"/>
	
		<line fill="none" stroke="#010101" stroke-width="0.4563" stroke-miterlimit="10" x1="43.471" y1="22.182" x2="47.985" y2="37.004"/>
	
		<linearGradient id="SVGID_9_" gradientUnits="userSpaceOnUse" x1="793.406" y1="1614.543" x2="804.1062" y2="1614.543" gradientTransform="matrix(1 0 0 1 -755.3594 -1577.2402)">
		<stop  offset="0.0056" style="stop-color:#BBBCBE"/>
		<stop  offset="0.2921" style="stop-color:#989CA0"/>
		<stop  offset="0.6517" style="stop-color:#BFBEC2"/>
		<stop  offset="0.8652" style="stop-color:#9EA0A4"/>
		<stop  offset="1" style="stop-color:#A7A9AC"/>
		<stop  offset="1" style="stop-color:#C3C6CA"/>
	</linearGradient>
	<path fill="url(#SVGID_9_)" stroke="#010101" stroke-width="0.4563" stroke-miterlimit="10" d="M48.747,37.302
		c0,0.725-0.354,1.313-0.801,1.313h-9.095c-0.441,0-0.805-0.588-0.805-1.313l0,0c0-0.725,0.358-1.312,0.805-1.312h9.095
		C48.39,35.988,48.747,36.577,48.747,37.302L48.747,37.302z"/>
</g>
<g>
	<path fill="#C8C8C8" stroke="#969696" stroke-width="0.75" stroke-miterlimit="10" d="M223.8,38.746
		c0,1.139-0.99,2.062-2.211,2.062h-34.961c-1.221,0-2.211-0.923-2.211-2.062V20.193c0-1.138,0.99-2.061,2.211-2.061h34.961
		c1.221,0,2.211,0.923,2.211,2.061V38.746z"/>
	
		<linearGradient id="SVGID_10_" gradientUnits="userSpaceOnUse" x1="340.5056" y1="480.0098" x2="372.6501" y2="480.0098" gradientTransform="matrix(1 0 0 1 -152 -451.1602)">
		<stop  offset="0" style="stop-color:#2617E6"/>
		<stop  offset="0.497" style="stop-color:#FFFFFF"/>
		<stop  offset="0.5026" style="stop-color:#F7F6FE"/>
		<stop  offset="0.5237" style="stop-color:#F2DFE6"/>
		<stop  offset="0.5763" style="stop-color:#E7ABB1"/>
		<stop  offset="0.6311" style="stop-color:#DD7E82"/>
		<stop  offset="0.6867" style="stop-color:#D5575A"/>
		<stop  offset="0.7435" style="stop-color:#CE3739"/>
		<stop  offset="0.8018" style="stop-color:#C91F20"/>
		<stop  offset="0.8623" style="stop-color:#C50E0E"/>
		<stop  offset="0.9264" style="stop-color:#C30303"/>
		<stop  offset="1" style="stop-color:#C20000"/>
	</linearGradient>
	<path fill="url(#SVGID_10_)" stroke="#616361" stroke-width="0.75" stroke-miterlimit="10" d="M220.556,37.087h-31.958
		c0,0-2.299-16.476,15.979-16.475C222.863,20.615,220.556,37.087,220.556,37.087z"/>
	<g>
		<polygon points="209.223,24.436 205.965,23.472 208.193,21.332 		"/>
		
			<line fill="none" stroke="#000000" stroke-width="2" stroke-linecap="round" stroke-miterlimit="10" x1="207.771" y1="23.373" x2="204.805" y2="35.634"/>
	</g>
</g>
</svg>
