<?xml version="1.0" encoding="utf-8"?>
<!-- Generator: Adobe Illustrator 15.0.0, SVG Export Plug-In . SVG Version: 6.00 Build 0)  -->
<!DOCTYPE svg PUBLIC "-//W3C//DTD SVG 1.1//EN" "http://www.w3.org/Graphics/SVG/1.1/DTD/svg11.dtd">
<svg version="1.1" id="Layer_1" xmlns="http://www.w3.org/2000/svg" xmlns:xlink="http://www.w3.org/1999/xlink" x="0px" y="0px"
	 width="578.535px" height="396.899px" viewBox="0 0 578.535 396.899" enable-background="new 0 0 578.535 396.899"
	 xml:space="preserve">
<rect x="4.889" y="3.458" fill="#9DDCF4" stroke="#000000" stroke-width="10.3606" stroke-miterlimit="10" width="568.112" height="388.441"/>
<path fill="none" stroke="#FFFFFF" stroke-width="10.3606" stroke-miterlimit="10" d="M234.088,273.452
	c0,57.072-46.26,103.332-103.324,103.332c-57.074,0-103.337-46.26-103.337-103.332c0-57.076,46.264-103.334,103.337-103.334
	C187.828,170.117,234.088,216.375,234.088,273.452z"/>
<path fill="none" stroke="#000000" stroke-width="10.3606" stroke-miterlimit="10" stroke-dasharray="10.3606" d="M234.092,273.452
	c0,57.072-46.264,103.332-103.332,103.332c-57.07,0-103.333-46.26-103.333-103.332c0-57.076,46.264-103.334,103.333-103.334
	C187.828,170.117,234.092,216.375,234.092,273.452z"/>
<path fill="none" stroke="#FFFFFF" stroke-width="10.6084" stroke-miterlimit="10" d="M185.845,275.444
	c0,31.525-24.369,57.072-54.434,57.072c-30.074,0-54.449-25.547-54.449-57.072c0-31.537,24.375-57.086,54.449-57.086
	C161.476,218.358,185.845,243.907,185.845,275.444z"/>
<path fill="none" stroke="#000000" stroke-width="10.3606" stroke-miterlimit="10" stroke-dasharray="10.3606" d="M187.833,275.444
	c0,31.525-25.542,57.072-57.069,57.072c-31.531,0-57.084-25.547-57.084-57.072c0-31.537,25.553-57.086,57.084-57.086
	C162.292,218.358,187.833,243.907,187.833,275.444z"/>
<radialGradient id="SVGID_1_" cx="270.1079" cy="100.792" r="11.7341" gradientTransform="matrix(1.2814 0 0 -1.2813 -160.268 406.8845)" gradientUnits="userSpaceOnUse">
	<stop  offset="0" style="stop-color:#FFFFFF"/>
	<stop  offset="0.1049" style="stop-color:#CAC6E2"/>
	<stop  offset="0.2344" style="stop-color:#9C95C7"/>
	<stop  offset="0.3658" style="stop-color:#7B73B3"/>
	<stop  offset="0.4961" style="stop-color:#625BA5"/>
	<stop  offset="0.6253" style="stop-color:#4E489B"/>
	<stop  offset="0.7531" style="stop-color:#403C94"/>
	<stop  offset="0.8788" style="stop-color:#383491"/>
	<stop  offset="1" style="stop-color:#353290"/>
</radialGradient>
<path fill="url(#SVGID_1_)" stroke="#050606" stroke-width="3.8076" stroke-miterlimit="10" d="M200.885,277.741
	c0,8.297-6.738,15.034-15.04,15.034c-8.296,0-15.034-6.737-15.034-15.034c0-8.316,6.738-15.035,15.034-15.035
	C194.147,262.706,200.885,269.424,200.885,277.741z"/>
<radialGradient id="SVGID_2_" cx="185.1343" cy="100.7915" r="10.7554" gradientTransform="matrix(1.2814 0 0 -1.2813 -160.268 406.8845)" gradientUnits="userSpaceOnUse">
	<stop  offset="0" style="stop-color:#FFFFFF"/>
	<stop  offset="0.1049" style="stop-color:#CAC6E2"/>
	<stop  offset="0.2344" style="stop-color:#9C95C7"/>
	<stop  offset="0.3658" style="stop-color:#7B73B3"/>
	<stop  offset="0.4961" style="stop-color:#625BA5"/>
	<stop  offset="0.6253" style="stop-color:#4E489B"/>
	<stop  offset="0.7531" style="stop-color:#403C94"/>
	<stop  offset="0.8788" style="stop-color:#383491"/>
	<stop  offset="1" style="stop-color:#353290"/>
</radialGradient>
<path fill="url(#SVGID_2_)" stroke="#050606" stroke-width="3.8076" stroke-miterlimit="10" d="M90.744,277.73
	c0,7.629-6.183,13.792-13.792,13.792c-7.598,0-13.77-6.163-13.77-13.792c0-7.619,6.172-13.771,13.77-13.771
	C84.562,263.959,90.744,270.111,90.744,277.73z"/>
<rect x="370.101" y="177.429" fill="#FFFFFF" stroke="#000000" stroke-width="2.1964" stroke-miterlimit="10" width="181.623" height="198.747"/>
<rect x="389.085" y="222.763" fill="none" width="143.656" height="104.62"/>
<text transform="matrix(1 0 0 1 392.0854 318.145)" font-family="'Tahoma'" font-size="113.6613">He</text>
<rect x="378.057" y="186.796" fill="none" width="173.657" height="157.843"/>
<text transform="matrix(1 0 0 1 378.0562 215.5903)" font-family="'Tahoma'" font-size="37.8871">4</text>
<rect x="419.988" y="328.29" fill="none" width="131.742" height="47.887"/>
<path opacity="0.9" fill="#F6EB16" enable-background="new    " d="M376.818,105.248c0,50.447-40.875,91.327-91.303,91.327
	c-50.442,0-91.344-40.88-91.344-91.327c0-50.427,40.902-91.319,91.344-91.319C335.943,13.929,376.818,54.821,376.818,105.248z"/>
<path opacity="0.6" fill="#010101" enable-background="new    " d="M267.224,82.205c0,7.568-6.126,13.668-13.675,13.668
	c-7.552,0-13.653-6.101-13.653-13.668c0-7.559,6.102-13.655,13.653-13.655C261.097,68.55,267.224,74.646,267.224,82.205z"/>
<path opacity="0.6" fill="#010101" enable-background="new    " d="M326.068,82.205c0,7.568-6.111,13.668-13.668,13.668
	c-7.539,0-13.68-6.101-13.68-13.668c0-7.559,6.142-13.655,13.68-13.655C319.957,68.55,326.068,74.646,326.068,82.205z"/>
<path opacity="0.6" fill="none" stroke="#030303" stroke-width="9.5" stroke-miterlimit="10" enable-background="new    " d="
	M237.598,128.857c22.689,36.556,68.467,36.96,91.373,1.806"/>
<radialGradient id="SVGID_3_" cx="219.6519" cy="68.5972" r="14.4343" gradientTransform="matrix(1 0 0 -1 -76 331.8994)" gradientUnits="userSpaceOnUse">
	<stop  offset="0" style="stop-color:#FFFFFF"/>
	<stop  offset="0.1102" style="stop-color:#E7C5B8"/>
	<stop  offset="0.239" style="stop-color:#D59782"/>
	<stop  offset="0.3696" style="stop-color:#C6735D"/>
	<stop  offset="0.4992" style="stop-color:#BC5843"/>
	<stop  offset="0.6276" style="stop-color:#B44030"/>
	<stop  offset="0.7546" style="stop-color:#AE2E26"/>
	<stop  offset="0.8795" style="stop-color:#AB2021"/>
	<stop  offset="1" style="stop-color:#AA1B20"/>
</radialGradient>
<path fill="url(#SVGID_3_)" stroke="#050606" stroke-width="2.9057" stroke-miterlimit="10" d="M158.082,263.292
	c0,7.994-6.464,14.449-14.438,14.449c-7.953,0-14.423-6.455-14.423-14.449c0-7.981,6.471-14.428,14.423-14.428
	C151.618,248.864,158.082,255.31,158.082,263.292z"/>
<radialGradient id="SVGID_4_" cx="195.1548" cy="44.3242" r="14.4331" gradientTransform="matrix(1 0 0 -1 -76 331.8994)" gradientUnits="userSpaceOnUse">
	<stop  offset="0" style="stop-color:#FFFFFF"/>
	<stop  offset="0.1102" style="stop-color:#E7C5B8"/>
	<stop  offset="0.239" style="stop-color:#D59782"/>
	<stop  offset="0.3696" style="stop-color:#C6735D"/>
	<stop  offset="0.4992" style="stop-color:#BC5843"/>
	<stop  offset="0.6276" style="stop-color:#B44030"/>
	<stop  offset="0.7546" style="stop-color:#AE2E26"/>
	<stop  offset="0.8795" style="stop-color:#AB2021"/>
	<stop  offset="1" style="stop-color:#AA1B20"/>
</radialGradient>
<path fill="url(#SVGID_4_)" stroke="#050606" stroke-width="2.9057" stroke-miterlimit="10" d="M133.583,287.575
	c0,7.993-6.461,14.438-14.429,14.438c-7.967,0-14.427-6.445-14.427-14.438c0-7.98,6.46-14.438,14.427-14.438
	C127.122,273.138,133.583,279.594,133.583,287.575z"/>
<radialGradient id="SVGID_5_" cx="119.5981" cy="364.7935" r="14.7969" gradientTransform="matrix(0 -1 -1 0 486.2246 385.5557)" gradientUnits="userSpaceOnUse">
	<stop  offset="0" style="stop-color:#FFFFFF"/>
	<stop  offset="0.1496" style="stop-color:#E3EAE5"/>
	<stop  offset="0.4388" style="stop-color:#C4D4CA"/>
	<stop  offset="0.7244" style="stop-color:#B3C7BB"/>
	<stop  offset="1" style="stop-color:#ADC2B6"/>
</radialGradient>
<path fill="url(#SVGID_5_)" stroke="#050606" stroke-width="2.9057" stroke-miterlimit="10" d="M121.431,251.161
	c8.181,0,14.798,6.629,14.798,14.834c0,8.123-6.617,14.76-14.798,14.76c-8.186,0-14.797-6.637-14.797-14.76
	C106.633,257.79,113.245,251.161,121.431,251.161z"/>
<radialGradient id="SVGID_6_" cx="100.9438" cy="350.0161" r="14.7947" gradientTransform="matrix(-0.016 -0.9999 -0.9999 0.016 491.9145 381.3813)" gradientUnits="userSpaceOnUse">
	<stop  offset="0" style="stop-color:#FFFFFF"/>
	<stop  offset="0.1496" style="stop-color:#E3EAE5"/>
	<stop  offset="0.4388" style="stop-color:#C4D4CA"/>
	<stop  offset="0.7244" style="stop-color:#B3C7BB"/>
	<stop  offset="1" style="stop-color:#ADC2B6"/>
</radialGradient>
<path fill="url(#SVGID_6_)" stroke="#050606" stroke-width="2.9057" stroke-miterlimit="10" d="M140.083,271.256
	c8.185-0.11,14.898,6.395,15.03,14.559c0.136,8.154-6.37,14.883-14.555,15.023c-8.185,0.123-14.899-6.385-15.035-14.56
	C125.396,278.125,131.897,271.397,140.083,271.256z"/>
<text transform="matrix(1 0 0 1 378.0562 366.5903)" fill="#FF0000" font-family="'Tahoma'" font-size="37.8871">2</text>
<text transform="matrix(1 0 0 1 521.0562 215.5903)" font-family="'Tahoma'" font-size="37.8871">0</text>
</svg>
