<?xml version="1.0" encoding="utf-8"?>
<!-- Generator: Adobe Illustrator 15.0.0, SVG Export Plug-In . SVG Version: 6.00 Build 0)  -->
<!DOCTYPE svg PUBLIC "-//W3C//DTD SVG 1.1//EN" "http://www.w3.org/Graphics/SVG/1.1/DTD/svg11.dtd">
<svg version="1.1" id="Layer_1" xmlns="http://www.w3.org/2000/svg" xmlns:xlink="http://www.w3.org/1999/xlink" x="0px" y="0px"
	 width="361px" height="197.5px" viewBox="0 0 361 197.5" enable-background="new 0 0 361 197.5" xml:space="preserve">
<line fill="none" stroke="#010101" stroke-width="2" stroke-miterlimit="10" x1="52.077" y1="34.806" x2="14.063" y2="156.244"/>
<line fill="none" stroke="#010101" stroke-width="2" stroke-miterlimit="10" x1="52.077" y1="34.806" x2="88.929" y2="155.805"/>
<linearGradient id="SVGID_1_" gradientUnits="userSpaceOnUse" x1="301.8418" y1="-343.8052" x2="566.9395" y2="-343.8052" gradientTransform="matrix(1 0 0 -1 -252 -312.5)">
	<stop  offset="0.0056" style="stop-color:#BBBCBE"/>
	<stop  offset="0.2921" style="stop-color:#989CA0"/>
	<stop  offset="0.6517" style="stop-color:#BFBEC2"/>
	<stop  offset="0.8652" style="stop-color:#9EA0A4"/>
	<stop  offset="1" style="stop-color:#A7A9AC"/>
	<stop  offset="1" style="stop-color:#C3C6CA"/>
</linearGradient>
<path fill="url(#SVGID_1_)" stroke="#010101" stroke-width="2" stroke-miterlimit="10" d="M314.939,31.305
	c0-1.934-1.012-3.5-2.256-3.5H52.097c-1.245,0-2.255,1.566-2.255,3.5l0,0c0,1.934,1.01,3.499,2.255,3.499l260.587,0.001
	C313.929,34.805,314.939,33.236,314.939,31.305L314.939,31.305z"/>
<linearGradient id="SVGID_2_" gradientUnits="userSpaceOnUse" x1="292.7695" y1="-327.8184" x2="501.1191" y2="-327.8184" gradientTransform="matrix(1 0 0 -1 -252 -312.5)">
	<stop  offset="0.0056" style="stop-color:#BBBCBE"/>
	<stop  offset="0.2921" style="stop-color:#989CA0"/>
	<stop  offset="0.6517" style="stop-color:#BFBEC2"/>
	<stop  offset="0.8652" style="stop-color:#9EA0A4"/>
	<stop  offset="1" style="stop-color:#A7A9AC"/>
	<stop  offset="1" style="stop-color:#C3C6CA"/>
</linearGradient>
<rect x="40.77" y="12.648" display="none" fill="url(#SVGID_2_)" stroke="#010101" stroke-width="2" stroke-miterlimit="10" width="208.349" height="5.341"/>
<linearGradient id="SVGID_3_" gradientUnits="userSpaceOnUse" x1="423.6299" y1="-408.96" x2="446.7588" y2="-408.96" gradientTransform="matrix(1 0 0 -1 -252 -312.5)">
	<stop  offset="0.0056" style="stop-color:#BBBCBE"/>
	<stop  offset="0.2921" style="stop-color:#989CA0"/>
	<stop  offset="0.6517" style="stop-color:#BFBEC2"/>
	<stop  offset="0.8652" style="stop-color:#9EA0A4"/>
	<stop  offset="1" style="stop-color:#A7A9AC"/>
	<stop  offset="1" style="stop-color:#C3C6CA"/>
</linearGradient>
<path fill="url(#SVGID_3_)" stroke="#010101" stroke-width="2" stroke-miterlimit="10" d="M194.759,179.345
	c0,4.196-3.806,7.601-8.499,7.601h-6.13c-4.694,0-8.5-3.403-8.5-7.601V13.575c0-4.197,3.806-7.6,8.5-7.6h6.13
	c4.693,0,8.499,3.403,8.499,7.6V179.345z"/>
<linearGradient id="SVGID_4_" gradientUnits="userSpaceOnUse" x1="373.7813" y1="-457.8369" x2="496.7813" y2="-457.8369" gradientTransform="matrix(1 0 0 -1 -252 -312.5)">
	<stop  offset="0.0056" style="stop-color:#BBBCBE"/>
	<stop  offset="0.2921" style="stop-color:#989CA0"/>
	<stop  offset="0.6517" style="stop-color:#BFBEC2"/>
	<stop  offset="0.8652" style="stop-color:#9EA0A4"/>
	<stop  offset="1" style="stop-color:#A7A9AC"/>
	<stop  offset="1" style="stop-color:#C3C6CA"/>
</linearGradient>
<path fill="url(#SVGID_4_)" stroke="#010101" stroke-width="2" stroke-miterlimit="10" d="M244.781,167.789
	c0,8.043-5.373,14.563-12,14.563h-99c-6.627,0-12-6.521-12-14.563l10-44.905c0-8.042,6.373-14.562,13-14.562h78
	c6.627,0,13,6.521,13,14.562L244.781,167.789z"/>
<linearGradient id="SVGID_5_" gradientUnits="userSpaceOnUse" x1="373.7813" y1="-499.6035" x2="496.7813" y2="-499.6035" gradientTransform="matrix(1 0 0 -1 -252 -312.5)">
	<stop  offset="0.0056" style="stop-color:#BBBCBE"/>
	<stop  offset="0.2921" style="stop-color:#989CA0"/>
	<stop  offset="0.6517" style="stop-color:#BFBEC2"/>
	<stop  offset="0.8652" style="stop-color:#9EA0A4"/>
	<stop  offset="1" style="stop-color:#A7A9AC"/>
	<stop  offset="1" style="stop-color:#C3C6CA"/>
</linearGradient>
<path fill="url(#SVGID_5_)" stroke="#010101" stroke-width="2" stroke-miterlimit="10" d="M244.781,187.104
	c0,2.441-2.299,4.422-5.139,4.422H126.917c-2.836,0-5.136-1.979-5.136-4.422l0,0c0-2.44,2.299-4.422,5.136-4.422h112.729
	C242.484,182.682,244.781,184.662,244.781,187.104L244.781,187.104z"/>
<linearGradient id="SVGID_6_" gradientUnits="userSpaceOnUse" x1="402.3418" y1="-417.0078" x2="467.3418" y2="-417.0078" gradientTransform="matrix(1 0 0 -1 -252 -312.5)">
	<stop  offset="0.0056" style="stop-color:#BBBCBE"/>
	<stop  offset="0.2921" style="stop-color:#989CA0"/>
	<stop  offset="0.6517" style="stop-color:#BFBEC2"/>
	<stop  offset="0.8652" style="stop-color:#9EA0A4"/>
	<stop  offset="1" style="stop-color:#A7A9AC"/>
	<stop  offset="1" style="stop-color:#C3C6CA"/>
</linearGradient>
<path fill="url(#SVGID_6_)" stroke="#010101" stroke-width="2" stroke-miterlimit="10" d="M215.342,104.507
	c0,2.106-3.703,3.813-8.273,3.813h-48.452c-4.569,0-8.274-1.707-8.274-3.813l0,0c0-2.104,3.705-3.812,8.274-3.812h48.452
	C211.639,100.695,215.342,102.4,215.342,104.507L215.342,104.507z"/>
<linearGradient id="SVGID_7_" gradientUnits="userSpaceOnUse" x1="449.4209" y1="-469.6914" x2="550.8184" y2="-469.6914" gradientTransform="matrix(1 0 0 -1 -252 -312.5)">
	<stop  offset="0.0056" style="stop-color:#BBBCBE"/>
	<stop  offset="0.2921" style="stop-color:#989CA0"/>
	<stop  offset="0.6517" style="stop-color:#BFBEC2"/>
	<stop  offset="0.8652" style="stop-color:#9EA0A4"/>
	<stop  offset="1" style="stop-color:#A7A9AC"/>
	<stop  offset="1" style="stop-color:#C3C6CA"/>
</linearGradient>
<path display="none" fill="url(#SVGID_7_)" stroke="#010101" stroke-width="2" stroke-miterlimit="10" d="M248.119,180.363
	c-28,0-50.698-14.49-50.698-32.363c0-17.875,3.481-13.575,50.698-13.414c48.115,0.164,50.699-4.462,50.699,13.414
	C298.818,165.873,276.119,180.363,248.119,180.363"/>
<radialGradient id="SVGID_8_" cx="421.4805" cy="-343.4746" r="6.1993" gradientTransform="matrix(1 0 0 -1 -252 -312.5)" gradientUnits="userSpaceOnUse">
	<stop  offset="0" style="stop-color:#989CA0"/>
	<stop  offset="0.0056" style="stop-color:#BBBCBE"/>
	<stop  offset="0.5032" style="stop-color:#BFBEC2"/>
	<stop  offset="0.6802" style="stop-color:#BCBCC0"/>
	<stop  offset="0.8227" style="stop-color:#B3B4B7"/>
	<stop  offset="0.9527" style="stop-color:#A5A6AA"/>
	<stop  offset="1" style="stop-color:#9EA0A4"/>
	<stop  offset="1" style="stop-color:#A7A9AC"/>
	<stop  offset="1" style="stop-color:#C3C6CA"/>
</radialGradient>
<path fill="url(#SVGID_8_)" stroke="#010101" stroke-width="2" stroke-miterlimit="10" d="M171.63,37.324
	c0,1.188-0.962,2.15-2.15,2.15l0,0c-1.188,0-2.15-0.963-2.15-2.15V24.625c0-1.188,0.963-2.15,2.15-2.15l0,0
	c1.188,0,2.15,0.963,2.15,2.15V37.324z"/>
<radialGradient id="SVGID_9_" cx="448.9102" cy="-343.8037" r="6.1984" gradientTransform="matrix(1 0 0 -1 -252 -312.5)" gradientUnits="userSpaceOnUse">
	<stop  offset="0" style="stop-color:#989CA0"/>
	<stop  offset="0.0056" style="stop-color:#BBBCBE"/>
	<stop  offset="0.5032" style="stop-color:#BFBEC2"/>
	<stop  offset="0.6802" style="stop-color:#BCBCC0"/>
	<stop  offset="0.8227" style="stop-color:#B3B4B7"/>
	<stop  offset="0.9527" style="stop-color:#A5A6AA"/>
	<stop  offset="1" style="stop-color:#9EA0A4"/>
	<stop  offset="1" style="stop-color:#A7A9AC"/>
	<stop  offset="1" style="stop-color:#C3C6CA"/>
</radialGradient>
<path fill="url(#SVGID_9_)" stroke="#010101" stroke-width="2" stroke-miterlimit="10" d="M199.059,37.654
	c0,1.188-0.961,2.149-2.147,2.149l0,0c-1.188,0-2.149-0.963-2.149-2.149V24.955c0-1.188,0.963-2.15,2.149-2.15l0,0
	c1.188,0,2.147,0.963,2.147,2.15V37.654z"/>
<linearGradient id="SVGID_10_" gradientUnits="userSpaceOnUse" x1="259.8418" y1="-471.9492" x2="347.1504" y2="-471.9492" gradientTransform="matrix(1 0 0 -1 -252 -312.5)">
	<stop  offset="0.0056" style="stop-color:#BBBCBE"/>
	<stop  offset="0.2921" style="stop-color:#989CA0"/>
	<stop  offset="0.6517" style="stop-color:#BFBEC2"/>
	<stop  offset="0.8652" style="stop-color:#9EA0A4"/>
	<stop  offset="1" style="stop-color:#A7A9AC"/>
	<stop  offset="1" style="stop-color:#C3C6CA"/>
</linearGradient>
<path fill="url(#SVGID_10_)" stroke="#010101" stroke-width="2" stroke-miterlimit="10" d="M95.151,159.449
	c0,5.92-2.927,10.721-6.537,10.721H14.379c-3.61,0-6.537-4.801-6.537-10.721l0,0c0-5.92,2.927-10.721,6.537-10.721h74.235
	C92.224,148.729,95.151,153.529,95.151,159.449L95.151,159.449z"/>
<line fill="none" stroke="#010101" stroke-width="2" stroke-miterlimit="10" x1="312.086" y1="35.805" x2="274.072" y2="157.242"/>
<line fill="none" stroke="#010101" stroke-width="2" stroke-miterlimit="10" x1="312.086" y1="35.805" x2="348.939" y2="156.805"/>
<linearGradient id="SVGID_11_" gradientUnits="userSpaceOnUse" x1="519.8516" y1="-471.729" x2="607.1582" y2="-471.729" gradientTransform="matrix(1 0 0 -1 -252 -312.5)">
	<stop  offset="0.0056" style="stop-color:#BBBCBE"/>
	<stop  offset="0.2921" style="stop-color:#989CA0"/>
	<stop  offset="0.6517" style="stop-color:#BFBEC2"/>
	<stop  offset="0.8652" style="stop-color:#9EA0A4"/>
	<stop  offset="1" style="stop-color:#A7A9AC"/>
	<stop  offset="1" style="stop-color:#C3C6CA"/>
</linearGradient>
<path fill="url(#SVGID_11_)" stroke="#010101" stroke-width="2" stroke-miterlimit="10" d="M355.158,159.229
	c0,5.92-2.927,10.722-6.537,10.722h-74.232c-3.611,0-6.537-4.802-6.537-10.722l0,0c0-5.92,2.926-10.721,6.537-10.721h74.232
	C352.232,148.508,355.158,153.309,355.158,159.229L355.158,159.229z"/>
</svg>
