<?xml version="1.0" encoding="utf-8"?>
<!-- Generator: Adobe Illustrator 15.0.0, SVG Export Plug-In . SVG Version: 6.00 Build 0)  -->
<!DOCTYPE svg PUBLIC "-//W3C//DTD SVG 1.1//EN" "http://www.w3.org/Graphics/SVG/1.1/DTD/svg11.dtd">
<svg version="1.1" id="Layer_1" xmlns="http://www.w3.org/2000/svg" xmlns:xlink="http://www.w3.org/1999/xlink" x="0px" y="0px"
	 width="93.745px" height="49.168px" viewBox="353.16 235.332 93.745 49.168" enable-background="new 353.16 235.332 93.745 49.168"
	 xml:space="preserve">
<g>
	<g>
		<g enable-background="new    ">
			<g>
				<path fill="#D3D4D4" d="M438.723,237.597c2.421,0.007,4.203,0.978,4.183,2.025c0,13.529,0,27.058,0,40.588
					c0.021,1.048-1.762,2.018-4.183,2.025c-25.794,0-51.588,0-77.382,0c-2.42-0.008-4.202-0.978-4.181-2.025
					c0-13.53,0-27.059,0-40.588c-0.021-1.048,1.761-2.019,4.181-2.025C387.135,237.597,412.929,237.597,438.723,237.597z"/>
			</g>
			<g enable-background="new    ">
				<g>
					<defs>
						<path id="SVGID_1_" d="M438.723,237.597c0-1.25,0-2.265,0-2.265c4.52,0,8.183,1.921,8.183,4.29c0,0-1.791,0-4,0
							C442.926,238.574,441.144,237.604,438.723,237.597z"/>
					</defs>
					<clipPath id="SVGID_2_">
						<use xlink:href="#SVGID_1_"  overflow="visible"/>
					</clipPath>
					<g clip-path="url(#SVGID_2_)" enable-background="new    ">
						<path fill="#D9DADA" d="M438.723,237.597c0-1.25,0-2.265,0-2.265c4.52,0,8.183,1.921,8.183,4.29c0,0-1.791,0-4,0
							C442.926,238.574,441.144,237.604,438.723,237.597"/>
						<path fill="#D9DADA" d="M442.904,239.622c0.021-1.048-1.762-2.019-4.183-2.025c0-0.057,0-0.113,0-0.168
							c0.029-0.002,0.069-0.006,0.101-0.008c0.17-0.061,0.422-0.119,0.617-0.147c-0.245-0.042-0.479-0.101-0.718-0.153
							c0-1.022,0-1.789,0-1.789c4.52,0,8.183,1.921,8.183,4.29C446.904,239.622,445.113,239.622,442.904,239.622"/>
						<path fill="#D5D7D7" d="M442.904,239.622c0.021-1.048-1.762-2.019-4.183-2.025c0-0.023,0-0.046,0-0.069
							c0.105-0.002,0.247-0.005,0.354-0.008c0.777,0.034,1.068,0.069,2.076,0.252c-0.075-0.068-0.083-0.19-0.184-0.248
							c-0.001,0-0.227-0.101-0.708-0.257c-0.432-0.14-0.486-0.157-1.538-0.28c0-0.955,0-1.655,0-1.655
							c4.52,0,8.183,1.921,8.183,4.29C446.904,239.622,445.113,239.622,442.904,239.622"/>
						<path fill="#D2D3D3" d="M442.961,239.622c-0.058-0.032-0.006-0.106-0.008-0.151c-0.013-0.229-0.146-0.469-0.218-0.597
							c-0.24-0.43-0.24-0.43-0.724-0.95c-0.077-0.083-0.819-0.815-3.29-1.039c0-0.902,0-1.553,0-1.553
							c4.52,0,8.183,1.921,8.183,4.29C446.904,239.622,445.144,239.622,442.961,239.622"/>
						<path fill="#CED0D0" d="M443.145,239.622c-0.061-0.034-0.004-0.112-0.005-0.161c-0.008-1.107-1.172-2.387-4.417-2.662
							c0-0.857,0-1.468,0-1.468c4.52,0,8.183,1.921,8.183,4.29C446.904,239.622,445.241,239.622,443.145,239.622"/>
						<path fill="#CACCCD" d="M443.289,239.622c-0.063-0.036,0.001-0.117,0.002-0.167c0.012-1.1-1.178-2.477-4.568-2.736
							c0-0.814,0-1.387,0-1.387c4.52,0,8.183,1.921,8.183,4.29C446.904,239.622,445.317,239.622,443.289,239.622"/>
						<path fill="#C7C9C9" d="M443.406,239.622c-0.063-0.038,0.01-0.122,0.015-0.174c0.101-1.217-1.481-2.572-4.698-2.807
							c0-0.773,0-1.31,0-1.31c4.52,0,8.183,1.921,8.183,4.29C446.904,239.622,445.378,239.622,443.406,239.622"/>
						<path fill="#C3C5C6" d="M443.523,239.622c-0.065-0.039,0.014-0.125,0.02-0.18c0.109-0.972-1.103-2.613-4.82-2.877
							c0-0.732,0-1.233,0-1.233c4.52,0,8.183,1.921,8.183,4.29C446.904,239.622,445.438,239.622,443.523,239.622"/>
						<path fill="#C0C2C2" d="M443.624,239.622c-0.066-0.041,0.019-0.129,0.026-0.185c0.152-1.074-1.273-2.699-4.929-2.949
							c0-0.69,0-1.157,0-1.157c4.52,0,8.183,1.921,8.183,4.29C446.904,239.622,445.489,239.622,443.624,239.622"/>
						<path fill="#BCBEBF" d="M443.724,239.622c-0.066-0.042,0.022-0.132,0.032-0.189c0.147-0.862-0.889-2.735-5.033-3.021
							c0-0.647,0-1.08,0-1.08c4.52,0,8.183,1.921,8.183,4.29C446.904,239.622,445.539,239.622,443.724,239.622"/>
						<path fill="#B9BBBC" d="M443.822,239.622c-0.068-0.043,0.025-0.136,0.038-0.194c0.165-0.851-0.898-2.813-5.139-3.093
							c0-0.604,0-1.002,0-1.002c4.52,0,8.183,1.921,8.183,4.29C446.904,239.622,445.589,239.622,443.822,239.622"/>
						<path fill="#B5B7B8" d="M443.923,239.622c-0.071-0.044,0.028-0.139,0.04-0.199c0.178-0.87-0.896-2.876-5.24-3.17
							c0-0.559,0-0.921,0-0.921c4.52,0,8.183,1.921,8.183,4.29C446.904,239.622,445.639,239.622,443.923,239.622"/>
						<path fill="#B1B4B5" d="M444.021,239.622c-0.072-0.046,0.029-0.143,0.043-0.204c0.253-1.194-1.505-3.036-5.343-3.245
							c0-0.513,0-0.841,0-0.841c4.52,0,8.183,1.921,8.183,4.29C446.904,239.622,445.688,239.622,444.021,239.622"/>
						<path fill="#AEB0B1" d="M444.12,239.622c-0.073-0.047,0.036-0.146,0.052-0.209c0.249-1.018-1.093-3.04-5.449-3.326
							c0-0.464,0-0.755,0-0.755c4.52,0,8.183,1.921,8.183,4.29C446.904,239.622,445.734,239.622,444.12,239.622"/>
						<path fill="#AAACAD" d="M444.229,239.622c-0.074-0.048,0.036-0.15,0.053-0.214c0.25-1.042-1.123-3.112-5.559-3.408
							c0-0.413,0-0.668,0-0.668c4.52,0,8.183,1.921,8.183,4.29C446.904,239.622,445.787,239.622,444.229,239.622"/>
						<path fill="#A6A9AA" d="M444.336,239.622c-0.064-0.042,0.032-0.13,0.046-0.187c0.238-0.969-0.855-3.201-5.659-3.524
							c0-0.361,0-0.58,0-0.58c4.52,0,8.183,1.921,8.183,4.29C446.904,239.622,445.838,239.622,444.336,239.622"/>
						<path fill="#A2A5A6" d="M444.451,239.622c-0.079-0.052,0.043-0.157,0.061-0.225c0.315-1.16-1.35-3.347-5.789-3.576
							c0-0.306,0-0.489,0-0.489c4.52,0,8.183,1.921,8.183,4.29C446.904,239.622,445.892,239.622,444.451,239.622"/>
						<path fill="#9FA1A3" d="M444.574,239.622c-0.08-0.053,0.041-0.161,0.059-0.23c0.35-1.375-1.555-3.47-5.91-3.663
							c0-0.25,0-0.397,0-0.397c4.52,0,8.183,1.921,8.183,4.29C446.904,239.622,445.949,239.622,444.574,239.622"/>
						<path fill="#9B9D9F" d="M444.704,239.622c-0.082-0.055,0.049-0.165,0.069-0.236c0.184-0.618-0.209-1.666-1.299-2.391
							c-1.246-0.831-2.801-1.274-4.753-1.358c0-0.194,0-0.305,0-0.305c4.52,0,8.183,1.921,8.183,4.29
							C446.904,239.622,446.009,239.622,444.704,239.622"/>
						<path fill="#979A9B" d="M444.851,239.622c-0.075-0.05,0.041-0.151,0.061-0.217c0.401-1.471-1.524-3.629-6.188-3.857
							c0-0.138,0-0.216,0-0.216c4.52,0,8.183,1.921,8.183,4.29C446.904,239.622,446.075,239.622,444.851,239.622"/>
						<path fill="#949698" d="M445.012,239.622c-0.086-0.058,0.051-0.173,0.073-0.247c0.165-0.552-0.061-1.684-1.354-2.54
							c-1.842-1.217-3.979-1.321-5.008-1.371c0-0.086,0-0.132,0-0.132c4.52,0,8.183,1.921,8.183,4.29
							C446.904,239.622,446.147,239.622,445.012,239.622"/>
						<path fill="#909394" d="M445.188,239.622c-0.086-0.059,0.06-0.175,0.084-0.25c0.129-0.39,0.128-1.623-1.403-2.624
							c-1.868-1.222-4.165-1.313-5.146-1.354c0-0.041,0-0.063,0-0.063c4.52,0,8.183,1.921,8.183,4.29
							C446.904,239.622,446.226,239.622,445.188,239.622"/>
						<path fill="#8D8F91" d="M445.401,239.622c-0.094-0.063,0.063-0.188,0.09-0.27c0.005-0.014,0.43-1.472-1.48-2.695
							c-1.889-1.209-4.357-1.284-5.288-1.312c4.52-0.014,8.183,1.907,8.183,4.276C446.904,239.622,446.317,239.622,445.401,239.622"
							/>
						<path fill="#898B8D" d="M445.664,239.622c-0.09-0.061,0.061-0.184,0.086-0.261c0.456-1.398-1.142-3.635-6.017-3.997
							c4.041,0.261,7.171,2.068,7.171,4.258C446.904,239.622,446.429,239.622,445.664,239.622"/>
						<path fill="#86888A" d="M446.008,239.622c-0.018-0.012,0.012-0.036,0.018-0.051c0.502-1.494-0.714-2.893-3.17-3.653
							c2.423,0.745,4.05,2.125,4.05,3.704C446.904,239.622,446.568,239.622,446.008,239.622"/>
					</g>
				</g>
			</g>
			<g enable-background="new    ">
				<g>
					<defs>
						<path id="SVGID_3_" d="M442.904,239.622c2.209,0,4,0,4,0v40.588c0,0-1.791,0-4,0V239.622z"/>
					</defs>
					<clipPath id="SVGID_4_">
						<use xlink:href="#SVGID_3_"  overflow="visible"/>
					</clipPath>
					<g clip-path="url(#SVGID_4_)" enable-background="new    ">
						<path fill="#D5D7D7" d="M442.904,280.21v-40.588c0.019,0,0.038,0,0.057,0v40.588
							C442.942,280.21,442.923,280.21,442.904,280.21"/>
						<path fill="#D2D3D3" d="M442.961,280.21v-40.588c0.063,0,0.122,0,0.184,0v40.588
							C443.083,280.21,443.022,280.21,442.961,280.21"/>
						<path fill="#CED0D0" d="M443.145,280.21v-40.588c0.051,0,0.1,0,0.148,0v40.588C443.243,280.21,443.194,280.21,443.145,280.21"
							/>
						<path fill="#CACCCD" d="M443.293,280.21v-40.588c0.039,0,0.077,0,0.116,0v40.588C443.37,280.21,443.332,280.21,443.293,280.21
							"/>
						<path fill="#C7C9C9" d="M443.409,280.21v-40.588c0.038,0,0.077,0,0.115,0v40.588
							C443.486,280.21,443.447,280.21,443.409,280.21"/>
						<path fill="#C3C5C6" d="M443.524,280.21v-40.588c0.033,0,0.068,0,0.104,0v40.588
							C443.594,280.21,443.559,280.21,443.524,280.21"/>
						<path fill="#C0C2C2" d="M443.628,280.21v-40.588c0.033,0,0.066,0,0.1,0v40.588C443.694,280.21,443.661,280.21,443.628,280.21"
							/>
						<path fill="#BCBEBF" d="M443.728,280.21v-40.588c0.033,0,0.065,0,0.1,0v40.588C443.793,280.21,443.761,280.21,443.728,280.21"
							/>
						<path fill="#B9BBBC" d="M443.826,280.21v-40.588c0.033,0,0.065,0,0.1,0v40.588C443.893,280.21,443.859,280.21,443.826,280.21"
							/>
						<path fill="#B5B7B8" d="M443.926,280.21v-40.588c0.033,0,0.067,0,0.102,0v40.588
							C443.993,280.21,443.959,280.21,443.926,280.21"/>
						<path fill="#B1B4B5" d="M444.026,280.21v-40.588c0.032,0,0.065,0,0.099,0v40.588C444.093,280.21,444.06,280.21,444.026,280.21
							"/>
						<path fill="#AEB0B1" d="M444.125,280.21v-40.588c0.036,0,0.071,0,0.106,0v40.588
							C444.196,280.21,444.161,280.21,444.125,280.21"/>
						<path fill="#AAACAD" d="M444.231,280.21v-40.588c0.036,0,0.073,0,0.109,0v40.588
							C444.306,280.21,444.269,280.21,444.231,280.21"/>
						<path fill="#A6A9AA" d="M444.342,280.21v-40.588c0.037,0,0.073,0,0.109,0v40.588
							C444.415,280.21,444.379,280.21,444.342,280.21"/>
						<path fill="#A2A5A6" d="M444.451,280.21v-40.588c0.043,0,0.086,0,0.128,0v40.588
							C444.537,280.21,444.494,280.21,444.451,280.21"/>
						<path fill="#9FA1A3" d="M444.579,280.21v-40.588c0.043,0,0.086,0,0.128,0v40.588
							C444.665,280.21,444.622,280.21,444.579,280.21"/>
						<path fill="#9B9D9F" d="M444.707,280.21v-40.588c0.05,0,0.1,0,0.148,0v40.588C444.807,280.21,444.757,280.21,444.707,280.21"
							/>
						<path fill="#979A9B" d="M444.855,280.21v-40.588c0.052,0,0.103,0,0.151,0v40.588
							C444.958,280.21,444.907,280.21,444.855,280.21"/>
						<path fill="#949698" d="M445.008,280.21v-40.588c0.064,0,0.127,0,0.188,0v40.588
							C445.135,280.21,445.072,280.21,445.008,280.21"/>
						<path fill="#909394" d="M445.196,280.21v-40.588c0.072,0,0.145,0,0.214,0v40.588C445.341,280.21,445.27,280.21,445.196,280.21
							"/>
						<path fill="#8D8F91" d="M445.41,280.21v-40.588c0.09,0,0.177,0,0.26,0v40.588C445.587,280.21,445.5,280.21,445.41,280.21"/>
						<path fill="#898B8D" d="M445.67,280.21v-40.588c0.122,0,0.237,0,0.344,0v40.588C445.907,280.21,445.792,280.21,445.67,280.21"
							/>
						<path fill="#86888A" d="M446.014,280.21v-40.588c0.558,0,0.892,0,0.892,0v40.588C446.904,280.21,446.57,280.21,446.014,280.21
							"/>
					</g>
				</g>
			</g>
			<g enable-background="new    ">
				<g>
					<defs>
						<path id="SVGID_5_" d="M442.904,280.21c2.209,0,4,0,4,0c0,2.37-3.663,4.29-8.183,4.29c0,0,0-1.014,0-2.265
							C441.144,282.229,442.926,281.258,442.904,280.21z"/>
					</defs>
					<clipPath id="SVGID_6_">
						<use xlink:href="#SVGID_5_"  overflow="visible"/>
					</clipPath>
					<g clip-path="url(#SVGID_6_)" enable-background="new    ">
						<path fill="#D2D3D3" d="M442.904,280.21c2.209,0,4,0,4,0c0,2.37-3.663,4.29-8.183,4.29c0,0,0-1.014,0-2.265
							C441.144,282.229,442.926,281.258,442.904,280.21"/>
						<path fill="#D2D3D3" d="M438.723,282.254c0.071-0.042,0.24-0.006,0.345-0.008c1.013-0.025,3.687-0.44,3.896-2.036
							c2.182,0,3.941,0,3.941,0c0,2.37-3.663,4.29-8.183,4.29C438.723,284.5,438.723,283.496,438.723,282.254"/>
						<path fill="#CED0D0" d="M438.723,282.314c0.072-0.043,0.246-0.009,0.353-0.012c0.7-0.023,1.81-0.19,2.633-0.582
							c1.104-0.525,1.277-1.026,1.444-1.51c2.094,0,3.753,0,3.753,0c0,2.37-3.663,4.29-8.183,4.29
							C438.723,284.5,438.723,283.528,438.723,282.314"/>
						<path fill="#CACCCD" d="M438.723,282.374c0.073-0.044,0.251-0.01,0.358-0.015c1.066-0.045,3.612-0.347,4.214-2.149
							c2.025,0,3.609,0,3.609,0c0,2.37-3.663,4.29-8.183,4.29C438.723,284.5,438.723,283.56,438.723,282.374"/>
						<path fill="#C7C9C9" d="M438.723,282.43c0.075-0.046,0.256-0.012,0.366-0.016c1.092-0.048,3.699-0.36,4.324-2.204
							c1.969,0,3.491,0,3.491,0c0,2.37-3.663,4.29-8.183,4.29C438.723,284.5,438.723,283.589,438.723,282.43"/>
						<path fill="#C3C5C6" d="M438.723,282.479c0.076-0.046,0.262-0.011,0.372-0.015c1.955-0.08,4.105-0.881,4.437-2.254
							c1.911,0,3.374,0,3.374,0c0,2.37-3.663,4.29-8.183,4.29C438.723,284.5,438.723,283.615,438.723,282.479"/>
						<path fill="#C0C2C2" d="M438.723,282.527c0.078-0.047,0.267-0.01,0.379-0.014c0.158-0.006,3.883-0.171,4.529-2.303
							c1.862,0,3.273,0,3.273,0c0,2.37-3.663,4.29-8.183,4.29C438.723,284.5,438.723,283.64,438.723,282.527"/>
						<path fill="#BCBEBF" d="M438.723,282.576c0.079-0.048,0.271-0.01,0.387-0.014c1.368-0.048,4.099-0.603,4.622-2.353
							c1.813,0,3.174,0,3.174,0c0,2.37-3.663,4.29-8.183,4.29C438.723,284.5,438.723,283.665,438.723,282.576"/>
						<path fill="#B9BBBC" d="M438.723,282.624c3.614-0.118,4.911-1.573,5.107-2.414c1.763,0,3.074,0,3.074,0
							c0,2.37-3.663,4.29-8.183,4.29C438.723,284.5,438.723,283.689,438.723,282.624"/>
						<path fill="#B5B7B8" d="M438.723,282.67c0.082-0.049,0.278-0.008,0.398-0.011c1.147-0.036,4.252-0.544,4.809-2.449
							c1.712,0,2.976,0,2.976,0c0,2.37-3.663,4.29-8.183,4.29C438.723,284.5,438.723,283.713,438.723,282.67"/>
						<path fill="#B1B4B5" d="M438.723,282.718c0.084-0.05,0.283-0.009,0.404-0.012c1.634-0.046,4.408-0.766,4.901-2.496
							c1.662,0,2.876,0,2.876,0c0,2.37-3.663,4.29-8.183,4.29C438.723,284.5,438.723,283.736,438.723,282.718"/>
						<path fill="#AEB0B1" d="M438.723,282.765c0.085-0.051,0.287-0.008,0.411-0.011c1.822-0.051,4.577-0.874,4.994-2.544
							c1.61,0,2.776,0,2.776,0c0,2.37-3.663,4.29-8.183,4.29C438.723,284.5,438.723,283.76,438.723,282.765"/>
						<path fill="#AAACAD" d="M438.723,282.817c0.087-0.051,0.292-0.007,0.418-0.011c1.134-0.03,4.5-0.572,5.097-2.596
							c1.554,0,2.668,0,2.668,0c0,2.37-3.663,4.29-8.183,4.29C438.723,284.5,438.723,283.786,438.723,282.817"/>
						<path fill="#A6A9AA" d="M438.723,282.868c0.088-0.052,0.297-0.007,0.426-0.011c1.46-0.037,4.65-0.732,5.194-2.647
							c1.498,0,2.563,0,2.563,0c0,2.37-3.663,4.29-8.183,4.29C438.723,284.5,438.723,283.811,438.723,282.868"/>
						<path fill="#A2A5A6" d="M438.723,282.919c0.09-0.053,0.303-0.007,0.433-0.01c1.165-0.029,4.642-0.584,5.304-2.699
							c1.438,0,2.446,0,2.446,0c0,2.37-3.663,4.29-8.183,4.29C438.723,284.5,438.723,283.835,438.723,282.919"/>
						<path fill="#9FA1A3" d="M438.723,282.98c0.092-0.053,0.309-0.007,0.439-0.01c1.51-0.037,4.821-0.76,5.419-2.76
							c1.371,0,2.323,0,2.323,0c0,2.37-3.663,4.29-8.183,4.29C438.723,284.5,438.723,283.865,438.723,282.98"/>
						<path fill="#9B9D9F" d="M438.723,283.041c0.094-0.055,0.313-0.008,0.447-0.011c1.215-0.029,4.842-0.61,5.541-2.819
							c1.301,0,2.193,0,2.193,0c0,2.37-3.663,4.29-8.183,4.29C438.723,284.5,438.723,283.894,438.723,283.041"/>
						<path fill="#979A9B" d="M438.723,283.108c0.096-0.056,0.319-0.008,0.456-0.012c1.57-0.038,5.024-0.794,5.679-2.886
							c1.222,0,2.048,0,2.048,0c0,2.37-3.663,4.29-8.183,4.29C438.723,284.5,438.723,283.925,438.723,283.108"/>
						<path fill="#949698" d="M438.723,283.183c0.098-0.058,0.326-0.009,0.467-0.012c1.257-0.031,5.024-0.641,5.828-2.961
							c1.134,0,1.888,0,1.888,0c0,2.37-3.663,4.29-8.183,4.29C438.723,284.5,438.723,283.96,438.723,283.183"/>
						<path fill="#909394" d="M438.723,283.266c0.1-0.059,0.334-0.009,0.478-0.012c1.656-0.042,5.3-0.843,5.996-3.044
							c1.032,0,1.709,0,1.709,0c0,2.37-3.663,4.29-8.183,4.29C438.723,284.5,438.723,283.999,438.723,283.266"/>
						<path fill="#8D8F91" d="M438.723,283.363c0.103-0.06,0.344-0.009,0.489-0.012c1.7-0.044,5.45-0.87,6.193-3.141
							c0.914,0,1.499,0,1.499,0c0,2.37-3.663,4.29-8.183,4.29C438.723,284.5,438.723,284.043,438.723,283.363"/>
						<path fill="#898B8D" d="M438.723,283.488c0.104-0.062,0.354-0.01,0.506-0.014c1.75-0.048,5.627-0.909,6.44-3.265
							c0.762,0,1.235,0,1.235,0c0,2.37-3.663,4.29-8.183,4.29C438.723,284.5,438.723,284.099,438.723,283.488"/>
						<path fill="#86888A" d="M438.723,283.652c0.109-0.064,0.369-0.01,0.527-0.014c2.801-0.079,6.287-1.561,6.761-3.428
							c0.56,0,0.895,0,0.895,0c0,2.37-3.663,4.29-8.183,4.29C438.723,284.5,438.723,284.169,438.723,283.652"/>
					</g>
				</g>
			</g>
			<g enable-background="new    ">
				<g>
					<defs>
						<path id="SVGID_7_" d="M438.723,282.235c0,1.25,0,2.265,0,2.265h-77.382c0,0,0-1.014,0-2.265H438.723z"/>
					</defs>
					<clipPath id="SVGID_8_">
						<use xlink:href="#SVGID_7_"  overflow="visible"/>
					</clipPath>
					<g clip-path="url(#SVGID_8_)" enable-background="new    ">
						<path fill="#D5D7D7" d="M361.341,282.235h77.382c0,0.007,0,0.012,0,0.019h-77.382
							C361.341,282.248,361.341,282.241,361.341,282.235"/>
						<path fill="#D2D3D3" d="M361.341,282.254h77.382c0,0.021,0,0.04,0,0.06h-77.382
							C361.341,282.294,361.341,282.274,361.341,282.254"/>
						<path fill="#CED0D0" d="M361.341,282.314h77.382c0,0.02,0,0.04,0,0.059h-77.382
							C361.341,282.354,361.341,282.334,361.341,282.314"/>
						<path fill="#CACCCD" d="M361.341,282.374h77.382c0,0.019,0,0.039,0,0.058h-77.382
							C361.341,282.412,361.341,282.393,361.341,282.374"/>
						<path fill="#C7C9C9" d="M361.341,282.43h77.382c0,0.017,0,0.033,0,0.048h-77.382
							C361.341,282.463,361.341,282.448,361.341,282.43"/>
						<path fill="#C3C5C6" d="M361.341,282.479h77.382c0,0.017,0,0.033,0,0.049h-77.382
							C361.341,282.512,361.341,282.495,361.341,282.479"/>
						<path fill="#C0C2C2" d="M361.341,282.528h77.382c0,0.016,0,0.032,0,0.048h-77.382
							C361.341,282.56,361.341,282.544,361.341,282.528"/>
						<path fill="#BCBEBF" d="M361.341,282.576h77.382c0,0.016,0,0.031,0,0.047h-77.382
							C361.341,282.607,361.341,282.592,361.341,282.576"/>
						<path fill="#B9BBBC" d="M361.341,282.624h77.382c0,0.016,0,0.032,0,0.047h-77.382
							C361.341,282.656,361.341,282.64,361.341,282.624"/>
						<path fill="#B5B7B8" d="M361.341,282.671h77.382c0,0.016,0,0.032,0,0.048h-77.382
							C361.341,282.703,361.341,282.687,361.341,282.671"/>
						<path fill="#B1B4B5" d="M361.341,282.719h77.382c0,0.016,0,0.031,0,0.047h-77.382
							C361.341,282.75,361.341,282.734,361.341,282.719"/>
						<path fill="#AEB0B1" d="M361.341,282.766h77.382c0,0.017,0,0.034,0,0.051h-77.382
							C361.341,282.799,361.341,282.783,361.341,282.766"/>
						<path fill="#AAACAD" d="M361.341,282.816h77.382c0,0.018,0,0.036,0,0.053h-77.382
							C361.341,282.853,361.341,282.834,361.341,282.816"/>
						<path fill="#A6A9AA" d="M361.341,282.87h77.382c0,0.018,0,0.035,0,0.053h-77.382
							C361.341,282.904,361.341,282.887,361.341,282.87"/>
						<path fill="#A2A5A6" d="M361.341,282.922h77.382c0,0.019,0,0.038,0,0.057h-77.382
							C361.341,282.96,361.341,282.941,361.341,282.922"/>
						<path fill="#9FA1A3" d="M361.341,282.979h77.382c0,0.021,0,0.042,0,0.063h-77.382
							C361.341,283.021,361.341,283,361.341,282.979"/>
						<path fill="#9B9D9F" d="M361.341,283.042h77.382c0,0.021,0,0.042,0,0.063h-77.382
							C361.341,283.086,361.341,283.065,361.341,283.042"/>
						<path fill="#979A9B" d="M361.341,283.105h77.382c0,0.027,0,0.053,0,0.079h-77.382
							C361.341,283.159,361.341,283.132,361.341,283.105"/>
						<path fill="#949698" d="M361.341,283.184h77.382c0,0.027,0,0.054,0,0.08h-77.382
							C361.341,283.238,361.341,283.211,361.341,283.184"/>
						<path fill="#909394" d="M361.341,283.264h77.382c0,0.035,0,0.07,0,0.104h-77.382
							C361.341,283.334,361.341,283.299,361.341,283.264"/>
						<path fill="#8D8F91" d="M361.341,283.368h77.382c0,0.042,0,0.083,0,0.123h-77.382
							C361.341,283.45,361.341,283.41,361.341,283.368"/>
						<path fill="#898B8D" d="M361.341,283.49h77.382c0,0.058,0,0.114,0,0.168h-77.382
							C361.341,283.605,361.341,283.548,361.341,283.49"/>
						<path fill="#86888A" d="M361.341,283.659h77.382c0,0.513,0,0.841,0,0.841h-77.382
							C361.341,284.5,361.341,284.173,361.341,283.659"/>
					</g>
				</g>
			</g>
			<g enable-background="new    ">
				<g>
					<defs>
						<path id="SVGID_9_" d="M361.341,282.235c0,1.25,0,2.265,0,2.265c-4.518,0-8.181-1.92-8.181-4.29c0,0,1.792,0,4,0
							C357.139,281.259,358.921,282.229,361.341,282.235z"/>
					</defs>
					<clipPath id="SVGID_10_">
						<use xlink:href="#SVGID_9_"  overflow="visible"/>
					</clipPath>
					<g clip-path="url(#SVGID_10_)" enable-background="new    ">
						<path fill="#D2D3D3" d="M361.341,282.235c0,1.25,0,2.265,0,2.265c-4.518,0-8.181-1.92-8.181-4.29c0,0,1.792,0,4,0
							C357.139,281.259,358.921,282.229,361.341,282.235"/>
						<path fill="#D2D3D3" d="M356.558,280.21c0.044,0.013,0.233,0.202,0.775,0.748c0.813,0.818,2.161,1.254,4.008,1.296
							c0,1.242,0,2.246,0,2.246c-4.518,0-8.181-1.92-8.181-4.29C353.16,280.21,354.635,280.21,356.558,280.21"/>
						<path fill="#CED0D0" d="M356.373,280.21c0.083,0.034,0.081,0.126,0.115,0.18c0.268,0.429,1.411,1.838,4.854,1.924
							c0,1.215,0,2.186,0,2.186c-4.518,0-8.181-1.921-8.181-4.29C353.16,280.21,354.541,280.21,356.373,280.21"/>
						<path fill="#CACCCD" d="M356.208,280.21c0.034,0.014,0.025,0.055,0.036,0.078c0.096,0.205,0.521,0.922,1.96,1.529
							c1.198,0.506,2.507,0.542,3.136,0.559c0,1.185,0,2.125,0,2.125c-4.518,0-8.181-1.92-8.181-4.29
							C353.16,280.21,354.459,280.21,356.208,280.21"/>
						<path fill="#C7C9C9" d="M356.074,280.21c0.086,0.036,0.069,0.137,0.1,0.196c0.188,0.371,0.679,0.925,1.951,1.461
							c1.216,0.513,2.617,0.548,3.216,0.563c0,1.159,0,2.069,0,2.069c-4.518,0-8.181-1.92-8.181-4.29
							C353.16,280.21,354.393,280.21,356.074,280.21"/>
						<path fill="#C3C5C6" d="M355.943,280.21c0.011,0.005,0.007,0.018,0.01,0.025c0.285,0.714,1.176,1.3,1.916,1.611
							c1.414,0.595,2.804,0.621,3.472,0.633c0,1.136,0,2.02,0,2.02c-4.518,0-8.181-1.92-8.181-4.29
							C353.16,280.21,354.329,280.21,355.943,280.21"/>
						<path fill="#C0C2C2" d="M355.819,280.21c0.09,0.039,0.066,0.146,0.096,0.208c0.194,0.419,0.87,1.045,1.786,1.43
							c1.122,0.471,2.142,0.662,3.64,0.681c0,1.112,0,1.972,0,1.972c-4.518,0-8.181-1.921-8.181-4.29
							C353.16,280.21,354.27,280.21,355.819,280.21"/>
						<path fill="#BCBEBF" d="M355.697,280.21c0.092,0.04,0.066,0.15,0.096,0.213c0.148,0.332,0.778,1.023,1.833,1.466
							c1.413,0.592,2.62,0.68,3.715,0.688c0,1.088,0,1.923,0,1.923c-4.518,0-8.181-1.92-8.181-4.29
							C353.16,280.21,354.212,280.21,355.697,280.21"/>
						<path fill="#B9BBBC" d="M355.573,280.21c0.095,0.042,0.068,0.153,0.099,0.219c0.16,0.354,0.792,1.045,1.879,1.5
							c1.45,0.607,2.729,0.692,3.79,0.695c0,1.065,0,1.875,0,1.875c-4.518,0-8.181-1.92-8.181-4.29
							C353.16,280.21,354.153,280.21,355.573,280.21"/>
						<path fill="#B5B7B8" d="M355.449,280.21c0.097,0.043,0.067,0.157,0.098,0.225c0.149,0.343,0.806,1.065,1.93,1.535
							c1.492,0.623,2.85,0.703,3.864,0.701c0,1.042,0,1.829,0,1.829c-4.518,0-8.181-1.921-8.181-4.29
							C353.16,280.21,354.096,280.21,355.449,280.21"/>
						<path fill="#B1B4B5" d="M355.32,280.21c0.091,0.04,0.065,0.147,0.094,0.21c0.145,0.323,0.746,1.072,1.99,1.59
							c1.19,0.497,2.404,0.715,3.937,0.709c0,1.019,0,1.781,0,1.781c-4.518,0-8.181-1.92-8.181-4.29
							C353.16,280.21,354.037,280.21,355.32,280.21"/>
						<path fill="#AEB0B1" d="M355.189,280.21c0.102,0.045,0.071,0.166,0.102,0.236c0.104,0.24,0.701,1.049,2.037,1.604
							c1.589,0.66,3.051,0.724,4.012,0.715c0,0.995,0,1.734,0,1.734c-4.518,0-8.181-1.92-8.181-4.29
							C353.16,280.21,353.978,280.21,355.189,280.21"/>
						<path fill="#AAACAD" d="M355.051,280.21c0.102,0.044,0.074,0.164,0.106,0.233c0.151,0.333,0.785,1.109,2.093,1.65
							c1.806,0.749,3.525,0.73,4.091,0.724c0,0.968,0,1.682,0,1.682c-4.518,0-8.181-1.92-8.181-4.29
							C353.16,280.21,353.916,280.21,355.051,280.21"/>
						<path fill="#A6A9AA" d="M354.909,280.21c0.105,0.047,0.074,0.173,0.105,0.247c0.004,0.01,0.459,0.979,2.157,1.68
							c0.455,0.188,1.84,0.761,4.169,0.733c0,0.942,0,1.631,0,1.631c-4.518,0-8.181-1.921-8.181-4.29
							C353.16,280.21,353.854,280.21,354.909,280.21"/>
						<path fill="#A2A5A6" d="M354.754,280.21c0.107,0.047,0.079,0.175,0.112,0.249c0.155,0.345,0.818,1.15,2.218,1.726
							c1.901,0.782,3.674,0.747,4.256,0.736c0,0.916,0,1.58,0,1.58c-4.518,0-8.181-1.92-8.181-4.29
							C353.16,280.21,353.786,280.21,354.754,280.21"/>
						<path fill="#9FA1A3" d="M354.593,280.21c0.072,0.032,0.051,0.117,0.073,0.167c0.08,0.182,0.568,1.132,2.331,1.855
							c1.282,0.526,2.744,0.778,4.345,0.749c0,0.884,0,1.519,0,1.519c-4.518,0-8.181-1.92-8.181-4.29
							C353.16,280.21,353.717,280.21,354.593,280.21"/>
						<path fill="#9B9D9F" d="M354.423,280.21c0.017,0.008,0.01,0.026,0.016,0.037c0.445,1.114,1.868,1.797,2.459,2.039
							c1.951,0.798,3.827,0.767,4.443,0.755c0,0.853,0,1.458,0,1.458c-4.518,0-8.181-1.92-8.181-4.29
							C353.16,280.21,353.646,280.21,354.423,280.21"/>
						<path fill="#979A9B" d="M354.238,280.21c0.112,0.051,0.079,0.186,0.112,0.264c0.019,0.043,0.472,1.065,2.443,1.869
							c0.927,0.378,2.468,0.818,4.547,0.766c0,0.817,0,1.392,0,1.392c-4.518,0-8.181-1.921-8.181-4.29
							C353.16,280.21,353.57,280.21,354.238,280.21"/>
						<path fill="#949698" d="M354.042,280.21c0.114,0.052,0.078,0.188,0.111,0.269c0.019,0.045,0.473,1.097,2.521,1.931
							c1.354,0.552,2.925,0.813,4.668,0.775c0,0.776,0,1.316,0,1.316c-4.518,0-8.181-1.92-8.181-4.29
							C353.16,280.21,353.49,280.21,354.042,280.21"/>
						<path fill="#909394" d="M353.83,280.21c0.042,0.019,0.025,0.069,0.036,0.098c0.174,0.477,0.752,1.391,2.672,2.173
							c0.639,0.26,2.385,0.857,4.803,0.786c0,0.732,0,1.233,0,1.233c-4.518,0-8.181-1.921-8.181-4.29
							C353.16,280.21,353.407,280.21,353.83,280.21"/>
						<path fill="#8D8F91" d="M353.611,280.21c0.113,0.053,0.069,0.19,0.1,0.271c0.102,0.274,0.591,1.235,2.666,2.083
							c0.806,0.328,2.523,0.87,4.964,0.8c0,0.679,0,1.136,0,1.136c-4.518,0-8.181-1.92-8.181-4.29
							C353.16,280.21,353.323,280.21,353.611,280.21"/>
						<path fill="#898B8D" d="M353.394,280.21c0.092,0.044,0.045,0.156,0.063,0.224c0.107,0.378,0.588,1.352,2.724,2.233
							c0.813,0.335,2.563,0.887,5.159,0.823c0,0.609,0,1.011,0,1.011c-4.518,0-8.181-1.92-8.181-4.29
							C353.16,280.21,353.243,280.21,353.394,280.21"/>
						<path fill="#86888A" d="M353.209,280.21c0.113,0.058,0.036,0.199,0.051,0.285c0.068,0.383,0.464,1.373,2.658,2.301
							c0.391,0.166,2.487,0.984,5.423,0.857c0,0.517,0,0.847,0,0.847c-4.518,0-8.181-1.92-8.181-4.29
							C353.16,280.21,353.177,280.21,353.209,280.21"/>
					</g>
				</g>
			</g>
			<g enable-background="new    ">
				<g>
					<defs>
						<path id="SVGID_11_" d="M357.16,280.21c-2.208,0-4,0-4,0v-40.588c0,0,1.792,0,4,0V280.21z"/>
					</defs>
					<clipPath id="SVGID_12_">
						<use xlink:href="#SVGID_11_"  overflow="visible"/>
					</clipPath>
					<g clip-path="url(#SVGID_12_)" enable-background="new    ">
						<path fill="#D5D7D7" d="M357.16,239.622v40.588c-0.195,0-0.387,0-0.575,0v-40.588
							C356.773,239.622,356.965,239.622,357.16,239.622"/>
						<path fill="#D2D3D3" d="M356.585,239.622v40.588c-0.069,0-0.137,0-0.205,0v-40.588
							C356.448,239.622,356.516,239.622,356.585,239.622"/>
						<path fill="#CED0D0" d="M356.38,239.622v40.588c-0.056,0-0.111,0-0.166,0v-40.588
							C356.269,239.622,356.324,239.622,356.38,239.622"/>
						<path fill="#CACCCD" d="M356.214,239.622v40.588c-0.045,0-0.09,0-0.135,0v-40.588
							C356.124,239.622,356.169,239.622,356.214,239.622"/>
						<path fill="#C7C9C9" d="M356.08,239.622v40.588c-0.043,0-0.087,0-0.13,0v-40.588
							C355.993,239.622,356.036,239.622,356.08,239.622"/>
						<path fill="#C3C5C6" d="M355.95,239.622v40.588c-0.042,0-0.084,0-0.126,0v-40.588
							C355.865,239.622,355.907,239.622,355.95,239.622"/>
						<path fill="#C0C2C2" d="M355.824,239.622v40.588c-0.041,0-0.082,0-0.123,0v-40.588
							C355.742,239.622,355.783,239.622,355.824,239.622"/>
						<path fill="#BCBEBF" d="M355.701,239.622v40.588c-0.041,0-0.082,0-0.123,0v-40.588
							C355.619,239.622,355.66,239.622,355.701,239.622"/>
						<path fill="#B9BBBC" d="M355.579,239.622v40.588c-0.042,0-0.085,0-0.126,0v-40.588
							C355.494,239.622,355.536,239.622,355.579,239.622"/>
						<path fill="#B5B7B8" d="M355.452,239.622v40.588c-0.042,0-0.083,0-0.125,0v-40.588
							C355.369,239.622,355.41,239.622,355.452,239.622"/>
						<path fill="#B1B4B5" d="M355.328,239.622v40.588c-0.046,0-0.091,0-0.136,0v-40.588
							C355.236,239.622,355.282,239.622,355.328,239.622"/>
						<path fill="#AEB0B1" d="M355.191,239.622v40.588c-0.045,0-0.09,0-0.134,0v-40.588
							C355.102,239.622,355.146,239.622,355.191,239.622"/>
						<path fill="#AAACAD" d="M355.058,239.622v40.588c-0.05,0-0.1,0-0.148,0v-40.588
							C354.958,239.622,355.008,239.622,355.058,239.622"/>
						<path fill="#A6A9AA" d="M354.909,239.622v40.588c-0.051,0-0.102,0-0.15,0v-40.588
							C354.808,239.622,354.858,239.622,354.909,239.622"/>
						<path fill="#A2A5A6" d="M354.759,239.622v40.588c-0.055,0-0.108,0-0.162,0v-40.588
							C354.649,239.622,354.704,239.622,354.759,239.622"/>
						<path fill="#9FA1A3" d="M354.597,239.622v40.588c-0.06,0-0.118,0-0.175,0v-40.588
							C354.479,239.622,354.537,239.622,354.597,239.622"/>
						<path fill="#9B9D9F" d="M354.422,239.622v40.588c-0.063,0-0.125,0-0.185,0v-40.588
							C354.297,239.622,354.358,239.622,354.422,239.622"/>
						<path fill="#979A9B" d="M354.237,239.622v40.588c-0.069,0-0.136,0-0.197,0v-40.588
							C354.103,239.622,354.168,239.622,354.237,239.622"/>
						<path fill="#949698" d="M354.04,239.622v40.588c-0.074,0-0.144,0-0.21,0v-40.588
							C353.896,239.622,353.966,239.622,354.04,239.622"/>
						<path fill="#909394" d="M353.83,239.622v40.588c-0.078,0-0.15,0-0.216,0v-40.588
							C353.68,239.622,353.752,239.622,353.83,239.622"/>
						<path fill="#8D8F91" d="M353.614,239.622v40.588c-0.084,0-0.158,0-0.22,0v-40.588
							C353.456,239.622,353.53,239.622,353.614,239.622"/>
						<path fill="#898B8D" d="M353.395,239.622v40.588c-0.083,0-0.146,0-0.186,0v-40.588
							C353.249,239.622,353.311,239.622,353.395,239.622"/>
						<path fill="#86888A" d="M353.209,239.622v40.588c-0.032,0-0.049,0-0.049,0v-40.588
							C353.16,239.622,353.177,239.622,353.209,239.622"/>
					</g>
				</g>
			</g>
			<g enable-background="new    ">
				<g>
					<defs>
						<path id="SVGID_13_" d="M357.16,239.622c-2.208,0-4,0-4,0c0-2.369,3.663-4.29,8.181-4.29c0,0,0,1.015,0,2.265
							C358.921,237.604,357.139,238.574,357.16,239.622z"/>
					</defs>
					<clipPath id="SVGID_14_">
						<use xlink:href="#SVGID_13_"  overflow="visible"/>
					</clipPath>
					<g clip-path="url(#SVGID_14_)" enable-background="new    ">
						<path fill="#D9DADA" d="M357.16,239.622c-2.208,0-4,0-4,0c0-2.369,3.663-4.29,8.181-4.29c0,0,0,1.015,0,2.265
							C358.921,237.604,357.139,238.574,357.16,239.622"/>
						<path fill="#D9DADA" d="M361.341,237.116c-0.153,0.09-0.515,0-0.733-0.011c-0.024-0.001-2.425-0.088-3.381,1.297
							c0.73-0.216,1.327-0.556,2.097-0.737c1.132-0.267,1.645-0.249,2.019-0.235c0,0.055,0,0.111,0,0.167
							c-2.42,0.007-4.202,0.978-4.181,2.025c-2.208,0-4,0-4,0c0-2.369,3.663-4.29,8.181-4.29
							C361.341,235.332,361.341,236.096,361.341,237.116"/>
						<path fill="#D5D7D7" d="M361.341,236.984c-0.09,0.05-0.296-0.001-0.423-0.002c-1.58-0.012-2.533,0.347-2.961,0.561
							c-0.715,0.358-1.006,0.709-1.116,0.886c-0.238,0.383-0.201,0.426,0.089,0.767c0.478-0.5,1.594-1.67,4.411-1.668
							c0,0.023,0,0.046,0,0.069c-2.42,0.007-4.202,0.978-4.181,2.025c-2.208,0-4,0-4,0c0-2.369,3.663-4.29,8.181-4.29
							C361.341,235.332,361.341,236.031,361.341,236.984"/>
						<path fill="#D2D3D3" d="M361.341,236.883c-3.691-0.046-5.343,1.386-4.756,2.739c-1.936,0-3.424,0-3.424,0
							c0-2.369,3.663-4.29,8.181-4.29C361.341,235.332,361.341,235.982,361.341,236.883"/>
						<path fill="#CED0D0" d="M361.341,236.798c-0.097,0.053-0.313-0.006-0.449-0.008c-1.013-0.02-2.467,0.207-3.431,0.756
							c-1.438,0.819-1.21,1.606-1.074,2.076c-1.839,0-3.227,0-3.227,0c0-2.369,3.663-4.29,8.181-4.29
							C361.341,235.332,361.341,235.942,361.341,236.798"/>
						<path fill="#CACCCD" d="M361.341,236.717c-0.099,0.054-0.322-0.007-0.459-0.009c-0.769-0.016-2.375,0.13-3.516,0.778
							c-1.494,0.847-1.259,1.718-1.146,2.136c-1.755,0-3.06,0-3.06,0c0-2.369,3.663-4.29,8.181-4.29
							C361.341,235.332,361.341,235.903,361.341,236.717"/>
						<path fill="#C7C9C9" d="M361.341,236.641c-0.102,0.055-0.329-0.008-0.47-0.011c-1.015-0.023-2.574,0.217-3.598,0.798
							c-1.583,0.898-1.296,1.84-1.188,2.195c-1.688,0-2.926,0-2.926,0c0-2.369,3.663-4.29,8.181-4.29
							C361.341,235.332,361.341,235.868,361.341,236.641"/>
						<path fill="#C3C5C6" d="M361.341,236.563c-0.104,0.057-0.336-0.008-0.479-0.012c-0.743-0.018-2.468,0.13-3.68,0.818
							c-1.581,0.897-1.386,1.875-1.228,2.252c-1.619,0-2.793,0-2.793,0c0-2.369,3.663-4.29,8.181-4.29
							C361.341,235.332,361.341,235.833,361.341,236.563"/>
						<path fill="#C0C2C2" d="M361.341,236.488c-3.604-0.087-6.077,1.319-5.512,3.134c-1.555,0-2.669,0-2.669,0
							c0-2.369,3.663-4.29,8.181-4.29C361.341,235.332,361.341,235.798,361.341,236.488"/>
						<path fill="#BCBEBF" d="M361.341,236.41c-0.107,0.059-0.35-0.009-0.5-0.013c-0.898-0.024-2.664,0.186-3.841,0.856
							c-0.81,0.462-1.692,1.248-1.292,2.368c-1.49,0-2.546,0-2.546,0c0-2.369,3.663-4.29,8.181-4.29
							C361.341,235.332,361.341,235.763,361.341,236.41"/>
						<path fill="#B9BBBC" d="M361.341,236.333c-0.096,0.051-0.309-0.008-0.44-0.012c-1.133-0.031-2.864,0.23-3.993,0.875
							c-1.694,0.967-1.491,2.019-1.325,2.426c-1.424,0-2.422,0-2.422,0c0-2.369,3.663-4.29,8.181-4.29
							C361.341,235.332,361.341,235.729,361.341,236.333"/>
						<path fill="#B5B7B8" d="M361.341,236.252c-0.113,0.061-0.365-0.01-0.521-0.013c-0.939-0.024-2.782,0.194-4.008,0.896
							c-1.224,0.7-1.679,1.537-1.354,2.486c-1.358,0-2.298,0-2.298,0c0-2.369,3.663-4.29,8.181-4.29
							C361.341,235.332,361.341,235.694,361.341,236.252"/>
						<path fill="#B1B4B5" d="M361.341,236.171c-0.116,0.063-0.373-0.01-0.532-0.015c-0.958-0.026-2.838,0.196-4.095,0.918
							c-1.785,1.024-1.563,2.123-1.385,2.547c-1.288,0-2.169,0-2.169,0c0-2.369,3.663-4.29,8.181-4.29
							C361.341,235.332,361.341,235.66,361.341,236.171"/>
						<path fill="#AEB0B1" d="M361.341,236.087c-0.118,0.063-0.38-0.009-0.543-0.013c-0.984-0.024-2.912,0.207-4.182,0.938
							c-1.286,0.74-1.764,1.618-1.418,2.61c-1.216,0-2.037,0-2.037,0c0-2.369,3.663-4.29,8.181-4.29
							C361.341,235.332,361.341,235.624,361.341,236.087"/>
						<path fill="#AAACAD" d="M361.341,236c-0.12,0.065-0.388-0.009-0.555-0.013c-1.213-0.029-3.123,0.297-4.273,0.961
							c-1.802,1.039-1.685,2.122-1.454,2.675c-1.139,0-1.897,0-1.897,0c0-2.369,3.663-4.29,8.181-4.29
							C361.341,235.332,361.341,235.587,361.341,236"/>
						<path fill="#A6A9AA" d="M361.341,235.911c-0.123,0.067-0.396-0.009-0.565-0.013c-1.241-0.029-3.193,0.306-4.367,0.983
							c-1.373,0.793-1.875,1.715-1.492,2.741c-1.06,0-1.756,0-1.756,0c0-2.369,3.663-4.29,8.181-4.29
							C361.341,235.332,361.341,235.551,361.341,235.911"/>
						<path fill="#A2A5A6" d="M361.341,235.82c-0.125,0.069-0.405-0.009-0.578-0.012c-1.269-0.028-3.264,0.315-4.461,1.007
							c-1.787,1.032-1.824,2.097-1.542,2.808c-0.972,0-1.6,0-1.6,0c0-2.369,3.663-4.29,8.181-4.29
							C361.341,235.332,361.341,235.515,361.341,235.82"/>
						<path fill="#9FA1A3" d="M361.341,235.729c-0.127,0.07-0.413-0.008-0.59-0.012c-1.299-0.026-3.337,0.327-4.555,1.029
							c-1.957,1.13-1.84,2.287-1.598,2.875c-0.879,0-1.438,0-1.438,0c0-2.369,3.663-4.29,8.181-4.29
							C361.341,235.332,361.341,235.479,361.341,235.729"/>
						<path fill="#9B9D9F" d="M361.341,235.637c-4.862-0.076-7.708,2.08-6.913,3.985c-0.779,0-1.268,0-1.268,0
							c0-2.369,3.663-4.29,8.181-4.29C361.341,235.332,361.341,235.443,361.341,235.637"/>
						<path fill="#979A9B" d="M361.341,235.547c-0.131,0.073-0.429-0.004-0.613-0.006c-1.381-0.014-3.53,0.384-4.736,1.077
							c-0.583,0.334-2.354,1.352-1.749,3.004c-0.671,0-1.082,0-1.082,0c0-2.369,3.663-4.29,8.181-4.29
							C361.341,235.332,361.341,235.409,361.341,235.547"/>
						<path fill="#949698" d="M361.341,235.464c-0.133,0.075-0.437-0.001-0.624-0.002c-0.864-0.003-3.101,0.119-5.214,1.323
							c-0.346,0.197-2.039,1.259-1.458,2.837c-0.553,0-0.884,0-0.884,0c0-2.369,3.663-4.29,8.181-4.29
							C361.341,235.332,361.341,235.379,361.341,235.464"/>
						<path fill="#909394" d="M361.341,235.395c-0.037,0.021-0.121-0.001-0.172-0.001c-1.229-0.014-3.614,0.143-5.75,1.346
							c-0.36,0.203-2.128,1.294-1.585,2.883c-0.425,0-0.673,0-0.673,0c0-2.369,3.663-4.29,8.181-4.29
							C361.341,235.332,361.341,235.354,361.341,235.395"/>
						<path fill="#8D8F91" d="M361.341,235.346c-0.134,0.078-0.447,0.006-0.638,0.008c-3.315,0.042-7.727,1.727-7.09,4.269
							c-0.289,0-0.453,0-0.453,0c0-2.369,3.663-4.29,8.181-4.29C361.341,235.332,361.341,235.336,361.341,235.346"/>
						<path fill="#898B8D" d="M354.278,237.457c-0.786,0.781-1.018,1.348-0.884,2.165c-0.151,0-0.233,0-0.233,0
							c0-0.874,0.499-1.688,1.354-2.366C354.444,237.316,354.346,237.396,354.278,237.457"/>
						<path fill="#86888A" d="M353.261,238.959c-0.058,0.281-0.08,0.386-0.052,0.663c-0.032,0-0.049,0-0.049,0
							c0-0.323,0.067-0.637,0.197-0.939C353.328,238.766,353.284,238.875,353.261,238.959"/>
					</g>
				</g>
			</g>
			<g enable-background="new    ">
				<g>
					<defs>
						<path id="SVGID_15_" d="M361.341,237.597c0-1.25,0-2.265,0-2.265h77.382c0,0,0,1.015,0,2.265H361.341z"/>
					</defs>
					<clipPath id="SVGID_16_">
						<use xlink:href="#SVGID_15_"  overflow="visible"/>
					</clipPath>
					<g clip-path="url(#SVGID_16_)" enable-background="new    ">
						<path fill="#D5D7D7" d="M438.723,237.597h-77.382c0-0.024,0-0.047,0-0.071h77.382
							C438.723,237.55,438.723,237.573,438.723,237.597"/>
						<path fill="#D9DADA" d="M438.723,237.526h-77.382c0-0.034,0-0.067,0-0.1h77.382
							C438.723,237.459,438.723,237.492,438.723,237.526"/>
						<path fill="#DFE0E0" d="M438.723,237.426h-77.382c0-0.103,0-0.204,0-0.302h77.382
							C438.723,237.222,438.723,237.323,438.723,237.426"/>
						<path fill="#D9DADA" d="M438.723,237.125h-77.382c0-0.047,0-0.094,0-0.139h77.382
							C438.723,237.031,438.723,237.078,438.723,237.125"/>
						<path fill="#D5D7D7" d="M438.723,236.985h-77.382c0-0.035,0-0.069,0-0.103h77.382
							C438.723,236.916,438.723,236.951,438.723,236.985"/>
						<path fill="#D2D3D3" d="M438.723,236.882h-77.382c0-0.028,0-0.056,0-0.083h77.382
							C438.723,236.827,438.723,236.854,438.723,236.882"/>
						<path fill="#CED0D0" d="M438.723,236.799h-77.382c0-0.028,0-0.055,0-0.081h77.382
							C438.723,236.745,438.723,236.771,438.723,236.799"/>
						<path fill="#CACCCD" d="M438.723,236.718h-77.382c0-0.026,0-0.052,0-0.078h77.382
							C438.723,236.666,438.723,236.692,438.723,236.718"/>
						<path fill="#C7C9C9" d="M438.723,236.641h-77.382c0-0.026,0-0.051,0-0.076h77.382
							C438.723,236.59,438.723,236.615,438.723,236.641"/>
						<path fill="#C3C5C6" d="M438.723,236.565h-77.382c0-0.026,0-0.051,0-0.077h77.382
							C438.723,236.513,438.723,236.539,438.723,236.565"/>
						<path fill="#C0C2C2" d="M438.723,236.488h-77.382c0-0.025,0-0.051,0-0.076h77.382
							C438.723,236.437,438.723,236.463,438.723,236.488"/>
						<path fill="#BCBEBF" d="M438.723,236.412h-77.382c0-0.026,0-0.053,0-0.079h77.382
							C438.723,236.359,438.723,236.385,438.723,236.412"/>
						<path fill="#B9BBBC" d="M438.723,236.333h-77.382c0-0.027,0-0.053,0-0.078h77.382
							C438.723,236.28,438.723,236.306,438.723,236.333"/>
						<path fill="#B5B7B8" d="M438.723,236.254h-77.382c0-0.028,0-0.056,0-0.083h77.382
							C438.723,236.198,438.723,236.226,438.723,236.254"/>
						<path fill="#B1B4B5" d="M438.723,236.171h-77.382c0-0.028,0-0.057,0-0.083h77.382
							C438.723,236.114,438.723,236.143,438.723,236.171"/>
						<path fill="#AEB0B1" d="M438.723,236.087h-77.382c0-0.029,0-0.058,0-0.085h77.382
							C438.723,236.029,438.723,236.058,438.723,236.087"/>
						<path fill="#AAACAD" d="M438.723,236.001h-77.382c0-0.031,0-0.061,0-0.091h77.382
							C438.723,235.94,438.723,235.97,438.723,236.001"/>
						<path fill="#A6A9AA" d="M438.723,235.911h-77.382c0-0.032,0-0.062,0-0.091h77.382
							C438.723,235.849,438.723,235.879,438.723,235.911"/>
						<path fill="#A2A5A6" d="M438.723,235.819h-77.382c0-0.032,0-0.063,0-0.092h77.382
							C438.723,235.757,438.723,235.788,438.723,235.819"/>
						<path fill="#9FA1A3" d="M438.723,235.728h-77.382c0-0.033,0-0.063,0-0.092h77.382
							C438.723,235.665,438.723,235.695,438.723,235.728"/>
						<path fill="#9B9D9F" d="M438.723,235.636h-77.382c0-0.033,0-0.062,0-0.089h77.382
							C438.723,235.574,438.723,235.604,438.723,235.636"/>
						<path fill="#979A9B" d="M438.723,235.547h-77.382c0-0.03,0-0.058,0-0.083h77.382
							C438.723,235.489,438.723,235.517,438.723,235.547"/>
						<path fill="#949698" d="M438.723,235.464h-77.382c0-0.027,0-0.051,0-0.07h77.382
							C438.723,235.414,438.723,235.438,438.723,235.464"/>
						<path fill="#909394" d="M438.723,235.395h-77.382c0-0.022,0-0.038,0-0.049h77.382
							C438.723,235.356,438.723,235.373,438.723,235.395"/>
						<path fill="#8D8F91" d="M438.723,235.346h-77.382c0-0.009,0-0.014,0-0.014h77.382
							C438.723,235.332,438.723,235.336,438.723,235.346"/>
					</g>
				</g>
			</g>
		</g>
	</g>
</g>
</svg>
