<?xml version="1.0" encoding="utf-8"?>
<!-- Generator: Adobe Illustrator 15.0.0, SVG Export Plug-In . SVG Version: 6.00 Build 0)  -->
<!DOCTYPE svg PUBLIC "-//W3C//DTD SVG 1.1//EN" "http://www.w3.org/Graphics/SVG/1.1/DTD/svg11.dtd">
<svg version="1.1" id="Layer_1" xmlns="http://www.w3.org/2000/svg" xmlns:xlink="http://www.w3.org/1999/xlink" x="0px" y="0px"
	 width="792px" height="612px" viewBox="0 0 792 612" enable-background="new 0 0 792 612" xml:space="preserve">
<g>
	<g>
		<g enable-background="new    ">
			<g>
				<path fill="#D3D4D4" d="M438.723,239.332c2.421,0.013,4.203,1.727,4.182,3.578c0,23.898,0,47.795,0,71.693
					c0.021,1.852-1.761,3.565-4.182,3.578c-25.794,0-51.588,0-77.382,0c-2.42-0.013-4.202-1.726-4.181-3.578
					c0-23.898,0-47.795,0-71.693c-0.021-1.852,1.761-3.565,4.181-3.578C387.135,239.332,412.929,239.332,438.723,239.332z"/>
			</g>
			<g enable-background="new    ">
				<defs>
					<path id="SVGID_1_" enable-background="new    " d="M438.723,239.332c0-2.208,0-4,0-4c4.519,0,8.182,3.393,8.182,7.578
						c0,0-1.791,0-4,0C442.926,241.059,441.144,239.345,438.723,239.332z"/>
				</defs>
				<clipPath id="SVGID_2_">
					<use xlink:href="#SVGID_1_"  overflow="visible"/>
				</clipPath>
				<g clip-path="url(#SVGID_2_)" enable-background="new    ">
					<path fill="#D9DADA" d="M438.723,239.332c0-2.208,0-4,0-4c4.519,0,8.182,3.393,8.182,7.578c0,0-1.791,0-4,0
						C442.926,241.059,441.144,239.345,438.723,239.332"/>
					<path fill="#D9DADA" d="M442.904,242.91c0.021-1.852-1.761-3.565-4.182-3.578c0-0.1,0-0.199,0-0.297
						c0.029-0.004,0.069-0.01,0.1-0.014c0.17-0.107,0.422-0.211,0.617-0.259c-0.245-0.075-0.479-0.179-0.717-0.271
						c0-1.805,0-3.159,0-3.159c4.519,0,8.182,3.393,8.182,7.578C446.904,242.91,445.113,242.91,442.904,242.91"/>
					<path fill="#D5D7D7" d="M442.904,242.91c0.021-1.852-1.761-3.565-4.182-3.578c0-0.041,0-0.082,0-0.122
						c0.105-0.005,0.247-0.01,0.353-0.015c0.778,0.06,1.069,0.122,2.076,0.446c-0.075-0.121-0.083-0.336-0.183-0.437
						c-0.001-0.001-0.227-0.179-0.708-0.455c-0.432-0.246-0.487-0.277-1.538-0.495c0-1.686,0-2.923,0-2.923
						c4.519,0,8.182,3.393,8.182,7.578C446.904,242.91,445.113,242.91,442.904,242.91"/>
					<path fill="#D2D3D3" d="M442.961,242.91c-0.058-0.056-0.006-0.188-0.008-0.268c-0.013-0.404-0.146-0.827-0.218-1.054
						c-0.24-0.76-0.24-0.76-0.723-1.679c-0.077-0.146-0.82-1.439-3.29-1.834c0-1.593,0-2.743,0-2.743
						c4.519,0,8.182,3.393,8.182,7.578C446.904,242.91,445.144,242.91,442.961,242.91"/>
					<path fill="#CED0D0" d="M443.145,242.91c-0.061-0.06-0.004-0.198-0.005-0.284c-0.008-1.955-1.172-4.216-4.417-4.702
						c0-1.515,0-2.593,0-2.593c4.519,0,8.182,3.393,8.182,7.578C446.904,242.91,445.241,242.91,443.145,242.91"/>
					<path fill="#CACCCD" d="M443.289,242.91c-0.063-0.063,0.001-0.207,0.002-0.296c0.012-1.943-1.178-4.375-4.568-4.833
						c0-1.438,0-2.449,0-2.449c4.519,0,8.182,3.393,8.182,7.578C446.904,242.91,445.317,242.91,443.289,242.91"/>
					<path fill="#C7C9C9" d="M443.406,242.91c-0.063-0.066,0.01-0.215,0.015-0.307c0.1-2.15-1.482-4.543-4.698-4.958
						c0-1.366,0-2.313,0-2.313c4.519,0,8.182,3.393,8.182,7.578C446.904,242.91,445.378,242.91,443.406,242.91"/>
					<path fill="#C3C5C6" d="M443.523,242.91c-0.065-0.069,0.014-0.222,0.02-0.317c0.109-1.717-1.103-4.616-4.82-5.083
						c0-1.293,0-2.178,0-2.178c4.519,0,8.182,3.393,8.182,7.578C446.904,242.91,445.438,242.91,443.523,242.91"/>
					<path fill="#C0C2C2" d="M443.624,242.91c-0.066-0.072,0.019-0.228,0.026-0.326c0.153-1.897-1.273-4.768-4.928-5.209
						c0-1.219,0-2.043,0-2.043c4.519,0,8.182,3.393,8.182,7.578C446.904,242.91,445.489,242.91,443.624,242.91"/>
					<path fill="#BCBEBF" d="M443.724,242.91c-0.067-0.075,0.022-0.234,0.032-0.334c0.147-1.523-0.889-4.832-5.033-5.336
						c0-1.144,0-1.907,0-1.907c4.519,0,8.182,3.393,8.182,7.578C446.904,242.91,445.539,242.91,443.724,242.91"/>
					<path fill="#B9BBBC" d="M443.822,242.91c-0.068-0.077,0.026-0.24,0.038-0.343c0.165-1.504-0.898-4.97-5.138-5.464
						c0-1.068,0-1.771,0-1.771c4.519,0,8.182,3.393,8.182,7.578C446.904,242.91,445.589,242.91,443.822,242.91"/>
					<path fill="#B5B7B8" d="M443.923,242.91c-0.071-0.079,0.028-0.246,0.04-0.352c0.178-1.537-0.896-5.081-5.24-5.599
						c0-0.987,0-1.628,0-1.628c4.519,0,8.182,3.393,8.182,7.578C446.904,242.91,445.639,242.91,443.923,242.91"/>
					<path fill="#B1B4B5" d="M444.021,242.91c-0.072-0.082,0.03-0.252,0.043-0.36c0.253-2.109-1.504-5.364-5.342-5.733
						c0-0.906,0-1.485,0-1.485c4.519,0,8.182,3.393,8.182,7.578C446.904,242.91,445.687,242.91,444.021,242.91"/>
					<path fill="#AEB0B1" d="M444.12,242.91c-0.073-0.084,0.036-0.258,0.052-0.369c0.249-1.799-1.093-5.37-5.449-5.875
						c0-0.819,0-1.334,0-1.334c4.519,0,8.182,3.393,8.182,7.578C446.904,242.91,445.734,242.91,444.12,242.91"/>
					<path fill="#AAACAD" d="M444.229,242.91c-0.075-0.086,0.036-0.265,0.052-0.378c0.25-1.841-1.123-5.498-5.558-6.02
						c0-0.729,0-1.181,0-1.181c4.519,0,8.182,3.393,8.182,7.578C446.904,242.91,445.787,242.91,444.229,242.91"/>
					<path fill="#A6A9AA" d="M444.336,242.91c-0.065-0.075,0.032-0.231,0.046-0.33c0.238-1.711-0.856-5.654-5.659-6.224
						c0-0.637,0-1.024,0-1.024c4.519,0,8.182,3.393,8.182,7.578C446.904,242.91,445.838,242.91,444.336,242.91"/>
					<path fill="#A2A5A6" d="M444.451,242.91c-0.079-0.091,0.043-0.278,0.061-0.397c0.315-2.048-1.35-5.911-5.789-6.317
						c0-0.541,0-0.864,0-0.864c4.519,0,8.182,3.393,8.182,7.578C446.904,242.91,445.892,242.91,444.451,242.91"/>
					<path fill="#9FA1A3" d="M444.574,242.91c-0.08-0.093,0.041-0.285,0.059-0.407c0.349-2.429-1.555-6.13-5.91-6.47
						c0-0.442,0-0.701,0-0.701c4.519,0,8.182,3.393,8.182,7.578C446.904,242.91,445.949,242.91,444.574,242.91"/>
					<path fill="#9B9D9F" d="M444.704,242.91c-0.082-0.097,0.049-0.292,0.069-0.417c0.184-1.091-0.209-2.942-1.298-4.223
						c-1.246-1.467-2.801-2.251-4.753-2.399c0-0.342,0-0.539,0-0.539c4.519,0,8.182,3.393,8.182,7.578
						C446.904,242.91,446.009,242.91,444.704,242.91"/>
					<path fill="#979A9B" d="M444.851,242.91c-0.076-0.088,0.041-0.268,0.06-0.383c0.401-2.598-1.524-6.411-6.188-6.814
						c0-0.244,0-0.381,0-0.381c4.519,0,8.182,3.393,8.182,7.578C446.904,242.91,446.075,242.91,444.851,242.91"/>
					<path fill="#949698" d="M445.012,242.91c-0.086-0.102,0.051-0.306,0.073-0.437c0.165-0.974-0.061-2.973-1.355-4.486
						c-1.841-2.149-3.979-2.333-5.007-2.421c0-0.152,0-0.234,0-0.234c4.519,0,8.182,3.393,8.182,7.578
						C446.904,242.91,446.147,242.91,445.012,242.91"/>
					<path fill="#909394" d="M445.188,242.91c-0.086-0.104,0.059-0.31,0.083-0.442c0.129-0.689,0.128-2.867-1.403-4.635
						c-1.868-2.158-4.165-2.32-5.146-2.39c0-0.073,0-0.111,0-0.111c4.519,0,8.182,3.393,8.182,7.578
						C446.904,242.91,446.226,242.91,445.188,242.91"/>
					<path fill="#8D8F91" d="M445.401,242.91c-0.093-0.112,0.063-0.333,0.09-0.476c0.005-0.025,0.43-2.6-1.48-4.761
						c-1.889-2.136-4.358-2.268-5.288-2.318c4.519-0.024,8.182,3.369,8.182,7.554C446.904,242.91,446.317,242.91,445.401,242.91"/>
					<path fill="#898B8D" d="M445.664,242.91c-0.09-0.108,0.061-0.324,0.086-0.462c0.456-2.47-1.142-6.42-6.017-7.059
						c4.041,0.461,7.171,3.653,7.171,7.521C446.904,242.91,446.429,242.91,445.664,242.91"/>
					<path fill="#86888A" d="M446.008,242.91c-0.018-0.021,0.012-0.063,0.017-0.09c0.502-2.638-0.713-5.11-3.17-6.452
						c2.423,1.316,4.05,3.753,4.05,6.542C446.904,242.91,446.568,242.91,446.008,242.91"/>
				</g>
			</g>
			<g enable-background="new    ">
				<defs>
					<path id="SVGID_3_" enable-background="new    " d="M442.904,242.91c2.209,0,4,0,4,0v71.693c0,0-1.791,0-4,0V242.91z"/>
				</defs>
				<clipPath id="SVGID_4_">
					<use xlink:href="#SVGID_3_"  overflow="visible"/>
				</clipPath>
				<g clip-path="url(#SVGID_4_)" enable-background="new    ">
					<path fill="#D5D7D7" d="M442.904,314.604V242.91c0.019,0,0.038,0,0.057,0v71.693
						C442.942,314.604,442.923,314.604,442.904,314.604"/>
					<path fill="#D2D3D3" d="M442.961,314.604V242.91c0.062,0,0.122,0,0.184,0v71.693
						C443.083,314.604,443.022,314.604,442.961,314.604"/>
					<path fill="#CED0D0" d="M443.145,314.604V242.91c0.05,0,0.099,0,0.148,0v71.693
						C443.243,314.604,443.194,314.604,443.145,314.604"/>
					<path fill="#CACCCD" d="M443.293,314.604V242.91c0.039,0,0.077,0,0.116,0v71.693
						C443.37,314.604,443.332,314.604,443.293,314.604"/>
					<path fill="#C7C9C9" d="M443.409,314.604V242.91c0.038,0,0.077,0,0.115,0v71.693
						C443.486,314.604,443.447,314.604,443.409,314.604"/>
					<path fill="#C3C5C6" d="M443.524,314.604V242.91c0.034,0,0.069,0,0.104,0v71.693
						C443.594,314.604,443.559,314.604,443.524,314.604"/>
					<path fill="#C0C2C2" d="M443.628,314.604V242.91c0.033,0,0.066,0,0.1,0v71.693
						C443.694,314.604,443.661,314.604,443.628,314.604"/>
					<path fill="#BCBEBF" d="M443.728,314.604V242.91c0.033,0,0.065,0,0.099,0v71.693
						C443.793,314.604,443.761,314.604,443.728,314.604"/>
					<path fill="#B9BBBC" d="M443.826,314.604V242.91c0.033,0,0.066,0,0.1,0v71.693
						C443.893,314.604,443.859,314.604,443.826,314.604"/>
					<path fill="#B5B7B8" d="M443.926,314.604V242.91c0.033,0,0.067,0,0.101,0v71.693
						C443.993,314.604,443.959,314.604,443.926,314.604"/>
					<path fill="#B1B4B5" d="M444.026,314.604V242.91c0.033,0,0.066,0,0.099,0v71.693
						C444.093,314.604,444.06,314.604,444.026,314.604"/>
					<path fill="#AEB0B1" d="M444.125,314.604V242.91c0.036,0,0.071,0,0.106,0v71.693
						C444.196,314.604,444.161,314.604,444.125,314.604"/>
					<path fill="#AAACAD" d="M444.231,314.604V242.91c0.037,0,0.074,0,0.11,0v71.693
						C444.306,314.604,444.269,314.604,444.231,314.604"/>
					<path fill="#A6A9AA" d="M444.342,314.604V242.91c0.037,0,0.073,0,0.109,0v71.693
						C444.415,314.604,444.379,314.604,444.342,314.604"/>
					<path fill="#A2A5A6" d="M444.451,314.604V242.91c0.043,0,0.086,0,0.128,0v71.693
						C444.537,314.604,444.494,314.604,444.451,314.604"/>
					<path fill="#9FA1A3" d="M444.579,314.604V242.91c0.043,0,0.086,0,0.128,0v71.693
						C444.665,314.604,444.622,314.604,444.579,314.604"/>
					<path fill="#9B9D9F" d="M444.707,314.604V242.91c0.05,0,0.1,0,0.148,0v71.693C444.807,314.604,444.757,314.604,444.707,314.604
						"/>
					<path fill="#979A9B" d="M444.855,314.604V242.91c0.052,0,0.103,0,0.152,0v71.693
						C444.958,314.604,444.907,314.604,444.855,314.604"/>
					<path fill="#949698" d="M445.008,314.604V242.91c0.064,0,0.127,0,0.188,0v71.693
						C445.135,314.604,445.072,314.604,445.008,314.604"/>
					<path fill="#909394" d="M445.196,314.604V242.91c0.073,0,0.145,0,0.214,0v71.693
						C445.341,314.604,445.27,314.604,445.196,314.604"/>
					<path fill="#8D8F91" d="M445.41,314.604V242.91c0.09,0,0.177,0,0.26,0v71.693C445.587,314.604,445.5,314.604,445.41,314.604"/>
					<path fill="#898B8D" d="M445.67,314.604V242.91c0.122,0,0.237,0,0.344,0v71.693
						C445.907,314.604,445.792,314.604,445.67,314.604"/>
					<path fill="#86888A" d="M446.014,314.604V242.91c0.557,0,0.891,0,0.891,0v71.693
						C446.904,314.604,446.57,314.604,446.014,314.604"/>
				</g>
			</g>
			<g enable-background="new    ">
				<defs>
					<path id="SVGID_5_" enable-background="new    " d="M442.904,314.604c2.209,0,4,0,4,0c0,4.186-3.663,7.578-8.182,7.578
						c0,0,0-1.791,0-4C441.144,318.169,442.926,316.455,442.904,314.604z"/>
				</defs>
				<clipPath id="SVGID_6_">
					<use xlink:href="#SVGID_5_"  overflow="visible"/>
				</clipPath>
				<g clip-path="url(#SVGID_6_)" enable-background="new    ">
					<path fill="#D2D3D3" d="M442.904,314.604c2.209,0,4,0,4,0c0,4.186-3.663,7.578-8.182,7.578c0,0,0-1.791,0-4
						C441.144,318.169,442.926,316.455,442.904,314.604"/>
					<path fill="#D2D3D3" d="M438.723,318.214c0.071-0.074,0.24-0.01,0.344-0.015c1.013-0.045,3.687-0.777,3.896-3.596
						c2.182,0,3.941,0,3.941,0c0,4.186-3.663,7.578-8.182,7.578C438.723,322.182,438.723,320.408,438.723,318.214"/>
					<path fill="#CED0D0" d="M438.723,318.321c0.072-0.077,0.246-0.016,0.352-0.021c0.7-0.042,1.81-0.337,2.633-1.028
						c1.105-0.928,1.277-1.813,1.444-2.668c2.094,0,3.753,0,3.753,0c0,4.186-3.663,7.578-8.182,7.578
						C438.723,322.182,438.723,320.465,438.723,318.321"/>
					<path fill="#CACCCD" d="M438.723,318.427c0.073-0.079,0.251-0.019,0.358-0.027c1.066-0.08,3.612-0.612,4.214-3.796
						c2.025,0,3.609,0,3.609,0c0,4.186-3.663,7.578-8.182,7.578C438.723,322.182,438.723,320.521,438.723,318.427"/>
					<path fill="#C7C9C9" d="M438.723,318.525c0.075-0.081,0.256-0.02,0.366-0.028c1.092-0.085,3.699-0.636,4.324-3.894
						c1.969,0,3.491,0,3.491,0c0,4.186-3.663,7.578-8.182,7.578C438.723,322.182,438.723,320.573,438.723,318.525"/>
					<path fill="#C3C5C6" d="M438.723,318.611c0.076-0.082,0.261-0.019,0.372-0.026c1.955-0.142,4.105-1.555,4.436-3.981
						c1.911,0,3.374,0,3.374,0c0,4.186-3.663,7.578-8.182,7.578C438.723,322.182,438.723,320.618,438.723,318.611"/>
					<path fill="#C0C2C2" d="M438.723,318.697c0.078-0.083,0.266-0.018,0.379-0.025c0.158-0.011,3.882-0.303,4.529-4.068
						c1.862,0,3.273,0,3.273,0c0,4.186-3.663,7.578-8.182,7.578C438.723,322.182,438.723,320.663,438.723,318.697"/>
					<path fill="#BCBEBF" d="M438.723,318.783c0.079-0.085,0.27-0.018,0.386-0.024c1.369-0.085,4.099-1.063,4.622-4.155
						c1.813,0,3.174,0,3.174,0c0,4.186-3.663,7.578-8.182,7.578C438.723,322.182,438.723,320.706,438.723,318.783"/>
					<path fill="#B9BBBC" d="M438.723,318.867c3.614-0.209,4.911-2.778,5.107-4.264c1.763,0,3.074,0,3.074,0
						c0,4.186-3.663,7.578-8.182,7.578C438.723,322.182,438.723,320.749,438.723,318.867"/>
					<path fill="#B5B7B8" d="M438.723,318.95c0.082-0.087,0.278-0.015,0.398-0.021c1.148-0.063,4.252-0.96,4.809-4.325
						c1.712,0,2.975,0,2.975,0c0,4.186-3.663,7.578-8.182,7.578C438.723,322.182,438.723,320.791,438.723,318.95"/>
					<path fill="#B1B4B5" d="M438.723,319.033c0.084-0.088,0.283-0.015,0.404-0.021c1.634-0.083,4.408-1.353,4.901-4.409
						c1.662,0,2.876,0,2.876,0c0,4.186-3.663,7.578-8.182,7.578C438.723,322.182,438.723,320.833,438.723,319.033"/>
					<path fill="#AEB0B1" d="M438.723,319.117c0.085-0.09,0.287-0.014,0.411-0.02c1.822-0.089,4.577-1.542,4.994-4.494
						c1.61,0,2.776,0,2.776,0c0,4.186-3.663,7.578-8.182,7.578C438.723,322.182,438.723,320.875,438.723,319.117"/>
					<path fill="#AAACAD" d="M438.723,319.209c0.087-0.091,0.292-0.014,0.418-0.02c1.133-0.053,4.5-1.009,5.096-4.586
						c1.554,0,2.668,0,2.668,0c0,4.186-3.663,7.578-8.182,7.578C438.723,322.182,438.723,320.92,438.723,319.209"/>
					<path fill="#A6A9AA" d="M438.723,319.299c0.088-0.092,0.297-0.013,0.425-0.019c1.46-0.065,4.651-1.294,5.195-4.677
						c1.498,0,2.562,0,2.562,0c0,4.186-3.663,7.578-8.182,7.578C438.723,322.182,438.723,320.964,438.723,319.299"/>
					<path fill="#A2A5A6" d="M438.723,319.389c0.09-0.093,0.302-0.013,0.432-0.018c1.165-0.05,4.642-1.032,5.304-4.768
						c1.438,0,2.446,0,2.446,0c0,4.186-3.663,7.578-8.182,7.578C438.723,322.182,438.723,321.008,438.723,319.389"/>
					<path fill="#9FA1A3" d="M438.723,319.497c0.091-0.095,0.308-0.013,0.439-0.019c1.51-0.064,4.821-1.342,5.419-4.875
						c1.371,0,2.323,0,2.323,0c0,4.186-3.663,7.578-8.182,7.578C438.723,322.182,438.723,321.06,438.723,319.497"/>
					<path fill="#9B9D9F" d="M438.723,319.604c0.093-0.097,0.313-0.014,0.447-0.02c1.215-0.051,4.842-1.077,5.541-4.981
						c1.301,0,2.193,0,2.193,0c0,4.186-3.663,7.578-8.182,7.578C438.723,322.182,438.723,321.111,438.723,319.604"/>
					<path fill="#979A9B" d="M438.723,319.722c0.095-0.099,0.319-0.014,0.456-0.021c1.57-0.067,5.024-1.403,5.678-5.098
						c1.222,0,2.048,0,2.048,0c0,4.186-3.663,7.578-8.182,7.578C438.723,322.182,438.723,321.166,438.723,319.722"/>
					<path fill="#949698" d="M438.723,319.855c0.097-0.102,0.326-0.015,0.466-0.021c1.257-0.055,5.025-1.133,5.829-5.231
						c1.133,0,1.887,0,1.887,0c0,4.186-3.663,7.578-8.182,7.578C438.723,322.182,438.723,321.229,438.723,319.855"/>
					<path fill="#909394" d="M438.723,320.002c0.099-0.104,0.334-0.015,0.477-0.021c1.656-0.076,5.3-1.49,5.996-5.377
						c1.033,0,1.709,0,1.709,0c0,4.186-3.663,7.578-8.182,7.578C438.723,322.182,438.723,321.296,438.723,320.002"/>
					<path fill="#8D8F91" d="M438.723,320.174c0.102-0.106,0.343-0.016,0.489-0.022c1.7-0.078,5.45-1.536,6.193-5.548
						c0.914,0,1.499,0,1.499,0c0,4.186-3.663,7.578-8.182,7.578C438.723,322.182,438.723,321.374,438.723,320.174"/>
					<path fill="#898B8D" d="M438.723,320.394c0.104-0.109,0.354-0.017,0.506-0.024c1.75-0.084,5.626-1.605,6.44-5.766
						c0.762,0,1.235,0,1.235,0c0,4.186-3.663,7.578-8.182,7.578C438.723,322.182,438.723,321.472,438.723,320.394"/>
					<path fill="#86888A" d="M438.723,320.684c0.109-0.114,0.369-0.018,0.527-0.025c2.801-0.139,6.287-2.757,6.761-6.055
						c0.559,0,0.894,0,0.894,0c0,4.186-3.663,7.578-8.182,7.578C438.723,322.182,438.723,321.597,438.723,320.684"/>
				</g>
			</g>
			<g enable-background="new    ">
				<defs>
					<path id="SVGID_7_" enable-background="new    " d="M438.723,318.182c0,2.209,0,4,0,4h-77.382c0,0,0-1.791,0-4H438.723z"/>
				</defs>
				<clipPath id="SVGID_8_">
					<use xlink:href="#SVGID_7_"  overflow="visible"/>
				</clipPath>
				<g clip-path="url(#SVGID_8_)" enable-background="new    ">
					<path fill="#D5D7D7" d="M361.341,318.182h77.382c0,0.011,0,0.021,0,0.032h-77.382
						C361.341,318.203,361.341,318.192,361.341,318.182"/>
					<path fill="#D2D3D3" d="M361.341,318.214h77.382c0,0.036,0,0.071,0,0.106h-77.382
						C361.341,318.285,361.341,318.25,361.341,318.214"/>
					<path fill="#CED0D0" d="M361.341,318.32h77.382c0,0.035,0,0.07,0,0.105h-77.382
						C361.341,318.391,361.341,318.355,361.341,318.32"/>
					<path fill="#CACCCD" d="M361.341,318.426h77.382c0,0.033,0,0.067,0,0.101h-77.382
						C361.341,318.493,361.341,318.459,361.341,318.426"/>
					<path fill="#C7C9C9" d="M361.341,318.526h77.382c0,0.029,0,0.058,0,0.086h-77.382
						C361.341,318.584,361.341,318.556,361.341,318.526"/>
					<path fill="#C3C5C6" d="M361.341,318.612h77.382c0,0.028,0,0.058,0,0.086h-77.382
						C361.341,318.67,361.341,318.641,361.341,318.612"/>
					<path fill="#C0C2C2" d="M361.341,318.698h77.382c0,0.028,0,0.057,0,0.085h-77.382
						C361.341,318.755,361.341,318.727,361.341,318.698"/>
					<path fill="#BCBEBF" d="M361.341,318.783h77.382c0,0.027,0,0.056,0,0.084h-77.382
						C361.341,318.839,361.341,318.811,361.341,318.783"/>
					<path fill="#B9BBBC" d="M361.341,318.867h77.382c0,0.028,0,0.057,0,0.084h-77.382
						C361.341,318.924,361.341,318.896,361.341,318.867"/>
					<path fill="#B5B7B8" d="M361.341,318.951h77.382c0,0.028,0,0.056,0,0.084h-77.382
						C361.341,319.007,361.341,318.979,361.341,318.951"/>
					<path fill="#B1B4B5" d="M361.341,319.035h77.382c0,0.027,0,0.055,0,0.083h-77.382
						C361.341,319.09,361.341,319.063,361.341,319.035"/>
					<path fill="#AEB0B1" d="M361.341,319.118h77.382c0,0.03,0,0.06,0,0.09h-77.382
						C361.341,319.178,361.341,319.148,361.341,319.118"/>
					<path fill="#AAACAD" d="M361.341,319.208h77.382c0,0.031,0,0.063,0,0.094h-77.382
						C361.341,319.271,361.341,319.239,361.341,319.208"/>
					<path fill="#A6A9AA" d="M361.341,319.302h77.382c0,0.031,0,0.062,0,0.093h-77.382
						C361.341,319.363,361.341,319.333,361.341,319.302"/>
					<path fill="#A2A5A6" d="M361.341,319.395h77.382c0,0.033,0,0.067,0,0.101h-77.382
						C361.341,319.462,361.341,319.428,361.341,319.395"/>
					<path fill="#9FA1A3" d="M361.341,319.495h77.382c0,0.038,0,0.075,0,0.113h-77.382
						C361.341,319.57,361.341,319.533,361.341,319.495"/>
					<path fill="#9B9D9F" d="M361.341,319.608h77.382c0,0.037,0,0.074,0,0.11h-77.382
						C361.341,319.683,361.341,319.646,361.341,319.608"/>
					<path fill="#979A9B" d="M361.341,319.719h77.382c0,0.047,0,0.094,0,0.139h-77.382
						C361.341,319.813,361.341,319.766,361.341,319.719"/>
					<path fill="#949698" d="M361.341,319.857h77.382c0,0.048,0,0.096,0,0.142h-77.382
						C361.341,319.952,361.341,319.905,361.341,319.857"/>
					<path fill="#909394" d="M361.341,319.999h77.382c0,0.062,0,0.123,0,0.183h-77.382
						C361.341,320.122,361.341,320.061,361.341,319.999"/>
					<path fill="#8D8F91" d="M361.341,320.182h77.382c0,0.074,0,0.146,0,0.217h-77.382
						C361.341,320.327,361.341,320.256,361.341,320.182"/>
					<path fill="#898B8D" d="M361.341,320.398h77.382c0,0.103,0,0.202,0,0.298h-77.382
						C361.341,320.601,361.341,320.501,361.341,320.398"/>
					<path fill="#86888A" d="M361.341,320.696h77.382c0,0.906,0,1.485,0,1.485h-77.382
						C361.341,322.182,361.341,321.603,361.341,320.696"/>
				</g>
			</g>
			<g enable-background="new    ">
				<defs>
					<path id="SVGID_9_" enable-background="new    " d="M361.341,318.182c0,2.209,0,4,0,4c-4.518,0-8.181-3.393-8.181-7.578
						c0,0,1.792,0,4,0C357.139,316.456,358.921,318.169,361.341,318.182z"/>
				</defs>
				<clipPath id="SVGID_10_">
					<use xlink:href="#SVGID_9_"  overflow="visible"/>
				</clipPath>
				<g clip-path="url(#SVGID_10_)" enable-background="new    ">
					<path fill="#D2D3D3" d="M361.341,318.182c0,2.209,0,4,0,4c-4.518,0-8.181-3.393-8.181-7.578c0,0,1.792,0,4,0
						C357.139,316.456,358.921,318.169,361.341,318.182"/>
					<path fill="#D2D3D3" d="M356.558,314.604c0.044,0.023,0.233,0.357,0.775,1.321c0.813,1.445,2.161,2.216,4.008,2.29
						c0,2.193,0,3.967,0,3.967c-4.518,0-8.181-3.393-8.181-7.578C353.16,314.604,354.635,314.604,356.558,314.604"/>
					<path fill="#CED0D0" d="M356.373,314.604c0.083,0.059,0.081,0.222,0.115,0.317c0.268,0.759,1.411,3.247,4.854,3.4
						c0,2.145,0,3.86,0,3.86c-4.518,0-8.181-3.393-8.181-7.578C353.16,314.604,354.541,314.604,356.373,314.604"/>
					<path fill="#CACCCD" d="M356.208,314.604c0.034,0.025,0.025,0.096,0.036,0.137c0.096,0.362,0.521,1.628,1.96,2.701
						c1.198,0.893,2.507,0.956,3.136,0.986c0,2.094,0,3.754,0,3.754c-4.518,0-8.181-3.393-8.181-7.578
						C353.16,314.604,354.459,314.604,356.208,314.604"/>
					<path fill="#C7C9C9" d="M356.074,314.604c0.086,0.064,0.07,0.242,0.1,0.346c0.188,0.655,0.679,1.635,1.951,2.582
						c1.216,0.905,2.617,0.968,3.216,0.995c0,2.048,0,3.655,0,3.655c-4.518,0-8.181-3.393-8.181-7.578
						C353.16,314.604,354.393,314.604,356.074,314.604"/>
					<path fill="#C3C5C6" d="M355.943,314.604c0.011,0.009,0.007,0.031,0.01,0.045c0.285,1.261,1.176,2.297,1.916,2.846
						c1.414,1.051,2.804,1.097,3.472,1.118c0,2.007,0,3.569,0,3.569c-4.518,0-8.181-3.393-8.181-7.578
						C353.16,314.604,354.329,314.604,355.943,314.604"/>
					<path fill="#C0C2C2" d="M355.819,314.604c0.09,0.069,0.067,0.257,0.096,0.367c0.194,0.74,0.87,1.846,1.786,2.525
						c1.122,0.832,2.142,1.169,3.64,1.202c0,1.965,0,3.483,0,3.483c-4.518,0-8.181-3.393-8.181-7.578
						C353.16,314.604,354.27,314.604,355.819,314.604"/>
					<path fill="#BCBEBF" d="M355.697,314.604c0.092,0.071,0.067,0.264,0.096,0.377c0.148,0.586,0.778,1.807,1.833,2.589
						c1.413,1.046,2.62,1.202,3.715,1.215c0,1.923,0,3.397,0,3.397c-4.518,0-8.181-3.393-8.181-7.578
						C353.16,314.604,354.212,314.604,355.697,314.604"/>
					<path fill="#B9BBBC" d="M355.573,314.604c0.095,0.073,0.069,0.271,0.099,0.387c0.16,0.625,0.792,1.847,1.879,2.65
						c1.45,1.072,2.729,1.223,3.79,1.228c0,1.882,0,3.313,0,3.313c-4.518,0-8.181-3.393-8.181-7.578
						C353.16,314.604,354.153,314.604,355.573,314.604"/>
					<path fill="#B5B7B8" d="M355.449,314.604c0.097,0.076,0.068,0.278,0.098,0.397c0.149,0.607,0.806,1.882,1.93,2.711
						c1.492,1.101,2.849,1.241,3.864,1.239c0,1.841,0,3.23,0,3.23c-4.518,0-8.181-3.393-8.181-7.578
						C353.16,314.604,354.096,314.604,355.449,314.604"/>
					<path fill="#B1B4B5" d="M355.32,314.604c0.091,0.07,0.066,0.26,0.094,0.371c0.145,0.57,0.746,1.893,1.99,2.808
						c1.191,0.877,2.405,1.263,3.937,1.252c0,1.8,0,3.147,0,3.147c-4.518,0-8.181-3.393-8.181-7.578
						C353.16,314.604,354.037,314.604,355.32,314.604"/>
					<path fill="#AEB0B1" d="M355.189,314.604c0.102,0.079,0.072,0.292,0.102,0.417c0.104,0.424,0.701,1.854,2.037,2.835
						c1.589,1.166,3.051,1.279,4.012,1.263c0,1.757,0,3.063,0,3.063c-4.518,0-8.181-3.393-8.181-7.578
						C353.16,314.604,353.978,314.604,355.189,314.604"/>
					<path fill="#AAACAD" d="M355.051,314.604c0.101,0.078,0.074,0.289,0.106,0.412c0.152,0.59,0.785,1.958,2.093,2.916
						c1.806,1.322,3.525,1.289,4.091,1.278c0,1.711,0,2.972,0,2.972c-4.518,0-8.181-3.393-8.181-7.578
						C353.16,314.604,353.916,314.604,355.051,314.604"/>
					<path fill="#A6A9AA" d="M354.909,314.604c0.106,0.083,0.074,0.305,0.106,0.435c0.004,0.017,0.459,1.729,2.157,2.968
						c0.455,0.332,1.84,1.344,4.169,1.295c0,1.664,0,2.881,0,2.881c-4.518,0-8.181-3.393-8.181-7.578
						C353.16,314.604,353.854,314.604,354.909,314.604"/>
					<path fill="#A2A5A6" d="M354.754,314.604c0.107,0.084,0.079,0.308,0.112,0.439c0.155,0.609,0.819,2.031,2.218,3.048
						c1.901,1.381,3.674,1.319,4.256,1.3c0,1.618,0,2.791,0,2.791c-4.518,0-8.181-3.393-8.181-7.578
						C353.16,314.604,353.786,314.604,354.754,314.604"/>
					<path fill="#9FA1A3" d="M354.593,314.604c0.072,0.056,0.051,0.206,0.073,0.294c0.08,0.323,0.568,2,2.331,3.278
						c1.282,0.93,2.744,1.375,4.345,1.323c0,1.562,0,2.683,0,2.683c-4.518,0-8.181-3.393-8.181-7.578
						C353.16,314.604,353.717,314.604,354.593,314.604"/>
					<path fill="#9B9D9F" d="M354.423,314.604c0.016,0.013,0.01,0.046,0.015,0.065c0.446,1.968,1.869,3.175,2.459,3.603
						c1.952,1.41,3.828,1.353,4.444,1.334c0,1.506,0,2.576,0,2.576c-4.518,0-8.181-3.393-8.181-7.578
						C353.16,314.604,353.646,314.604,354.423,314.604"/>
					<path fill="#979A9B" d="M354.238,314.604c0.113,0.089,0.079,0.327,0.113,0.467c0.018,0.076,0.471,1.88,2.443,3.301
						c0.927,0.668,2.468,1.444,4.547,1.352c0,1.444,0,2.459,0,2.459c-4.518,0-8.181-3.393-8.181-7.578
						C353.16,314.604,353.57,314.604,354.238,314.604"/>
					<path fill="#949698" d="M354.042,314.604c0.114,0.091,0.078,0.332,0.111,0.474c0.019,0.079,0.473,1.937,2.521,3.41
						c1.354,0.975,2.925,1.436,4.668,1.369c0,1.372,0,2.325,0,2.325c-4.518,0-8.181-3.393-8.181-7.578
						C353.16,314.604,353.49,314.604,354.042,314.604"/>
					<path fill="#909394" d="M353.83,314.604c0.042,0.033,0.025,0.122,0.036,0.174c0.174,0.841,0.752,2.457,2.672,3.838
						c0.639,0.459,2.385,1.514,4.803,1.389c0,1.293,0,2.178,0,2.178c-4.518,0-8.181-3.393-8.181-7.578
						C353.16,314.604,353.407,314.604,353.83,314.604"/>
					<path fill="#8D8F91" d="M353.611,314.604c0.114,0.093,0.07,0.336,0.1,0.479c0.101,0.485,0.591,2.183,2.666,3.678
						c0.806,0.581,2.523,1.538,4.964,1.414c0,1.199,0,2.007,0,2.007c-4.518,0-8.181-3.393-8.181-7.578
						C353.16,314.604,353.323,314.604,353.611,314.604"/>
					<path fill="#898B8D" d="M353.394,314.604c0.091,0.078,0.044,0.276,0.063,0.395c0.107,0.668,0.588,2.388,2.724,3.944
						c0.812,0.592,2.562,1.567,5.159,1.453c0,1.076,0,1.786,0,1.786c-4.518,0-8.181-3.393-8.181-7.578
						C353.16,314.604,353.243,314.604,353.394,314.604"/>
					<path fill="#86888A" d="M353.209,314.604c0.113,0.102,0.036,0.352,0.051,0.503c0.068,0.676,0.464,2.425,2.658,4.065
						c0.391,0.292,2.487,1.738,5.423,1.514c0,0.912,0,1.496,0,1.496c-4.518,0-8.181-3.393-8.181-7.578
						C353.16,314.604,353.177,314.604,353.209,314.604"/>
				</g>
			</g>
			<g enable-background="new    ">
				<defs>
					<path id="SVGID_11_" enable-background="new    " d="M357.16,314.604c-2.208,0-4,0-4,0V242.91c0,0,1.792,0,4,0V314.604z"/>
				</defs>
				<clipPath id="SVGID_12_">
					<use xlink:href="#SVGID_11_"  overflow="visible"/>
				</clipPath>
				<g clip-path="url(#SVGID_12_)" enable-background="new    ">
					<path fill="#D5D7D7" d="M357.16,242.91v71.693c-0.195,0-0.387,0-0.575,0V242.91C356.773,242.91,356.965,242.91,357.16,242.91"
						/>
					<path fill="#D2D3D3" d="M356.585,242.91v71.693c-0.069,0-0.137,0-0.205,0V242.91C356.448,242.91,356.516,242.91,356.585,242.91
						"/>
					<path fill="#CED0D0" d="M356.38,242.91v71.693c-0.056,0-0.111,0-0.166,0V242.91C356.269,242.91,356.324,242.91,356.38,242.91"
						/>
					<path fill="#CACCCD" d="M356.214,242.91v71.693c-0.045,0-0.09,0-0.135,0V242.91C356.124,242.91,356.169,242.91,356.214,242.91"
						/>
					<path fill="#C7C9C9" d="M356.08,242.91v71.693c-0.043,0-0.087,0-0.13,0V242.91C355.993,242.91,356.036,242.91,356.08,242.91"/>
					<path fill="#C3C5C6" d="M355.95,242.91v71.693c-0.042,0-0.084,0-0.126,0V242.91C355.865,242.91,355.907,242.91,355.95,242.91"
						/>
					<path fill="#C0C2C2" d="M355.824,242.91v71.693c-0.041,0-0.082,0-0.123,0V242.91C355.742,242.91,355.783,242.91,355.824,242.91
						"/>
					<path fill="#BCBEBF" d="M355.701,242.91v71.693c-0.041,0-0.082,0-0.123,0V242.91C355.619,242.91,355.66,242.91,355.701,242.91"
						/>
					<path fill="#B9BBBC" d="M355.579,242.91v71.693c-0.042,0-0.085,0-0.126,0V242.91C355.494,242.91,355.536,242.91,355.579,242.91
						"/>
					<path fill="#B5B7B8" d="M355.452,242.91v71.693c-0.042,0-0.083,0-0.125,0V242.91C355.369,242.91,355.41,242.91,355.452,242.91"
						/>
					<path fill="#B1B4B5" d="M355.328,242.91v71.693c-0.046,0-0.091,0-0.136,0V242.91C355.236,242.91,355.282,242.91,355.328,242.91
						"/>
					<path fill="#AEB0B1" d="M355.191,242.91v71.693c-0.045,0-0.089,0-0.133,0V242.91C355.102,242.91,355.146,242.91,355.191,242.91
						"/>
					<path fill="#AAACAD" d="M355.058,242.91v71.693c-0.05,0-0.1,0-0.149,0V242.91C354.958,242.91,355.008,242.91,355.058,242.91"/>
					<path fill="#A6A9AA" d="M354.909,242.91v71.693c-0.051,0-0.101,0-0.15,0V242.91C354.808,242.91,354.858,242.91,354.909,242.91"
						/>
					<path fill="#A2A5A6" d="M354.759,242.91v71.693c-0.055,0-0.109,0-0.162,0V242.91C354.649,242.91,354.704,242.91,354.759,242.91
						"/>
					<path fill="#9FA1A3" d="M354.597,242.91v71.693c-0.06,0-0.118,0-0.175,0V242.91C354.479,242.91,354.537,242.91,354.597,242.91"
						/>
					<path fill="#9B9D9F" d="M354.422,242.91v71.693c-0.063,0-0.125,0-0.185,0V242.91C354.297,242.91,354.358,242.91,354.422,242.91
						"/>
					<path fill="#979A9B" d="M354.237,242.91v71.693c-0.069,0-0.135,0-0.197,0V242.91C354.103,242.91,354.168,242.91,354.237,242.91
						"/>
					<path fill="#949698" d="M354.04,242.91v71.693c-0.074,0-0.144,0-0.21,0V242.91C353.896,242.91,353.966,242.91,354.04,242.91"/>
					<path fill="#909394" d="M353.83,242.91v71.693c-0.078,0-0.15,0-0.216,0V242.91C353.68,242.91,353.752,242.91,353.83,242.91"/>
					<path fill="#8D8F91" d="M353.614,242.91v71.693c-0.084,0-0.158,0-0.219,0V242.91C353.456,242.91,353.53,242.91,353.614,242.91"
						/>
					<path fill="#898B8D" d="M353.395,242.91v71.693c-0.083,0-0.146,0-0.186,0V242.91C353.249,242.91,353.311,242.91,353.395,242.91
						"/>
					<path fill="#86888A" d="M353.209,242.91v71.693c-0.032,0-0.049,0-0.049,0V242.91C353.16,242.91,353.177,242.91,353.209,242.91"
						/>
				</g>
			</g>
			<g enable-background="new    ">
				<defs>
					<path id="SVGID_13_" enable-background="new    " d="M357.16,242.91c-2.208,0-4,0-4,0c0-4.185,3.663-7.578,8.181-7.578
						c0,0,0,1.792,0,4C358.921,239.345,357.139,241.059,357.16,242.91z"/>
				</defs>
				<clipPath id="SVGID_14_">
					<use xlink:href="#SVGID_13_"  overflow="visible"/>
				</clipPath>
				<g clip-path="url(#SVGID_14_)" enable-background="new    ">
					<path fill="#D9DADA" d="M357.16,242.91c-2.208,0-4,0-4,0c0-4.185,3.663-7.578,8.181-7.578c0,0,0,1.792,0,4
						C358.921,239.345,357.139,241.059,357.16,242.91"/>
					<path fill="#D9DADA" d="M361.341,238.483c-0.154,0.158-0.515,0-0.734-0.02c-0.024-0.002-2.424-0.156-3.38,2.292
						c0.73-0.383,1.327-0.982,2.096-1.303c1.132-0.472,1.645-0.439,2.019-0.415c0,0.098,0,0.196,0,0.295
						c-2.42,0.013-4.202,1.727-4.181,3.578c-2.208,0-4,0-4,0c0-4.185,3.663-7.578,8.181-7.578
						C361.341,235.332,361.341,236.682,361.341,238.483"/>
					<path fill="#D5D7D7" d="M361.341,238.25c-0.09,0.089-0.296-0.003-0.423-0.005c-1.58-0.02-2.533,0.613-2.961,0.991
						c-0.715,0.633-1.006,1.252-1.116,1.565c-0.238,0.676-0.201,0.753,0.089,1.355c0.477-0.883,1.593-2.951,4.411-2.946
						c0,0.041,0,0.081,0,0.122c-2.42,0.013-4.202,1.727-4.181,3.578c-2.208,0-4,0-4,0c0-4.185,3.663-7.578,8.181-7.578
						C361.341,235.332,361.341,236.567,361.341,238.25"/>
					<path fill="#D2D3D3" d="M361.341,238.072c-3.692-0.081-5.343,2.449-4.756,4.838c-1.936,0-3.424,0-3.424,0
						c0-4.185,3.663-7.578,8.181-7.578C361.341,235.332,361.341,236.48,361.341,238.072"/>
					<path fill="#CED0D0" d="M361.341,237.922c-0.097,0.094-0.314-0.011-0.449-0.015c-1.013-0.034-2.467,0.366-3.431,1.336
						c-1.438,1.448-1.21,2.837-1.074,3.667c-1.839,0-3.227,0-3.227,0c0-4.185,3.663-7.578,8.181-7.578
						C361.341,235.332,361.341,236.409,361.341,237.922"/>
					<path fill="#CACCCD" d="M361.341,237.779c-0.099,0.096-0.322-0.012-0.459-0.017c-0.769-0.028-2.375,0.23-3.516,1.375
						c-1.494,1.497-1.259,3.035-1.146,3.773c-1.755,0-3.06,0-3.06,0c0-4.185,3.663-7.578,8.181-7.578
						C361.341,235.332,361.341,236.341,361.341,237.779"/>
					<path fill="#C7C9C9" d="M361.341,237.643c-0.102,0.098-0.329-0.013-0.47-0.019c-1.015-0.041-2.574,0.383-3.598,1.409
						c-1.583,1.586-1.295,3.25-1.187,3.877c-1.688,0-2.926,0-2.926,0c0-4.185,3.663-7.578,8.181-7.578
						C361.341,235.332,361.341,236.278,361.341,237.643"/>
					<path fill="#C3C5C6" d="M361.341,237.507c-0.104,0.1-0.336-0.014-0.48-0.021c-0.743-0.032-2.467,0.229-3.679,1.444
						c-1.581,1.585-1.386,3.311-1.228,3.979c-1.619,0-2.793,0-2.793,0c0-4.185,3.663-7.578,8.181-7.578
						C361.341,235.332,361.341,236.216,361.341,237.507"/>
					<path fill="#C0C2C2" d="M361.341,237.374c-3.604-0.153-6.077,2.331-5.512,5.537c-1.555,0-2.669,0-2.669,0
						c0-4.185,3.663-7.578,8.181-7.578C361.341,235.332,361.341,236.155,361.341,237.374"/>
					<path fill="#BCBEBF" d="M361.341,237.237c-0.108,0.104-0.35-0.016-0.5-0.023c-0.899-0.042-2.664,0.328-3.841,1.513
						c-0.81,0.816-1.692,2.203-1.292,4.183c-1.49,0-2.546,0-2.546,0c0-4.185,3.663-7.578,8.181-7.578
						C361.341,235.332,361.341,236.094,361.341,237.237"/>
					<path fill="#B9BBBC" d="M361.341,237.101c-0.096,0.091-0.309-0.015-0.441-0.021c-1.132-0.054-2.864,0.407-3.993,1.545
						c-1.694,1.709-1.491,3.566-1.325,4.285c-1.424,0-2.422,0-2.422,0c0-4.185,3.663-7.578,8.181-7.578
						C361.341,235.332,361.341,236.034,361.341,237.101"/>
					<path fill="#B5B7B8" d="M361.341,236.958c-0.113,0.108-0.365-0.017-0.521-0.023c-0.939-0.043-2.782,0.344-4.008,1.584
						c-1.223,1.237-1.678,2.715-1.354,4.392c-1.358,0-2.298,0-2.298,0c0-4.185,3.663-7.578,8.181-7.578
						C361.341,235.332,361.341,235.972,361.341,236.958"/>
					<path fill="#B1B4B5" d="M361.341,236.815c-0.116,0.11-0.373-0.018-0.532-0.026c-0.958-0.046-2.838,0.347-4.095,1.621
						c-1.785,1.81-1.563,3.75-1.385,4.5c-1.288,0-2.169,0-2.169,0c0-4.185,3.663-7.578,8.181-7.578
						C361.341,235.332,361.341,235.911,361.341,236.815"/>
					<path fill="#AEB0B1" d="M361.341,236.665c-0.118,0.113-0.38-0.016-0.543-0.022c-0.985-0.042-2.912,0.366-4.182,1.658
						c-1.286,1.307-1.763,2.857-1.418,4.61c-1.216,0-2.037,0-2.037,0c0-4.185,3.663-7.578,8.181-7.578
						C361.341,235.332,361.341,235.847,361.341,236.665"/>
					<path fill="#AAACAD" d="M361.341,236.511c-0.12,0.115-0.388-0.016-0.555-0.023c-1.213-0.051-3.123,0.526-4.273,1.698
						c-1.802,1.835-1.685,3.748-1.454,4.725c-1.139,0-1.898,0-1.898,0c0-4.185,3.663-7.578,8.181-7.578
						C361.341,235.332,361.341,235.783,361.341,236.511"/>
					<path fill="#A6A9AA" d="M361.341,236.354c-0.123,0.118-0.396-0.016-0.566-0.023c-1.241-0.052-3.193,0.54-4.367,1.737
						c-1.373,1.401-1.875,3.03-1.492,4.842c-1.06,0-1.756,0-1.756,0c0-4.185,3.663-7.578,8.181-7.578
						C361.341,235.332,361.341,235.719,361.341,236.354"/>
					<path fill="#A2A5A6" d="M361.341,236.195c-0.125,0.121-0.405-0.016-0.578-0.022c-1.269-0.05-3.264,0.556-4.461,1.778
						c-1.787,1.823-1.824,3.704-1.542,4.96c-0.972,0-1.6,0-1.6,0c0-4.185,3.663-7.578,8.181-7.578
						C361.341,235.332,361.341,235.655,361.341,236.195"/>
					<path fill="#9FA1A3" d="M361.341,236.033c-0.127,0.123-0.413-0.014-0.59-0.021c-1.299-0.045-3.337,0.578-4.555,1.819
						c-1.957,1.996-1.84,4.039-1.597,5.079c-0.879,0-1.438,0-1.438,0c0-4.185,3.663-7.578,8.181-7.578
						C361.341,235.332,361.341,235.591,361.341,236.033"/>
					<path fill="#9B9D9F" d="M361.341,235.87c-4.862-0.134-7.708,3.674-6.913,7.04c-0.78,0-1.268,0-1.268,0
						c0-4.185,3.663-7.578,8.181-7.578C361.341,235.332,361.341,235.528,361.341,235.87"/>
					<path fill="#979A9B" d="M361.341,235.712c-0.131,0.129-0.429-0.008-0.613-0.011c-1.381-0.025-3.531,0.679-4.737,1.902
						c-0.583,0.59-2.354,2.387-1.749,5.307c-0.671,0-1.082,0-1.082,0c0-4.185,3.663-7.578,8.181-7.578
						C361.341,235.332,361.341,235.468,361.341,235.712"/>
					<path fill="#949698" d="M361.341,235.566c-0.133,0.132-0.437-0.003-0.624-0.004c-0.864-0.005-3.101,0.211-5.214,2.337
						c-0.346,0.348-2.039,2.223-1.458,5.011c-0.553,0-0.884,0-0.884,0c0-4.185,3.663-7.578,8.181-7.578
						C361.341,235.332,361.341,235.415,361.341,235.566"/>
					<path fill="#909394" d="M361.341,235.443c-0.037,0.036-0.121-0.002-0.172-0.003c-1.23-0.024-3.614,0.253-5.75,2.378
						c-0.36,0.358-2.128,2.286-1.585,5.092c-0.425,0-0.673,0-0.673,0c0-4.185,3.663-7.578,8.181-7.578
						C361.341,235.332,361.341,235.37,361.341,235.443"/>
					<path fill="#8D8F91" d="M361.341,235.356c-0.134,0.137-0.447,0.01-0.638,0.015c-3.315,0.075-7.726,3.05-7.09,7.54
						c-0.289,0-0.453,0-0.453,0c0-4.185,3.663-7.578,8.181-7.578C361.341,235.332,361.341,235.34,361.341,235.356"/>
					<path fill="#898B8D" d="M354.278,239.086c-0.786,1.379-1.017,2.38-0.883,3.824c-0.152,0-0.234,0-0.234,0
						c0-1.544,0.499-2.981,1.355-4.179C354.444,238.837,354.346,238.977,354.278,239.086"/>
					<path fill="#86888A" d="M353.261,241.739c-0.058,0.497-0.08,0.682-0.052,1.171c-0.032,0-0.049,0-0.049,0
						c0-0.57,0.068-1.125,0.197-1.659C353.328,241.397,353.284,241.591,353.261,241.739"/>
				</g>
			</g>
			<g enable-background="new    ">
				<defs>
					<path id="SVGID_15_" enable-background="new    " d="M361.341,239.332c0-2.208,0-4,0-4h77.382c0,0,0,1.792,0,4H361.341z"/>
				</defs>
				<clipPath id="SVGID_16_">
					<use xlink:href="#SVGID_15_"  overflow="visible"/>
				</clipPath>
				<g clip-path="url(#SVGID_16_)" enable-background="new    ">
					<path fill="#D5D7D7" d="M438.723,239.332h-77.382c0-0.042,0-0.083,0-0.125h77.382
						C438.723,239.249,438.723,239.291,438.723,239.332"/>
					<path fill="#D9DADA" d="M438.723,239.208h-77.382c0-0.059,0-0.119,0-0.177h77.382
						C438.723,239.089,438.723,239.148,438.723,239.208"/>
					<path fill="#DFE0E0" d="M438.723,239.03h-77.382c0-0.181,0-0.359,0-0.533h77.382
						C438.723,238.671,438.723,238.849,438.723,239.03"/>
					<path fill="#D9DADA" d="M438.723,238.498h-77.382c0-0.083,0-0.165,0-0.245h77.382
						C438.723,238.333,438.723,238.415,438.723,238.498"/>
					<path fill="#D5D7D7" d="M438.723,238.252h-77.382c0-0.062,0-0.122,0-0.182h77.382
						C438.723,238.13,438.723,238.191,438.723,238.252"/>
					<path fill="#D2D3D3" d="M438.723,238.071h-77.382c0-0.05,0-0.099,0-0.147h77.382
						C438.723,237.972,438.723,238.021,438.723,238.071"/>
					<path fill="#CED0D0" d="M438.723,237.924h-77.382c0-0.049,0-0.097,0-0.144h77.382
						C438.723,237.827,438.723,237.875,438.723,237.924"/>
					<path fill="#CACCCD" d="M438.723,237.78h-77.382c0-0.046,0-0.091,0-0.137h77.382
						C438.723,237.688,438.723,237.734,438.723,237.78"/>
					<path fill="#C7C9C9" d="M438.723,237.643h-77.382c0-0.045,0-0.089,0-0.133h77.382
						C438.723,237.554,438.723,237.598,438.723,237.643"/>
					<path fill="#C3C5C6" d="M438.723,237.51h-77.382c0-0.046,0-0.091,0-0.136h77.382
						C438.723,237.418,438.723,237.464,438.723,237.51"/>
					<path fill="#C0C2C2" d="M438.723,237.374h-77.382c0-0.045,0-0.09,0-0.134h77.382
						C438.723,237.284,438.723,237.329,438.723,237.374"/>
					<path fill="#BCBEBF" d="M438.723,237.24h-77.382c0-0.047,0-0.094,0-0.14h77.382
						C438.723,237.146,438.723,237.192,438.723,237.24"/>
					<path fill="#B9BBBC" d="M438.723,237.1h-77.382c0-0.047,0-0.093,0-0.138h77.382C438.723,237.007,438.723,237.053,438.723,237.1
						"/>
					<path fill="#B5B7B8" d="M438.723,236.961h-77.382c0-0.05,0-0.099,0-0.147h77.382
						C438.723,236.862,438.723,236.911,438.723,236.961"/>
					<path fill="#B1B4B5" d="M438.723,236.814h-77.382c0-0.05,0-0.1,0-0.148h77.382
						C438.723,236.714,438.723,236.764,438.723,236.814"/>
					<path fill="#AEB0B1" d="M438.723,236.666h-77.382c0-0.052,0-0.102,0-0.151h77.382
						C438.723,236.563,438.723,236.614,438.723,236.666"/>
					<path fill="#AAACAD" d="M438.723,236.514h-77.382c0-0.055,0-0.108,0-0.16h77.382
						C438.723,236.406,438.723,236.459,438.723,236.514"/>
					<path fill="#A6A9AA" d="M438.723,236.354h-77.382c0-0.056,0-0.109,0-0.161h77.382
						C438.723,236.245,438.723,236.299,438.723,236.354"/>
					<path fill="#A2A5A6" d="M438.723,236.193h-77.382c0-0.057,0-0.111,0-0.163h77.382
						C438.723,236.083,438.723,236.137,438.723,236.193"/>
					<path fill="#9FA1A3" d="M438.723,236.031h-77.382c0-0.057,0-0.111,0-0.162h77.382
						C438.723,235.92,438.723,235.974,438.723,236.031"/>
					<path fill="#9B9D9F" d="M438.723,235.869h-77.382c0-0.057,0-0.109,0-0.157h77.382
						C438.723,235.76,438.723,235.813,438.723,235.869"/>
					<path fill="#979A9B" d="M438.723,235.712h-77.382c0-0.054,0-0.103,0-0.146h77.382
						C438.723,235.609,438.723,235.658,438.723,235.712"/>
					<path fill="#949698" d="M438.723,235.566h-77.382c0-0.048,0-0.09,0-0.124h77.382
						C438.723,235.477,438.723,235.518,438.723,235.566"/>
					<path fill="#909394" d="M438.723,235.443h-77.382c0-0.039,0-0.068,0-0.087h77.382
						C438.723,235.375,438.723,235.404,438.723,235.443"/>
					<path fill="#8D8F91" d="M438.723,235.356h-77.382c0-0.016,0-0.024,0-0.024h77.382
						C438.723,235.332,438.723,235.34,438.723,235.356"/>
				</g>
			</g>
		</g>
	</g>
</g>
</svg>
