<?xml version="1.0" encoding="utf-8"?>
<!-- Generator: Adobe Illustrator 16.0.0, SVG Export Plug-In . SVG Version: 6.00 Build 0)  -->
<!DOCTYPE svg PUBLIC "-//W3C//DTD SVG 1.1//EN" "http://www.w3.org/Graphics/SVG/1.1/DTD/svg11.dtd">
<svg version="1.1" id="Layer_1" xmlns="http://www.w3.org/2000/svg" xmlns:xlink="http://www.w3.org/1999/xlink" x="0px" y="0px"
	 width="361px" height="197.5px" viewBox="381 0 361 197.5" enable-background="new 381 0 361 197.5" xml:space="preserve">
<linearGradient id="SVGID_1_" gradientUnits="userSpaceOnUse" x1="703.9043" y1="-377.3599" x2="969.002" y2="-377.3599" gradientTransform="matrix(1 0 0 -1 -270 -348.5)">
	<stop  offset="0.0056" style="stop-color:#BBBCBE"/>
	<stop  offset="0.2921" style="stop-color:#989CA0"/>
	<stop  offset="0.6517" style="stop-color:#BFBEC2"/>
	<stop  offset="0.8652" style="stop-color:#9EA0A4"/>
	<stop  offset="1" style="stop-color:#A7A9AC"/>
	<stop  offset="1" style="stop-color:#C3C6CA"/>
</linearGradient>
<path fill="url(#SVGID_1_)" stroke="#010101" stroke-width="2" stroke-miterlimit="10" d="M699.002,28.86
	c0-1.934-1.012-3.5-2.256-3.5H436.16c-1.246,0-2.256,1.566-2.256,3.5l0,0c0,1.934,1.01,3.499,2.256,3.499l260.587,0.001
	C697.991,32.36,699.002,30.791,699.002,28.86L699.002,28.86z"/>
<linearGradient id="SVGID_2_" gradientUnits="userSpaceOnUse" x1="825.6924" y1="-442.5146" x2="848.8213" y2="-442.5146" gradientTransform="matrix(1 0 0 -1 -270 -348.5)">
	<stop  offset="0.0056" style="stop-color:#BBBCBE"/>
	<stop  offset="0.2921" style="stop-color:#989CA0"/>
	<stop  offset="0.6517" style="stop-color:#BFBEC2"/>
	<stop  offset="0.8652" style="stop-color:#9EA0A4"/>
	<stop  offset="1" style="stop-color:#A7A9AC"/>
	<stop  offset="1" style="stop-color:#C3C6CA"/>
</linearGradient>
<path fill="url(#SVGID_2_)" stroke="#010101" stroke-width="2" stroke-miterlimit="10" d="M578.821,176.899
	c0,4.196-3.806,7.601-8.499,7.601h-6.13c-4.694,0-8.5-3.403-8.5-7.601V11.13c0-4.197,3.806-7.6,8.5-7.6h6.13
	c4.693,0,8.499,3.403,8.499,7.6V176.899z"/>
<linearGradient id="SVGID_3_" gradientUnits="userSpaceOnUse" x1="775.8438" y1="-491.3916" x2="898.8438" y2="-491.3916" gradientTransform="matrix(1 0 0 -1 -270 -348.5)">
	<stop  offset="0.0056" style="stop-color:#BBBCBE"/>
	<stop  offset="0.2921" style="stop-color:#989CA0"/>
	<stop  offset="0.6517" style="stop-color:#BFBEC2"/>
	<stop  offset="0.8652" style="stop-color:#9EA0A4"/>
	<stop  offset="1" style="stop-color:#A7A9AC"/>
	<stop  offset="1" style="stop-color:#C3C6CA"/>
</linearGradient>
<path fill="url(#SVGID_3_)" stroke="#010101" stroke-width="2" stroke-miterlimit="10" d="M628.844,165.344
	c0,8.043-5.373,14.562-12,14.562h-99c-6.627,0-12-6.521-12-14.562l10-44.905c0-8.042,6.373-14.562,13-14.562h78
	c6.627,0,13,6.521,13,14.562L628.844,165.344z"/>
<linearGradient id="SVGID_4_" gradientUnits="userSpaceOnUse" x1="775.8438" y1="-533.1582" x2="898.8438" y2="-533.1582" gradientTransform="matrix(1 0 0 -1 -270 -348.5)">
	<stop  offset="0.0056" style="stop-color:#BBBCBE"/>
	<stop  offset="0.2921" style="stop-color:#989CA0"/>
	<stop  offset="0.6517" style="stop-color:#BFBEC2"/>
	<stop  offset="0.8652" style="stop-color:#9EA0A4"/>
	<stop  offset="1" style="stop-color:#A7A9AC"/>
	<stop  offset="1" style="stop-color:#C3C6CA"/>
</linearGradient>
<path fill="url(#SVGID_4_)" stroke="#010101" stroke-width="2" stroke-miterlimit="10" d="M628.844,184.658
	c0,2.441-2.299,4.422-5.139,4.422H510.979c-2.836,0-5.136-1.979-5.136-4.422l0,0c0-2.44,2.299-4.422,5.136-4.422h112.729
	C626.547,180.236,628.844,182.217,628.844,184.658L628.844,184.658z"/>
<linearGradient id="SVGID_5_" gradientUnits="userSpaceOnUse" x1="804.4043" y1="-450.5625" x2="869.4043" y2="-450.5625" gradientTransform="matrix(1 0 0 -1 -270 -348.5)">
	<stop  offset="0.0056" style="stop-color:#BBBCBE"/>
	<stop  offset="0.2921" style="stop-color:#989CA0"/>
	<stop  offset="0.6517" style="stop-color:#BFBEC2"/>
	<stop  offset="0.8652" style="stop-color:#9EA0A4"/>
	<stop  offset="1" style="stop-color:#A7A9AC"/>
	<stop  offset="1" style="stop-color:#C3C6CA"/>
</linearGradient>
<path fill="url(#SVGID_5_)" stroke="#010101" stroke-width="2" stroke-miterlimit="10" d="M599.404,102.062
	c0,2.106-3.703,3.813-8.273,3.813h-48.452c-4.569,0-8.274-1.707-8.274-3.813l0,0c0-2.104,3.705-3.812,8.274-3.812h48.452
	C595.701,98.25,599.404,99.955,599.404,102.062L599.404,102.062z"/>
<radialGradient id="SVGID_6_" cx="823.543" cy="-377.0293" r="6.1993" gradientTransform="matrix(1 0 0 -1 -270 -348.5)" gradientUnits="userSpaceOnUse">
	<stop  offset="0" style="stop-color:#989CA0"/>
	<stop  offset="0.0056" style="stop-color:#BBBCBE"/>
	<stop  offset="0.5032" style="stop-color:#BFBEC2"/>
	<stop  offset="0.6802" style="stop-color:#BCBCC0"/>
	<stop  offset="0.8227" style="stop-color:#B3B4B7"/>
	<stop  offset="0.9527" style="stop-color:#A5A6AA"/>
	<stop  offset="1" style="stop-color:#9EA0A4"/>
	<stop  offset="1" style="stop-color:#A7A9AC"/>
	<stop  offset="1" style="stop-color:#C3C6CA"/>
</radialGradient>
<path fill="url(#SVGID_6_)" stroke="#010101" stroke-width="2" stroke-miterlimit="10" d="M555.692,34.879
	c0,1.188-0.962,2.15-2.149,2.15l0,0c-1.188,0-2.15-0.963-2.15-2.15V22.18c0-1.188,0.963-2.15,2.15-2.15l0,0
	c1.188,0,2.149,0.963,2.149,2.15V34.879z"/>
<radialGradient id="SVGID_7_" cx="850.9727" cy="-377.3584" r="6.1984" gradientTransform="matrix(1 0 0 -1 -270 -348.5)" gradientUnits="userSpaceOnUse">
	<stop  offset="0" style="stop-color:#989CA0"/>
	<stop  offset="0.0056" style="stop-color:#BBBCBE"/>
	<stop  offset="0.5032" style="stop-color:#BFBEC2"/>
	<stop  offset="0.6802" style="stop-color:#BCBCC0"/>
	<stop  offset="0.8227" style="stop-color:#B3B4B7"/>
	<stop  offset="0.9527" style="stop-color:#A5A6AA"/>
	<stop  offset="1" style="stop-color:#9EA0A4"/>
	<stop  offset="1" style="stop-color:#A7A9AC"/>
	<stop  offset="1" style="stop-color:#C3C6CA"/>
</radialGradient>
<path fill="url(#SVGID_7_)" stroke="#010101" stroke-width="2" stroke-miterlimit="10" d="M583.121,35.208
	c0,1.188-0.961,2.149-2.147,2.149l0,0c-1.188,0-2.149-0.963-2.149-2.149V22.51c0-1.188,0.963-2.15,2.149-2.15l0,0
	c1.188,0,2.147,0.963,2.147,2.15V35.208z"/>
<linearGradient id="SVGID_8_" gradientUnits="userSpaceOnUse" x1="661.9043" y1="-505.5039" x2="749.2129" y2="-505.5039" gradientTransform="matrix(1 0 0 -1 -270 -348.5)">
	<stop  offset="0.0056" style="stop-color:#BBBCBE"/>
	<stop  offset="0.2921" style="stop-color:#989CA0"/>
	<stop  offset="0.6517" style="stop-color:#BFBEC2"/>
	<stop  offset="0.8652" style="stop-color:#9EA0A4"/>
	<stop  offset="1" style="stop-color:#A7A9AC"/>
	<stop  offset="1" style="stop-color:#C3C6CA"/>
</linearGradient>
<path fill="url(#SVGID_8_)" stroke="#010101" stroke-width="2" stroke-miterlimit="10" d="M479.213,157.004
	c0,5.92-2.926,10.721-6.537,10.721h-74.234c-3.609,0-6.537-4.801-6.537-10.721l0,0c0-5.92,2.928-10.721,6.537-10.721h74.234
	C476.287,146.283,479.213,151.084,479.213,157.004L479.213,157.004z"/>
<linearGradient id="SVGID_9_" gradientUnits="userSpaceOnUse" x1="922.915" y1="-505.2837" x2="1010.2217" y2="-505.2837" gradientTransform="matrix(1 0 0 -1 -270 -348.5)">
	<stop  offset="0.0056" style="stop-color:#BBBCBE"/>
	<stop  offset="0.2921" style="stop-color:#989CA0"/>
	<stop  offset="0.6517" style="stop-color:#BFBEC2"/>
	<stop  offset="0.8652" style="stop-color:#9EA0A4"/>
	<stop  offset="1" style="stop-color:#A7A9AC"/>
	<stop  offset="1" style="stop-color:#C3C6CA"/>
</linearGradient>
<path fill="url(#SVGID_9_)" stroke="#010101" stroke-width="2" stroke-miterlimit="10" d="M740.222,156.783
	c0,5.92-2.927,10.722-6.537,10.722h-74.232c-3.611,0-6.537-4.802-6.537-10.722l0,0c0-5.92,2.926-10.721,6.537-10.721h74.232
	C737.296,146.062,740.222,150.863,740.222,156.783L740.222,156.783z"/>
<line fill="none" stroke="#010101" stroke-width="2.8158" stroke-miterlimit="10" x1="397.94" y1="72.225" x2="437.784" y2="32.381"/>
<line fill="none" stroke="#010101" stroke-width="2.8964" stroke-miterlimit="10" x1="398.441" y1="146.283" x2="398.441" y2="71.34"/>
<line fill="none" stroke="#010101" stroke-width="2.8158" stroke-miterlimit="10" x1="475.402" y1="72.203" x2="435.559" y2="32.359"/>
<line fill="none" stroke="#010101" stroke-width="2.8964" stroke-miterlimit="10" x1="474.901" y1="146.262" x2="474.901" y2="71.319"/>
<line fill="none" stroke="#010101" stroke-width="2.8158" stroke-miterlimit="10" x1="657.837" y1="73.225" x2="697.681" y2="33.381"/>
<line fill="none" stroke="#010101" stroke-width="2.8964" stroke-miterlimit="10" x1="658.338" y1="147.283" x2="658.338" y2="72.34"/>
<line fill="none" stroke="#010101" stroke-width="2.8158" stroke-miterlimit="10" x1="735.299" y1="73.203" x2="695.455" y2="33.359"/>
<line fill="none" stroke="#010101" stroke-width="2.8964" stroke-miterlimit="10" x1="734.798" y1="147.262" x2="734.798" y2="72.319"/>
</svg>
